<svg width="98" height="103" viewBox="0 0 98 103" fill="none" xmlns="http://www.w3.org/2000/svg">
<path d="M60.2933 94.3725C57.7598 94.854 13.9342 78.5354 11.2919 74.3897C11.2369 74.3179 11.1995 74.2343 11.1827 74.1455C11.1658 74.0567 11.1699 73.9652 11.1947 73.8783L35.0999 8.95931C35.1517 8.81343 35.2586 8.69367 35.3977 8.62574C37.999 7.36066 56.3565 13.7935 67.9416 18.5514C75.6996 21.7368 85.1339 26.0124 85.9331 28.317C87.0807 31.5668 66.9117 83.7704 61.7947 92.6421C61.051 93.9876 60.6652 94.3018 60.2933 94.3725ZM12.463 73.9623C13.9852 75.6357 23.109 79.862 35.9949 84.9387C48.8807 90.0153 58.9689 93.3598 60.084 93.2081C62.784 91.3222 85.5714 32.1788 84.8462 28.6801C84.4825 27.6535 79.7203 24.6452 67.4741 19.6397C52.4461 13.4289 38.4033 9.23452 36.1422 9.62819L12.463 73.9623Z" fill="#3A556A"/>
<path d="M17.7116 78.2633C17.6056 78.2858 17.4954 78.2775 17.394 78.2394C17.2477 78.1825 17.1293 78.0709 17.0639 77.9282C16.9986 77.7855 16.9914 77.6229 17.044 77.475L41.8926 9.98049C41.9181 9.90609 41.9584 9.83768 42.0112 9.77938C42.064 9.72108 42.1281 9.67412 42.1996 9.64138C42.2711 9.60864 42.3485 9.59082 42.4271 9.58895C42.5057 9.58708 42.5839 9.60122 42.6569 9.63053C42.802 9.68535 42.9197 9.79493 42.9848 9.93572C43.0498 10.0765 43.057 10.2372 43.0047 10.3832L18.1583 77.8894C18.1215 77.9843 18.0612 78.0684 17.9831 78.1338C17.905 78.1992 17.8116 78.2437 17.7116 78.2633Z" fill="#3A556A"/>
<path d="M71.6892 48.7852C71.5778 48.806 71.4628 48.7945 71.3578 48.7518L39.4686 35.872C39.3267 35.8128 39.2135 35.7006 39.1529 35.5592C39.0923 35.4179 39.0892 35.2585 39.1441 35.1149L44.1463 21.5207C44.2009 21.3728 44.3112 21.2522 44.4536 21.1846C44.5961 21.117 44.7593 21.1079 44.9084 21.1591L77.1599 33.0308C77.2333 33.0577 77.3006 33.0989 77.358 33.152C77.4154 33.205 77.4617 33.269 77.4943 33.34C77.5268 33.4111 77.5449 33.4879 77.5476 33.566C77.5503 33.6442 77.5375 33.722 77.5098 33.7952L72.136 48.4113C72.0753 48.5604 71.9607 48.6811 71.8149 48.7493L71.6892 48.7852ZM40.4446 34.9881L71.2266 47.4282L76.2 33.9358L45.0512 22.4806L40.4446 34.9881Z" fill="#3A556A"/>
<path d="M57.8043 52.833C57.698 52.8496 57.5893 52.8414 57.4867 52.8091L36.9914 45.2654C36.8463 45.2053 36.7274 45.0956 36.6556 44.9559C36.6234 44.8848 36.6055 44.808 36.603 44.7299C36.6006 44.6518 36.6136 44.574 36.6414 44.501L38.5587 39.3201C38.5865 39.2449 38.6293 39.1762 38.6845 39.1181C38.7397 39.06 38.8061 39.0138 38.8797 38.9821C38.953 38.948 39.0327 38.9299 39.1136 38.9291C39.1944 38.9283 39.2745 38.9447 39.3484 38.9773L59.4172 47.6978C59.5563 47.7573 59.6667 47.8688 59.7247 48.0085C59.7828 48.1482 59.7839 48.3051 59.7279 48.4456L58.2532 52.4707C58.2146 52.5638 58.1533 52.6457 58.0749 52.709C57.9965 52.7723 57.9035 52.8149 57.8043 52.833ZM37.9513 44.3604L57.3716 51.5064L58.4485 48.5563L39.489 40.2872L37.9513 44.3604Z" fill="#3A556A"/>
<path d="M34.172 85.3575C34.1024 85.3878 34.027 85.4022 33.9511 85.3995C33.8742 85.3839 33.8012 85.353 33.7363 85.3088C33.6713 85.2647 33.6159 85.208 33.5731 85.1422C33.5303 85.0763 33.5011 85.0026 33.4871 84.9253C33.4731 84.8481 33.4746 84.7688 33.4916 84.6921C33.6152 84.1388 36.5708 71.054 47.2533 65.8688C54.02 62.5717 62.3285 63.2683 71.9469 67.9425C72.0878 68.0115 72.1954 68.1336 72.2462 68.2821C72.297 68.4305 72.2868 68.593 72.2178 68.7339C72.1487 68.8747 72.0266 68.9824 71.8781 69.0332C71.7297 69.084 71.5672 69.0737 71.4263 69.0047C62.1427 64.5078 54.2027 63.8495 47.7675 66.927C37.5931 71.8712 34.6829 84.8149 34.6469 84.9422C34.615 85.0492 34.5535 85.145 34.4695 85.2185C34.3854 85.292 34.2823 85.3402 34.172 85.3575Z" fill="#3A556A"/>
<path d="M40.3432 87.7967C40.2463 87.8199 40.1447 87.8141 40.051 87.78C39.9767 87.7565 39.9078 87.7183 39.8486 87.6675C39.7894 87.6168 39.741 87.5546 39.7063 87.4848C39.6717 87.4149 39.6515 87.3388 39.647 87.261C39.6425 87.1831 39.6537 87.1051 39.68 87.0317C41.978 80.1167 45.7876 75.2624 51.1236 72.6106C60.1081 68.1213 69.9971 71.4315 70.4088 71.57C70.4863 71.5915 70.5585 71.6285 70.6212 71.6789C70.6839 71.7292 70.7357 71.7918 70.7733 71.8629C70.811 71.9339 70.8338 72.0118 70.8403 72.092C70.8469 72.1721 70.837 72.2527 70.8113 72.3289C70.7856 72.4051 70.7447 72.4753 70.691 72.5351C70.6373 72.5949 70.5719 72.6432 70.4989 72.6769C70.426 72.7107 70.3469 72.7292 70.2665 72.7313C70.1861 72.7334 70.1062 72.7192 70.0315 72.6893C69.9385 72.707 60.1724 69.4095 51.6379 73.6688C46.6002 76.1796 42.9528 80.8104 40.7993 87.409C40.7646 87.5084 40.7041 87.5967 40.6239 87.6648C40.5437 87.733 40.4468 87.7785 40.3432 87.7967Z" fill="#3A556A"/>
<path d="M49.2922 90.9122C49.2172 90.9378 49.1389 90.9527 49.0597 90.9564C48.9836 90.9394 48.9116 90.9076 48.8478 90.8627C48.784 90.8178 48.7298 90.7607 48.6882 90.6948C48.6465 90.6288 48.6183 90.5553 48.6052 90.4784C48.5921 90.4015 48.5944 90.3228 48.6118 90.2468C52.1714 73.6877 68.3365 75.9976 68.4964 76.0154C68.6527 76.04 68.793 76.1257 68.8861 76.2536C68.9793 76.3815 69.0179 76.5412 68.9933 76.6976C68.9688 76.854 68.8831 76.9942 68.7551 77.0874C68.6272 77.1806 68.4675 77.2191 68.3111 77.1945C67.6903 77.0958 53.0911 75.0421 49.7671 90.4968C49.734 90.6032 49.6721 90.6982 49.5883 90.7715C49.5045 90.8449 49.402 90.8935 49.2922 90.9122Z" fill="#3A556A"/>
<path d="M64.4585 85.8138C64.3723 85.8312 64.2834 85.8292 64.1981 85.8079C64.1128 85.7866 64.0334 85.7466 63.9655 85.6908C52.3603 76.0118 55.1023 64.4005 55.1615 64.2688C55.2008 64.1184 55.2978 63.9895 55.4314 63.91C55.565 63.8305 55.7246 63.8069 55.8755 63.8441C56.0273 63.8857 56.1573 63.9839 56.2389 64.1185C56.3205 64.2531 56.3474 64.4138 56.3141 64.5676C56.3317 64.6605 53.7029 75.6 64.719 84.7769C64.7792 84.8258 64.829 84.8863 64.8655 84.9549C64.9019 85.0234 64.9242 85.0985 64.931 85.1759C64.9378 85.2532 64.9291 85.3311 64.9052 85.4049C64.8814 85.4788 64.843 85.5471 64.7922 85.6059C64.71 85.7135 64.5914 85.7874 64.4585 85.8138Z" fill="#3A556A"/>
<path d="M63.2624 89.3406L63.0881 89.3737C58.1115 88.8467 53.3207 87.1912 49.0805 84.5334C44.8402 81.8755 41.2622 78.2853 38.6188 74.036C38.5666 73.9007 38.566 73.7509 38.6169 73.6152C38.6679 73.4794 38.767 73.3672 38.8954 73.2997C39.0237 73.2322 39.1724 73.2142 39.3131 73.2491C39.4539 73.284 39.5769 73.3695 39.6588 73.4891C42.2166 77.5648 45.6669 81.006 49.7493 83.553C53.8318 86.1 58.4395 87.6862 63.2246 88.1918C63.3805 88.212 63.5223 88.2922 63.6199 88.4153C63.7175 88.5384 63.7632 88.6947 63.7473 88.8511C63.7278 88.9731 63.6705 89.0859 63.5835 89.1737C63.4965 89.2615 63.3842 89.3199 63.2624 89.3406Z" fill="#3A556A"/>
<path d="M24.5557 90.6412L24.4976 90.6523C24.3877 90.6625 24.2771 90.6418 24.1783 90.5925C24.0796 90.5432 23.9966 90.4672 23.9388 90.3732L21.1472 85.8223L16.6863 87.6937C16.582 87.7421 16.4655 87.7576 16.3522 87.7383C16.2389 87.719 16.1341 87.6657 16.0517 87.5856C15.9712 87.5026 15.9167 87.3978 15.8951 87.2842C15.8736 87.1706 15.8857 87.0531 15.9302 86.9464L19.06 78.4524C19.1149 78.3046 19.2264 78.1847 19.3697 78.1191C19.513 78.0535 19.6766 78.0474 19.8243 78.1024C19.9721 78.1573 20.092 78.2688 20.1576 78.4121C20.2233 78.5554 20.2293 78.719 20.1743 78.8667L17.553 86.1081L21.1637 84.5789C21.2935 84.5247 21.4384 84.5185 21.5723 84.5614C21.7063 84.6044 21.8206 84.6937 21.8946 84.8133L24.3185 88.7597L26.7481 82.1568C26.7753 82.0837 26.8167 82.0166 26.8698 81.9594C26.9229 81.9022 26.9868 81.856 27.0578 81.8236C27.1288 81.7911 27.2054 81.7728 27.2834 81.77C27.3615 81.7671 27.4393 81.7796 27.5124 81.8068C27.5856 81.8341 27.6527 81.8754 27.7099 81.9285C27.7671 81.9817 27.8132 82.0455 27.8457 82.1165C27.8782 82.1875 27.8964 82.2642 27.8993 82.3422C27.9021 82.4202 27.8896 82.498 27.8624 82.5712L25.0156 90.3371C24.9679 90.4201 24.9015 90.4908 24.8217 90.5436C24.7418 90.5964 24.6507 90.6298 24.5557 90.6412Z" fill="#3A556A"/>
</svg>
