<svg width="263" height="290" viewBox="0 0 263 290" fill="none" xmlns="http://www.w3.org/2000/svg">
<path d="M58.416 289.485C56.636 289.485 54.836 289.415 53.056 289.275C52.9908 289.271 52.9268 289.254 52.8681 289.225C52.8094 289.197 52.7572 289.156 52.7143 289.107C52.6714 289.058 52.6389 289 52.6185 288.938C52.5982 288.876 52.5906 288.81 52.596 288.745C52.5999 288.679 52.6166 288.615 52.6453 288.556C52.6741 288.496 52.7142 288.444 52.7634 288.4C52.8127 288.356 52.87 288.323 52.9323 288.301C52.9945 288.28 53.0603 288.271 53.126 288.275C54.886 288.415 56.666 288.485 58.416 288.485H59.086C59.2169 288.485 59.3426 288.536 59.4361 288.628C59.5296 288.719 59.5834 288.844 59.586 288.975C59.5861 289.108 59.5337 289.237 59.4402 289.332C59.3467 289.427 59.2196 289.482 59.086 289.485H58.416ZM65.076 289.155C64.9434 289.162 64.8136 289.115 64.7152 289.026C64.6167 288.937 64.5577 288.813 64.551 288.68C64.5444 288.547 64.5907 288.417 64.6798 288.319C64.7689 288.221 64.8934 288.162 65.026 288.155C67.026 287.955 69.026 287.665 70.916 287.295C71.0486 287.27 71.1858 287.298 71.2974 287.374C71.409 287.45 71.4858 287.567 71.511 287.7C71.5362 287.833 71.5077 287.97 71.4317 288.081C71.3558 288.193 71.2386 288.27 71.106 288.295C69.156 288.675 67.106 288.975 65.106 289.175L65.076 289.155ZM47.136 288.575H47.056C45.056 288.255 43.056 287.855 41.136 287.365C41.072 287.351 41.0114 287.324 40.9581 287.286C40.9049 287.248 40.86 287.199 40.8262 287.143C40.7925 287.087 40.7706 287.024 40.762 286.959C40.7534 286.894 40.7581 286.828 40.776 286.765C40.8069 286.637 40.8873 286.526 40.9997 286.456C41.1122 286.387 41.2474 286.365 41.376 286.395C43.296 286.875 45.266 287.275 47.216 287.585C47.3486 287.596 47.4716 287.658 47.5579 287.76C47.6441 287.861 47.6866 287.992 47.676 288.125C47.6654 288.258 47.6026 288.38 47.5013 288.467C47.4 288.553 47.2686 288.596 47.136 288.585V288.575ZM76.836 286.845C76.7704 286.855 76.7034 286.852 76.639 286.836C76.5746 286.82 76.5139 286.791 76.4605 286.751C76.4071 286.712 76.362 286.662 76.3278 286.606C76.2936 286.549 76.2709 286.486 76.261 286.42C76.2512 286.354 76.2544 286.287 76.2704 286.223C76.2864 286.158 76.315 286.098 76.3544 286.044C76.3939 285.991 76.4435 285.946 76.5004 285.912C76.5573 285.877 76.6204 285.855 76.686 285.845C78.596 285.265 80.476 284.595 82.286 283.845C82.4097 283.797 82.5469 283.799 82.6696 283.849C82.7923 283.899 82.8911 283.994 82.946 284.115C82.9932 284.237 82.9914 284.373 82.9411 284.494C82.8909 284.615 82.7959 284.712 82.676 284.765C80.8124 285.531 78.9098 286.199 76.976 286.765C76.9303 286.805 76.8752 286.832 76.816 286.845H76.836ZM35.496 285.695C35.4431 285.705 35.3889 285.705 35.336 285.695L33.776 285.145C32.406 284.655 31.036 284.145 29.696 283.545C29.5754 283.49 29.4803 283.391 29.4301 283.268C29.3799 283.146 29.3785 283.009 29.426 282.885C29.4808 282.764 29.5802 282.67 29.7034 282.621C29.8266 282.573 29.9638 282.574 30.086 282.625C31.4061 283.185 32.766 283.715 34.086 284.205C34.596 284.395 35.086 284.575 35.626 284.745C35.7586 284.766 35.8774 284.839 35.9562 284.948C36.0349 285.057 36.0672 285.192 36.046 285.325C36.0248 285.458 35.9518 285.576 35.843 285.655C35.7342 285.734 35.5986 285.766 35.466 285.745L35.496 285.695ZM87.866 282.245C87.7776 282.244 87.6909 282.22 87.6152 282.174C87.5394 282.128 87.4775 282.063 87.436 281.985C87.4026 281.928 87.381 281.865 87.3724 281.8C87.3639 281.734 87.3687 281.668 87.3864 281.604C87.4041 281.541 87.4345 281.482 87.4757 281.43C87.5168 281.379 87.568 281.336 87.626 281.305C89.346 280.365 91.046 279.305 92.696 278.185C92.8061 278.111 92.9411 278.083 93.0715 278.108C93.2018 278.134 93.3168 278.21 93.391 278.32C93.4653 278.43 93.4928 278.565 93.4675 278.695C93.4422 278.826 93.3661 278.941 93.256 279.015C91.5939 280.158 89.875 281.216 88.106 282.185C88.0327 282.226 87.9499 282.246 87.866 282.245ZM24.416 281.015C24.3354 281.015 24.2561 280.995 24.186 280.955C22.426 280.055 20.656 279.055 18.916 277.955C18.815 277.881 18.7455 277.771 18.7214 277.648C18.6972 277.525 18.72 277.398 18.7854 277.291C18.8508 277.184 18.954 277.106 19.0745 277.071C19.195 277.037 19.324 277.049 19.436 277.105C21.146 278.105 22.896 279.105 24.646 280.015C24.7628 280.079 24.85 280.185 24.8892 280.312C24.9285 280.439 24.9165 280.577 24.856 280.695C24.8214 280.785 24.7614 280.863 24.6834 280.92C24.6053 280.977 24.5124 281.01 24.416 281.015ZM97.716 275.465C97.6142 275.464 97.5152 275.432 97.4321 275.373C97.349 275.314 97.2858 275.231 97.2511 275.136C97.2163 275.04 97.2115 274.936 97.2374 274.838C97.2633 274.739 97.3187 274.651 97.396 274.585C98.896 273.315 100.396 271.955 101.766 270.585C101.812 270.538 101.866 270.501 101.926 270.476C101.986 270.451 102.051 270.438 102.116 270.438C102.181 270.438 102.246 270.451 102.306 270.476C102.366 270.501 102.42 270.538 102.466 270.585C102.513 270.631 102.55 270.687 102.575 270.748C102.601 270.809 102.614 270.874 102.614 270.94C102.614 271.006 102.601 271.071 102.575 271.132C102.55 271.193 102.513 271.248 102.466 271.295C101.046 272.735 99.546 274.115 98.026 275.395C97.9418 275.446 97.8443 275.47 97.746 275.465H97.716ZM14.156 274.805C14.0508 274.806 13.9484 274.77 13.866 274.705C12.246 273.565 10.616 272.345 9.04604 271.095C8.94235 271.011 8.87588 270.889 8.86092 270.756C8.84595 270.623 8.88369 270.49 8.96602 270.385C9.00678 270.334 9.05746 270.291 9.11504 270.259C9.17262 270.228 9.23594 270.208 9.30122 270.202C9.36651 270.195 9.43243 270.202 9.4951 270.221C9.55777 270.241 9.61589 270.273 9.66603 270.315C11.226 271.555 12.836 272.755 14.446 273.895C14.5524 273.971 14.6246 274.086 14.647 274.215C14.6695 274.344 14.6404 274.477 14.566 274.585C14.5236 274.648 14.4673 274.701 14.4015 274.739C14.3356 274.777 14.2619 274.8 14.186 274.805H14.156ZM4.78603 267.315C4.72515 267.316 4.66463 267.305 4.60799 267.283C4.55134 267.261 4.4997 267.227 4.45604 267.185C2.97604 265.855 1.50603 264.455 0.0960236 263.025C0.0491562 262.978 0.0119705 262.923 -0.0134125 262.862C-0.0387955 262.801 -0.0518646 262.736 -0.0518646 262.67C-0.0518646 262.604 -0.0387955 262.539 -0.0134125 262.478C0.0119705 262.417 0.0491562 262.361 0.0960236 262.315C0.142502 262.268 0.197815 262.231 0.258743 262.205C0.319672 262.18 0.385025 262.167 0.451035 262.167C0.517044 262.167 0.582397 262.18 0.643326 262.205C0.704254 262.231 0.759567 262.268 0.806046 262.315C2.20605 263.735 3.65602 265.125 5.12602 266.445C5.17289 266.491 5.21011 266.547 5.23549 266.608C5.26087 266.669 5.27394 266.734 5.27394 266.8C5.27394 266.866 5.26087 266.931 5.23549 266.992C5.21011 267.053 5.17289 267.108 5.12602 267.155C5.0442 267.242 4.9347 267.299 4.81602 267.315H4.78603ZM106.146 266.945C106.028 266.946 105.914 266.904 105.826 266.825C105.775 266.784 105.732 266.733 105.7 266.676C105.669 266.618 105.649 266.555 105.643 266.49C105.636 266.424 105.643 266.358 105.662 266.296C105.682 266.233 105.714 266.175 105.756 266.125C107.016 264.615 108.226 263.025 109.366 261.385C109.444 261.278 109.561 261.205 109.692 261.183C109.822 261.161 109.957 261.19 110.066 261.265C110.12 261.303 110.166 261.351 110.201 261.407C110.237 261.463 110.261 261.525 110.272 261.59C110.283 261.655 110.281 261.722 110.266 261.786C110.252 261.85 110.224 261.911 110.186 261.965C109.036 263.615 107.796 265.235 106.526 266.765C106.483 266.817 106.43 266.861 106.37 266.892C106.31 266.923 106.244 266.941 106.176 266.945H106.146ZM-3.58397 258.795C-3.65411 258.794 -3.72332 258.779 -3.78706 258.749C-3.85081 258.72 -3.90767 258.678 -3.95396 258.625C-5.27396 257.135 -6.58397 255.625 -7.83397 254.015C-7.91751 253.911 -7.95656 253.779 -7.94249 253.647C-7.92842 253.515 -7.86239 253.393 -7.75896 253.31C-7.65553 253.226 -7.52316 253.187 -7.39095 253.201C-7.25874 253.215 -7.13751 253.281 -7.05397 253.385C-5.80397 254.945 -4.51396 256.485 -3.20396 257.955C-3.14146 258.029 -3.10113 258.118 -3.08769 258.214C-3.07426 258.31 -3.08829 258.407 -3.1281 258.495C-3.16791 258.583 -3.23187 258.658 -3.31258 258.711C-3.39328 258.764 -3.4874 258.793 -3.58397 258.795ZM113.096 257.135C113.008 257.136 112.921 257.111 112.846 257.065C112.733 256.998 112.65 256.889 112.616 256.762C112.583 256.635 112.6 256.499 112.666 256.385C113.666 254.695 114.666 252.925 115.506 251.145C115.566 251.025 115.671 250.933 115.799 250.89C115.926 250.847 116.065 250.856 116.186 250.915C116.304 250.975 116.393 251.079 116.434 251.205C116.475 251.33 116.465 251.467 116.406 251.585C115.506 253.395 114.546 255.175 113.526 256.895C113.477 256.974 113.407 257.038 113.324 257.08C113.242 257.123 113.149 257.142 113.056 257.135H113.096ZM-11.094 249.435C-11.1715 249.434 -11.2477 249.416 -11.3171 249.381C-11.3864 249.346 -11.4469 249.296 -11.494 249.235C-12.674 247.622 -13.844 245.992 -15.004 244.345C-15.0715 244.236 -15.0947 244.105 -15.0688 243.98C-15.0428 243.855 -14.9697 243.744 -14.8645 243.671C-14.7593 243.598 -14.6301 243.568 -14.5035 243.587C-14.3768 243.606 -14.2625 243.674 -14.184 243.775C-13.0373 245.415 -11.8706 247.035 -10.684 248.635C-10.608 248.743 -10.577 248.877 -10.5975 249.007C-10.6181 249.138 -10.6885 249.255 -10.794 249.335C-10.8899 249.411 -11.0119 249.447 -11.134 249.435H-11.094ZM118.426 246.435C118.363 246.449 118.299 246.449 118.236 246.435C118.114 246.384 118.018 246.287 117.967 246.165C117.917 246.044 117.916 245.907 117.966 245.785C118.716 243.955 119.406 242.065 120.026 240.185C120.067 240.059 120.157 239.955 120.275 239.895C120.393 239.835 120.53 239.824 120.656 239.865C120.78 239.908 120.883 239.998 120.943 240.116C121.002 240.233 121.014 240.369 120.976 240.495C120.346 242.405 119.646 244.305 118.886 246.165C118.837 246.243 118.766 246.306 118.684 246.346C118.601 246.387 118.508 246.404 118.416 246.395L118.426 246.435ZM-18.084 239.635C-18.164 239.635 -18.2428 239.615 -18.314 239.579C-18.3853 239.542 -18.4469 239.49 -18.494 239.425C-19.634 237.785 -20.784 236.148 -21.944 234.515C-22.0183 234.407 -22.0474 234.274 -22.0249 234.145C-22.0025 234.016 -21.9303 233.901 -21.824 233.825C-21.7158 233.749 -21.5823 233.718 -21.4517 233.738C-21.3212 233.759 -21.2037 233.829 -21.124 233.935C-19.964 235.565 -18.814 237.215 -17.674 238.855C-17.6359 238.908 -17.6087 238.968 -17.5941 239.031C-17.5795 239.095 -17.5777 239.161 -17.5889 239.225C-17.6001 239.289 -17.624 239.351 -17.6592 239.406C-17.6944 239.461 -17.7402 239.508 -17.794 239.545C-17.8795 239.603 -17.9805 239.634 -18.084 239.635ZM122.136 235.005H122.016C121.952 234.989 121.892 234.96 121.84 234.92C121.787 234.881 121.743 234.831 121.709 234.775C121.676 234.718 121.654 234.655 121.645 234.59C121.636 234.525 121.639 234.459 121.656 234.395C122.146 232.505 122.586 230.545 122.966 228.575C122.979 228.509 123.004 228.447 123.04 228.391C123.077 228.335 123.124 228.287 123.18 228.249C123.235 228.212 123.297 228.185 123.362 228.172C123.428 228.158 123.495 228.157 123.561 228.17C123.627 228.182 123.689 228.208 123.745 228.244C123.801 228.281 123.849 228.328 123.887 228.384C123.924 228.439 123.951 228.501 123.964 228.566C123.978 228.632 123.979 228.699 123.966 228.765C123.586 230.765 123.136 232.765 122.646 234.645C122.614 234.754 122.547 234.849 122.454 234.914C122.361 234.98 122.249 235.012 122.136 235.005ZM-104.494 232.765C-104.537 232.775 -104.581 232.775 -104.624 232.765C-104.688 232.749 -104.748 232.72 -104.8 232.68C-104.853 232.641 -104.897 232.591 -104.931 232.535C-104.964 232.478 -104.986 232.415 -104.995 232.35C-105.004 232.285 -105 232.219 -104.984 232.155C-104.464 230.194 -103.772 228.283 -102.914 226.445C-102.892 226.378 -102.856 226.316 -102.808 226.264C-102.76 226.212 -102.702 226.171 -102.637 226.143C-102.573 226.115 -102.503 226.101 -102.432 226.102C-102.361 226.103 -102.292 226.119 -102.228 226.149C-102.164 226.179 -102.107 226.222 -102.061 226.275C-102.015 226.329 -101.98 226.391 -101.96 226.459C-101.94 226.527 -101.934 226.598 -101.944 226.668C-101.953 226.738 -101.977 226.805 -102.014 226.865C-102.84 228.654 -103.509 230.511 -104.014 232.415C-104.046 232.517 -104.11 232.606 -104.196 232.669C-104.283 232.732 -104.387 232.766 -104.494 232.765ZM-25.064 229.875C-25.1415 229.874 -25.2178 229.856 -25.2871 229.821C-25.3564 229.786 -25.4169 229.736 -25.464 229.675C-26.754 227.955 -27.954 226.415 -29.134 224.965C-29.1835 224.916 -29.2221 224.856 -29.2473 224.791C-29.2725 224.726 -29.2838 224.656 -29.2803 224.586C-29.2769 224.516 -29.2589 224.448 -29.2274 224.386C-29.1959 224.323 -29.1517 224.268 -29.0976 224.224C-29.0435 224.18 -28.9807 224.147 -28.9132 224.129C-28.8458 224.11 -28.7752 224.106 -28.7061 224.116C-28.637 224.127 -28.5708 224.152 -28.5119 224.189C-28.4529 224.227 -28.4025 224.277 -28.364 224.335C-27.164 225.795 -25.954 227.335 -24.664 229.075C-24.6082 229.149 -24.5743 229.238 -24.566 229.33C-24.5577 229.422 -24.5752 229.515 -24.6167 229.599C-24.6583 229.682 -24.7221 229.751 -24.8011 229.8C-24.8801 229.849 -24.9711 229.875 -25.064 229.875ZM124.416 223.245C124.351 223.236 124.289 223.215 124.233 223.182C124.177 223.149 124.128 223.105 124.088 223.053C124.049 223.001 124.021 222.942 124.005 222.878C123.989 222.815 123.986 222.749 123.996 222.685C124.256 220.745 124.476 218.755 124.646 216.745C124.661 216.613 124.727 216.492 124.83 216.408C124.932 216.324 125.064 216.284 125.196 216.295C125.327 216.308 125.448 216.371 125.532 216.472C125.616 216.574 125.657 216.704 125.646 216.835C125.476 218.835 125.246 220.835 124.986 222.835C124.962 222.963 124.889 223.077 124.783 223.154C124.677 223.23 124.545 223.263 124.416 223.245ZM-99.524 221.935C-99.6245 221.936 -99.7227 221.904 -99.804 221.845C-99.8585 221.809 -99.9052 221.762 -99.9414 221.707C-99.9776 221.653 -100.002 221.592 -100.015 221.527C-100.027 221.463 -100.026 221.397 -100.012 221.333C-99.9981 221.269 -99.9716 221.208 -99.934 221.155C-98.7939 219.48 -97.5268 217.896 -96.144 216.415C-96.0488 216.323 -95.9215 216.271 -95.789 216.271C-95.6564 216.271 -95.5291 216.323 -95.434 216.415C-95.3871 216.461 -95.3499 216.517 -95.3245 216.578C-95.2991 216.639 -95.2861 216.704 -95.2861 216.77C-95.2861 216.836 -95.2991 216.901 -95.3245 216.962C-95.3499 217.023 -95.3871 217.078 -95.434 217.125C-96.7814 218.57 -98.0182 220.114 -99.134 221.745C-99.1793 221.799 -99.2358 221.844 -99.2996 221.875C-99.3634 221.906 -99.4331 221.923 -99.504 221.925L-99.524 221.935ZM-32.694 220.615C-32.7619 220.615 -32.8291 220.601 -32.8911 220.574C-32.9532 220.546 -33.0087 220.506 -33.054 220.455C-34.454 218.935 -35.874 217.505 -37.254 216.225C-37.3462 216.13 -37.3978 216.002 -37.3978 215.87C-37.3978 215.737 -37.3462 215.61 -37.254 215.515C-37.2075 215.468 -37.1522 215.431 -37.0913 215.405C-37.0303 215.38 -36.965 215.367 -36.899 215.367C-36.833 215.367 -36.7676 215.38 -36.7067 215.405C-36.6458 215.431 -36.5904 215.468 -36.544 215.515C-35.144 216.815 -33.714 218.255 -32.294 219.795C-32.2471 219.841 -32.2099 219.897 -32.1845 219.958C-32.1591 220.019 -32.1461 220.084 -32.1461 220.15C-32.1461 220.216 -32.1591 220.281 -32.1845 220.342C-32.2099 220.403 -32.2471 220.458 -32.294 220.505C-32.3463 220.548 -32.4074 220.579 -32.473 220.597C-32.5386 220.614 -32.6072 220.617 -32.674 220.605L-32.694 220.615ZM-91.374 213.185C-91.4781 213.186 -91.5801 213.155 -91.6658 213.096C-91.7514 213.037 -91.8164 212.952 -91.8517 212.854C-91.8869 212.756 -91.8907 212.65 -91.8624 212.549C-91.8341 212.449 -91.7752 212.36 -91.694 212.295C-90.1107 211.028 -88.4399 209.876 -86.694 208.845C-86.5794 208.778 -86.4433 208.758 -86.3145 208.79C-86.1857 208.822 -86.0743 208.902 -86.004 209.015C-85.9379 209.131 -85.9197 209.268 -85.9533 209.397C-85.987 209.526 -86.0698 209.636 -86.184 209.705C-87.8843 210.713 -89.5116 211.839 -91.054 213.075C-91.1409 213.139 -91.2459 213.174 -91.354 213.175L-91.374 213.185ZM-41.504 212.495C-41.6123 212.496 -41.7178 212.46 -41.804 212.395C-43.3839 211.204 -45.0335 210.109 -46.744 209.115C-46.8441 209.042 -46.9136 208.935 -46.9391 208.814C-46.9647 208.693 -46.9444 208.566 -46.8822 208.459C-46.8199 208.352 -46.7202 208.272 -46.6023 208.234C-46.4845 208.197 -46.3568 208.204 -46.244 208.255C-44.5103 209.264 -42.8404 210.38 -41.244 211.595C-41.1379 211.674 -41.0678 211.793 -41.049 211.924C-41.0302 212.055 -41.0644 212.189 -41.144 212.295C-41.1842 212.349 -41.2353 212.393 -41.2938 212.426C-41.3524 212.459 -41.4172 212.479 -41.484 212.485L-41.504 212.495ZM125.466 211.245C125.334 211.237 125.211 211.179 125.121 211.082C125.032 210.985 124.983 210.857 124.986 210.725C125.056 208.975 125.086 207.175 125.086 205.375V204.745C125.086 204.612 125.139 204.485 125.232 204.391C125.326 204.298 125.453 204.245 125.586 204.245C125.719 204.245 125.846 204.298 125.94 204.391C126.033 204.485 126.086 204.612 126.086 204.745V205.375C126.086 207.185 126.086 209.005 125.986 210.765C125.983 210.831 125.968 210.895 125.94 210.955C125.913 211.014 125.874 211.068 125.826 211.113C125.777 211.157 125.721 211.192 125.659 211.215C125.597 211.237 125.532 211.248 125.466 211.245ZM-81.074 207.035C-81.1724 207.033 -81.2682 207.003 -81.3498 206.948C-81.4314 206.893 -81.4954 206.815 -81.534 206.725C-81.5816 206.601 -81.5801 206.464 -81.5299 206.341C-81.4797 206.219 -81.3846 206.12 -81.264 206.065C-79.3951 205.284 -77.4737 204.636 -75.514 204.125C-75.3814 204.092 -75.241 204.113 -75.1238 204.183C-75.0066 204.253 -74.9221 204.367 -74.889 204.5C-74.8558 204.633 -74.8767 204.773 -74.947 204.89C-75.0174 205.007 -75.1314 205.092 -75.264 205.125C-77.1772 205.623 -79.052 206.258 -80.874 207.025C-80.9376 207.052 -81.0051 207.069 -81.074 207.075V207.035ZM-51.854 206.505C-51.9169 206.515 -51.9811 206.515 -52.044 206.505C-53.044 206.105 -54.044 205.735 -55.044 205.415C-55.894 205.145 -56.774 204.915 -57.654 204.705C-57.7181 204.692 -57.7789 204.666 -57.8329 204.629C-57.8869 204.592 -57.933 204.545 -57.9684 204.49C-58.0038 204.435 -58.0278 204.374 -58.0391 204.309C-58.0504 204.245 -58.0486 204.179 -58.034 204.115C-58.0198 204.05 -57.993 203.989 -57.9551 203.935C-57.9172 203.881 -57.8689 203.835 -57.8132 203.8C-57.7574 203.765 -57.6951 203.741 -57.6301 203.729C-57.565 203.718 -57.4983 203.72 -57.434 203.735C-56.524 203.945 -55.624 204.185 -54.744 204.465C-53.744 204.795 -52.654 205.165 -51.654 205.575C-51.5929 205.599 -51.5372 205.635 -51.49 205.681C-51.4429 205.727 -51.4052 205.781 -51.3792 205.842C-51.3532 205.902 -51.3393 205.967 -51.3384 206.033C-51.3375 206.099 -51.3496 206.164 -51.374 206.225C-51.4099 206.322 -51.4756 206.406 -51.5619 206.463C-51.6481 206.521 -51.7504 206.549 -51.854 206.545V206.505ZM-69.494 204.025C-69.6162 204.024 -69.7339 203.979 -69.8257 203.898C-69.9175 203.817 -69.9772 203.706 -69.994 203.585C-70.0009 203.519 -69.9947 203.453 -69.9758 203.389C-69.9568 203.326 -69.9255 203.267 -69.8837 203.216C-69.8418 203.165 -69.7903 203.123 -69.732 203.091C-69.6736 203.06 -69.6097 203.041 -69.544 203.035C-67.5286 202.814 -65.4986 202.757 -63.474 202.865C-63.4083 202.869 -63.344 202.885 -63.2847 202.914C-63.2255 202.943 -63.1726 202.983 -63.1289 203.032C-63.0853 203.082 -63.0517 203.139 -63.0303 203.201C-63.0089 203.263 -62.9999 203.329 -63.004 203.395C-63.0065 203.46 -63.0221 203.524 -63.0497 203.583C-63.0774 203.643 -63.1166 203.696 -63.165 203.739C-63.2135 203.783 -63.2702 203.817 -63.3318 203.838C-63.3935 203.86 -63.4588 203.869 -63.524 203.865C-65.4985 203.764 -67.4778 203.817 -69.444 204.025H-69.494ZM125.416 199.245C125.287 199.245 125.163 199.195 125.069 199.106C124.976 199.016 124.921 198.894 124.916 198.765C124.836 196.815 124.706 194.765 124.556 192.765C124.551 192.699 124.558 192.633 124.578 192.57C124.599 192.508 124.631 192.449 124.674 192.399C124.716 192.349 124.769 192.308 124.827 192.278C124.886 192.248 124.95 192.23 125.016 192.225C125.081 192.219 125.147 192.227 125.209 192.247C125.271 192.268 125.329 192.3 125.378 192.343C125.427 192.386 125.468 192.438 125.497 192.497C125.525 192.556 125.542 192.62 125.546 192.685C125.706 194.685 125.826 196.735 125.916 198.685C125.919 198.751 125.908 198.816 125.886 198.878C125.863 198.94 125.828 198.996 125.784 199.044C125.739 199.093 125.686 199.132 125.626 199.159C125.566 199.187 125.502 199.202 125.436 199.205L125.416 199.245ZM124.496 187.245C124.372 187.246 124.252 187.2 124.159 187.117C124.067 187.033 124.008 186.919 123.996 186.795C123.786 184.865 123.536 182.875 123.266 180.855C123.256 180.79 123.259 180.725 123.275 180.661C123.291 180.598 123.319 180.539 123.358 180.487C123.397 180.435 123.447 180.391 123.503 180.358C123.559 180.325 123.621 180.303 123.686 180.295C123.751 180.285 123.817 180.288 123.881 180.304C123.945 180.319 124.005 180.348 124.058 180.387C124.111 180.426 124.156 180.475 124.19 180.531C124.224 180.587 124.246 180.65 124.256 180.715C124.536 182.715 124.776 184.715 124.986 186.715C124.994 186.78 124.99 186.846 124.972 186.91C124.954 186.973 124.924 187.032 124.883 187.083C124.842 187.134 124.791 187.177 124.733 187.208C124.675 187.239 124.611 187.259 124.546 187.265L124.496 187.245ZM122.836 175.365C122.717 175.366 122.602 175.324 122.512 175.247C122.422 175.17 122.363 175.062 122.346 174.945C121.996 172.945 121.616 170.945 121.196 169.075C121.183 169.011 121.183 168.944 121.195 168.88C121.208 168.815 121.233 168.754 121.269 168.699C121.305 168.644 121.352 168.597 121.406 168.56C121.461 168.524 121.522 168.498 121.586 168.485C121.65 168.47 121.716 168.469 121.78 168.48C121.845 168.491 121.906 168.515 121.961 168.55C122.016 168.586 122.063 168.632 122.1 168.686C122.137 168.74 122.163 168.801 122.176 168.865C122.596 170.785 122.986 172.775 123.336 174.775C123.356 174.906 123.325 175.04 123.249 175.148C123.172 175.256 123.056 175.33 122.926 175.355L122.836 175.365ZM120.276 163.635C120.166 163.636 120.059 163.6 119.972 163.533C119.885 163.466 119.823 163.371 119.796 163.265C119.276 161.265 118.706 159.375 118.106 157.535C118.071 157.411 118.085 157.277 118.145 157.163C118.206 157.049 118.309 156.963 118.432 156.922C118.555 156.882 118.688 156.891 118.805 156.948C118.921 157.004 119.011 157.104 119.056 157.225C119.666 159.085 120.236 161.025 120.766 163.005C120.8 163.135 120.781 163.273 120.713 163.389C120.646 163.505 120.536 163.59 120.406 163.625L120.276 163.635ZM116.566 152.225C116.465 152.224 116.366 152.193 116.282 152.136C116.199 152.079 116.134 151.999 116.096 151.905C115.356 150.015 114.556 148.175 113.726 146.425C113.671 146.305 113.666 146.169 113.711 146.046C113.756 145.922 113.847 145.821 113.966 145.765C114.086 145.709 114.223 145.702 114.347 145.745C114.472 145.788 114.576 145.877 114.636 145.995C115.476 147.765 116.276 149.635 117.026 151.545C117.05 151.606 117.062 151.671 117.062 151.737C117.061 151.803 117.047 151.868 117.021 151.928C116.995 151.988 116.957 152.043 116.91 152.089C116.863 152.135 116.807 152.171 116.746 152.195C116.696 152.241 116.639 152.279 116.576 152.305L116.566 152.225ZM111.416 141.475C111.329 141.474 111.243 141.451 111.168 141.407C111.092 141.363 111.03 141.3 110.986 141.225C109.986 139.475 108.896 137.785 107.786 136.225C107.748 136.172 107.721 136.112 107.706 136.048C107.692 135.985 107.69 135.919 107.701 135.855C107.712 135.79 107.736 135.729 107.771 135.674C107.806 135.619 107.852 135.572 107.906 135.535C107.958 135.495 108.018 135.467 108.082 135.452C108.146 135.436 108.212 135.434 108.277 135.445C108.342 135.457 108.403 135.481 108.458 135.517C108.513 135.553 108.56 135.6 108.596 135.655C109.736 137.255 110.826 138.965 111.856 140.745C111.921 140.86 111.937 140.997 111.902 141.124C111.866 141.252 111.781 141.36 111.666 141.425C111.589 141.465 111.502 141.483 111.416 141.475ZM104.486 131.705C104.414 131.704 104.344 131.689 104.278 131.66C104.213 131.63 104.154 131.588 104.106 131.535C102.801 130.044 101.412 128.628 99.946 127.295C99.8995 127.249 99.8625 127.195 99.8372 127.135C99.812 127.075 99.799 127.01 99.799 126.945C99.799 126.88 99.812 126.815 99.8372 126.755C99.8625 126.695 99.8995 126.641 99.946 126.595C99.9925 126.548 100.048 126.511 100.109 126.485C100.17 126.46 100.235 126.447 100.301 126.447C100.367 126.447 100.432 126.46 100.493 126.485C100.554 126.511 100.61 126.548 100.656 126.595C102.148 127.952 103.56 129.395 104.886 130.915C104.934 130.96 104.972 131.014 104.998 131.074C105.024 131.134 105.038 131.199 105.038 131.265C105.038 131.33 105.024 131.395 104.998 131.456C104.972 131.516 104.934 131.57 104.886 131.615C104.829 131.66 104.762 131.692 104.691 131.707C104.62 131.723 104.547 131.722 104.476 131.705H104.486ZM95.606 123.705C95.5026 123.704 95.4016 123.673 95.316 123.615C93.9402 122.652 92.5112 121.767 91.036 120.965C90.776 120.825 90.516 120.675 90.246 120.545C90.1293 120.481 90.0421 120.375 90.0028 120.248C89.9636 120.121 89.9755 119.983 90.036 119.865C90.0977 119.749 90.2026 119.662 90.328 119.623C90.4533 119.583 90.5892 119.595 90.706 119.655L91.516 120.085C93.0213 120.907 94.4802 121.812 95.886 122.795C95.9729 122.855 96.0382 122.942 96.0727 123.042C96.1071 123.142 96.1089 123.251 96.0778 123.352C96.0467 123.453 95.9842 123.542 95.8994 123.605C95.8146 123.669 95.7119 123.704 95.606 123.705ZM85.016 118.125C84.9569 118.139 84.8952 118.139 84.836 118.125C83.216 117.485 81.436 116.845 79.216 116.125C79.0909 116.079 78.988 115.988 78.9285 115.869C78.8689 115.75 78.8573 115.612 78.896 115.485C78.9414 115.36 79.0336 115.258 79.1531 115.2C79.2726 115.142 79.41 115.133 79.536 115.175C81.766 115.925 83.536 116.575 85.206 117.175C85.2717 117.187 85.3343 117.213 85.3902 117.249C85.446 117.286 85.4941 117.333 85.5318 117.389C85.5694 117.444 85.5957 117.506 85.6093 117.571C85.6229 117.637 85.6235 117.704 85.611 117.77C85.5986 117.836 85.5733 117.898 85.5366 117.954C85.5 118.01 85.4527 118.058 85.3974 118.096C85.3422 118.133 85.28 118.16 85.2146 118.173C85.1492 118.187 85.0817 118.187 85.016 118.175V118.125ZM73.656 114.245H73.506C71.806 113.695 69.806 113.035 67.806 112.295C67.7378 112.278 67.674 112.246 67.6187 112.203C67.5634 112.159 67.518 112.104 67.4854 112.042C67.4528 111.979 67.4337 111.911 67.4294 111.841C67.4251 111.77 67.4358 111.7 67.4606 111.634C67.4854 111.568 67.5238 111.508 67.5733 111.458C67.6229 111.408 67.6824 111.369 67.7481 111.344C67.8137 111.318 67.884 111.307 67.9543 111.311C68.0246 111.314 68.0933 111.333 68.156 111.365C70.156 112.085 72.156 112.745 73.816 113.295C73.9419 113.336 74.0464 113.426 74.1064 113.544C74.1664 113.662 74.177 113.799 74.136 113.925C74.0977 114.02 74.0313 114.102 73.9456 114.159C73.86 114.216 73.759 114.246 73.656 114.245ZM62.416 109.975C62.3434 109.973 62.272 109.956 62.206 109.925C60.3777 109.057 58.6073 108.071 56.906 106.975C56.7957 106.9 56.7193 106.784 56.6931 106.653C56.667 106.523 56.6931 106.387 56.766 106.275C56.8393 106.165 56.953 106.089 57.0822 106.063C57.2114 106.037 57.3458 106.063 57.456 106.135C59.1171 107.211 60.8475 108.177 62.636 109.025C62.6961 109.053 62.75 109.092 62.7946 109.141C62.8393 109.19 62.8737 109.247 62.8961 109.31C62.9184 109.372 62.9281 109.438 62.9247 109.504C62.9212 109.57 62.9047 109.635 62.876 109.695C62.8314 109.778 62.7652 109.848 62.6842 109.898C62.6033 109.947 62.5107 109.974 62.416 109.975ZM52.416 103.395C52.2892 103.392 52.168 103.342 52.076 103.255C50.5775 101.881 49.236 100.345 48.076 98.6749C48.0345 98.6213 48.0042 98.5598 47.9872 98.4941C47.9702 98.4284 47.9667 98.36 47.977 98.2929C47.9872 98.2258 48.011 98.1616 48.047 98.104C48.0829 98.0464 48.1301 97.9967 48.1858 97.958C48.2415 97.9193 48.3046 97.8923 48.371 97.8787C48.4375 97.8651 48.506 97.8652 48.5725 97.8789C48.6389 97.8927 48.7019 97.9198 48.7575 97.9587C48.8131 97.9975 48.8603 98.0472 48.896 98.1049C50.0239 99.7156 51.325 101.198 52.776 102.525C52.8683 102.62 52.9199 102.747 52.9199 102.88C52.9199 103.012 52.8683 103.14 52.776 103.235C52.6805 103.332 52.5519 103.389 52.416 103.395ZM45.776 93.5549C45.6708 93.5534 45.5688 93.5188 45.4844 93.456C45.4 93.3931 45.3376 93.3053 45.306 93.2049C45.1261 92.6849 44.976 92.1449 44.846 91.6149C44.4902 90.1607 44.2957 88.6717 44.266 87.1749C44.2634 87.1097 44.2737 87.0447 44.2965 86.9836C44.3193 86.9224 44.3541 86.8665 44.3988 86.819C44.4435 86.7715 44.4972 86.7334 44.5569 86.7069C44.6165 86.6805 44.6808 86.6662 44.746 86.6649C44.8773 86.6645 45.0038 86.7138 45.1003 86.8028C45.1967 86.8918 45.2559 87.014 45.266 87.1449C45.2956 88.5707 45.48 89.989 45.816 91.3749C45.936 91.8849 46.086 92.3749 46.256 92.8949C46.2944 93.0209 46.2825 93.1569 46.2228 93.2743C46.1632 93.3917 46.0604 93.4815 45.936 93.5249C45.8976 93.5404 45.8572 93.5505 45.816 93.5549H45.776ZM45.376 81.7049H45.266C45.2016 81.6907 45.1405 81.6639 45.0864 81.626C45.0323 81.5881 44.9863 81.5399 44.951 81.4841C44.9157 81.4283 44.8917 81.3661 44.8806 81.301C44.8694 81.2359 44.8713 81.1693 44.886 81.1049C45.3335 79.1269 45.9559 77.1926 46.746 75.3249C46.7712 75.2635 46.8083 75.2077 46.8552 75.1607C46.9022 75.1138 46.958 75.0767 47.0194 75.0516C47.0809 75.0265 47.1467 75.0138 47.2131 75.0144C47.2794 75.015 47.345 75.0287 47.406 75.0549C47.5259 75.1078 47.6208 75.2048 47.6711 75.3259C47.7214 75.4469 47.7232 75.5826 47.676 75.7049C46.9086 77.5214 46.3029 79.402 45.866 81.3249C45.8395 81.427 45.782 81.5184 45.7014 81.5864C45.6208 81.6545 45.5211 81.6959 45.416 81.7049H45.376ZM113.266 79.9149C113.134 79.9124 113.009 79.8589 112.915 79.7656C112.822 79.6724 112.769 79.5467 112.766 79.4149C112.766 79.2823 112.819 79.1551 112.912 79.0613C113.006 78.9676 113.133 78.9149 113.266 78.9149C115.208 78.9099 117.131 78.5401 118.936 77.8249C118.996 77.7989 119.061 77.7853 119.127 77.7848C119.193 77.7843 119.258 77.7971 119.318 77.8223C119.379 77.8475 119.434 77.8846 119.48 77.9314C119.526 77.9782 119.562 78.0338 119.586 78.0949C119.612 78.1552 119.626 78.2201 119.626 78.2857C119.627 78.3514 119.614 78.4165 119.589 78.4771C119.563 78.5377 119.526 78.5927 119.48 78.6387C119.433 78.6847 119.377 78.7208 119.316 78.7449C117.391 79.5116 115.338 79.9085 113.266 79.9149ZM107.426 78.7449C107.36 78.759 107.292 78.759 107.226 78.7449C105.287 77.9406 103.601 76.6278 102.346 74.9449C102.266 74.8388 102.232 74.7055 102.251 74.5742C102.27 74.4429 102.34 74.3245 102.446 74.2449C102.552 74.1653 102.685 74.1312 102.817 74.1499C102.948 74.1687 103.066 74.2388 103.146 74.3449C104.299 75.8869 105.847 77.0891 107.626 77.8249C107.747 77.8797 107.841 77.9791 107.89 78.1023C107.938 78.2255 107.937 78.3627 107.886 78.4849C107.845 78.5609 107.784 78.6248 107.71 78.6704C107.637 78.716 107.553 78.7416 107.466 78.7449H107.426ZM124.016 75.4049C123.92 75.4038 123.827 75.3754 123.747 75.3228C123.667 75.2703 123.604 75.1959 123.565 75.1085C123.526 75.0211 123.513 74.9244 123.527 74.8298C123.542 74.7353 123.583 74.6468 123.646 74.5749L123.736 74.4649C124.982 73.0388 125.939 71.385 126.556 69.5949C126.601 69.4701 126.694 69.3679 126.813 69.31C126.933 69.2521 127.07 69.2431 127.196 69.2849C127.259 69.3061 127.316 69.3397 127.365 69.3837C127.415 69.4277 127.454 69.4812 127.482 69.541C127.51 69.6008 127.526 69.6656 127.528 69.7316C127.531 69.7975 127.52 69.8633 127.496 69.9249C126.839 71.8348 125.821 73.6003 124.496 75.1249L124.396 75.2349C124.308 75.3324 124.187 75.3932 124.056 75.4049H124.016ZM49.896 70.6449C49.8081 70.6431 49.7221 70.619 49.646 70.5749C49.5308 70.5098 49.4461 70.4016 49.4105 70.2742C49.3749 70.1467 49.3913 70.0103 49.456 69.8949C49.826 69.2549 50.216 68.6249 50.606 68.0049C51.286 66.9249 52.006 65.8549 52.756 64.8149C52.8343 64.7075 52.952 64.6356 53.0832 64.6149C53.2145 64.5943 53.3486 64.6267 53.456 64.7049C53.5634 64.7831 53.6354 64.9009 53.656 65.0321C53.6766 65.1634 53.6443 65.2975 53.566 65.4049C52.826 66.4049 52.116 67.4749 51.446 68.5349C51.066 69.1449 50.686 69.7649 50.326 70.3949C50.286 70.4649 50.2296 70.5243 50.1617 70.5678C50.0938 70.6113 50.0164 70.6378 49.936 70.6449H49.896ZM100.626 69.5649C100.504 69.5637 100.386 69.5186 100.294 69.4378C100.203 69.3571 100.143 69.246 100.126 69.1249C100.057 68.5642 100.024 67.9998 100.026 67.4349C100.031 65.933 100.243 64.439 100.656 62.9949C100.674 62.9293 100.704 62.8677 100.746 62.8139C100.787 62.76 100.839 62.7148 100.898 62.6809C100.957 62.647 101.022 62.6251 101.089 62.6163C101.157 62.6076 101.225 62.6122 101.291 62.6299C101.357 62.6476 101.418 62.6781 101.472 62.7196C101.526 62.7611 101.571 62.8128 101.605 62.8718C101.639 62.9308 101.661 62.9959 101.67 63.0633C101.678 63.1307 101.674 63.1992 101.656 63.2649C101.263 64.6203 101.061 66.0238 101.056 67.4349C101.056 67.9595 101.086 68.4838 101.146 69.0049C101.163 69.1362 101.127 69.2688 101.047 69.3738C100.966 69.4788 100.847 69.5475 100.716 69.5649H100.626ZM128.026 64.3649C127.961 64.3649 127.896 64.3519 127.836 64.3267C127.776 64.3014 127.722 64.2644 127.676 64.2179C127.63 64.1713 127.594 64.1161 127.57 64.0555C127.546 63.9949 127.535 63.9301 127.536 63.8649V63.7149C127.532 61.8102 127.263 59.9154 126.736 58.0849C126.699 57.9523 126.716 57.8104 126.783 57.6903C126.851 57.5703 126.963 57.4821 127.096 57.4449C127.229 57.4078 127.371 57.4248 127.491 57.4923C127.611 57.5599 127.699 57.6723 127.736 57.8049C128.291 59.726 128.573 61.7154 128.576 63.7149V63.8749C128.575 63.9406 128.561 64.0053 128.534 64.0655C128.508 64.1257 128.47 64.1801 128.423 64.2256C128.375 64.2711 128.319 64.3068 128.258 64.3307C128.197 64.3546 128.132 64.3662 128.066 64.3649H128.026ZM56.886 60.9149C56.7635 60.9153 56.6454 60.8688 56.556 60.7849C56.5061 60.7427 56.4651 60.6909 56.4354 60.6326C56.4058 60.5743 56.3881 60.5107 56.3834 60.4454C56.3788 60.3802 56.3872 60.3147 56.4083 60.2528C56.4293 60.1909 56.4626 60.1338 56.506 60.0849C57.826 58.5649 59.236 57.0849 60.686 55.7149C60.7834 55.6346 60.9075 55.5941 61.0334 55.6014C61.1594 55.6088 61.2779 55.6635 61.3652 55.7546C61.4526 55.8457 61.5022 55.9665 61.5042 56.0927C61.5062 56.2188 61.4604 56.3411 61.376 56.4349C59.946 57.7949 58.566 59.2449 57.266 60.7349C57.2244 60.7863 57.1729 60.8288 57.1144 60.8597C57.056 60.8906 56.9919 60.9094 56.926 60.9149H56.886ZM103.686 58.2249C103.585 58.2256 103.487 58.1941 103.406 58.1349C103.351 58.0978 103.304 58.0501 103.268 57.9947C103.232 57.9393 103.207 57.8772 103.195 57.8121C103.183 57.747 103.184 57.6801 103.197 57.6153C103.211 57.5506 103.238 57.4893 103.276 57.4349C103.396 57.2549 103.526 57.0749 103.656 56.9049C104.745 55.4383 105.992 54.0968 107.376 52.9049C107.425 52.8582 107.482 52.8217 107.545 52.7979C107.609 52.774 107.676 52.7631 107.743 52.7659C107.811 52.7688 107.877 52.7853 107.938 52.8143C107.999 52.8434 108.053 52.8845 108.098 52.9352C108.142 52.9859 108.176 53.045 108.197 53.1091C108.218 53.1732 108.226 53.241 108.221 53.3082C108.215 53.3755 108.195 53.4409 108.164 53.5004C108.132 53.56 108.089 53.6126 108.036 53.6549C106.704 54.795 105.504 56.0795 104.456 57.4849L104.096 57.9949C104.058 58.0624 104.005 58.1201 103.94 58.1635C103.876 58.2069 103.803 58.2348 103.726 58.2449L103.686 58.2249ZM124.776 52.9849C124.691 52.9837 124.609 52.9611 124.535 52.9191C124.462 52.8771 124.4 52.8172 124.356 52.7449C123.96 52.1234 123.533 51.5226 123.076 50.9449C122.308 49.9994 121.468 49.1135 120.566 48.2949C120.513 48.2522 120.469 48.1992 120.437 48.1389C120.405 48.0787 120.386 48.0126 120.381 47.9446C120.375 47.8767 120.384 47.8084 120.406 47.7438C120.428 47.6793 120.463 47.62 120.508 47.5695C120.554 47.5189 120.61 47.4783 120.672 47.45C120.734 47.4218 120.801 47.4065 120.869 47.4052C120.937 47.4038 121.005 47.4164 121.068 47.4421C121.131 47.4679 121.188 47.5063 121.236 47.5549C122.18 48.4061 123.052 49.3324 123.846 50.3249C124.335 50.9259 124.786 51.5572 125.196 52.2149C125.267 52.3264 125.292 52.4616 125.264 52.5909C125.236 52.7203 125.157 52.8332 125.046 52.9049C124.976 52.9481 124.898 52.9754 124.816 52.9849H124.776ZM65.556 52.6349C65.4807 52.6361 65.4061 52.6195 65.3383 52.5865C65.2706 52.5535 65.2116 52.505 65.166 52.4449C65.0843 52.3413 65.0468 52.2096 65.0618 52.0784C65.0768 51.9473 65.143 51.8274 65.246 51.7449C66.836 50.4949 68.496 49.3149 70.176 48.2349C70.2872 48.1715 70.4185 48.1531 70.5429 48.1836C70.6672 48.2141 70.7751 48.2911 70.8444 48.3988C70.9136 48.5065 70.9389 48.6367 70.915 48.7625C70.8911 48.8882 70.8199 49.0001 70.716 49.0749C69.041 50.1442 67.4222 51.2991 65.866 52.5349C65.7878 52.594 65.6939 52.6288 65.596 52.6349H65.556ZM112.556 50.2649C112.448 50.2646 112.343 50.2295 112.257 50.1648C112.171 50.1 112.108 50.0092 112.078 49.9057C112.047 49.8022 112.051 49.6917 112.089 49.5907C112.126 49.4896 112.195 49.4034 112.286 49.3449C113.726 48.4449 115.286 47.5649 117.286 46.5649L117.586 46.4149C117.645 46.3795 117.711 46.3566 117.779 46.3476C117.847 46.3386 117.916 46.3438 117.982 46.3629C118.048 46.3819 118.11 46.4143 118.163 46.4582C118.216 46.502 118.259 46.5564 118.29 46.6177C118.321 46.6791 118.339 46.7462 118.343 46.8148C118.347 46.8835 118.337 46.9522 118.313 47.0167C118.289 47.0812 118.252 47.14 118.204 47.1896C118.157 47.2392 118.1 47.2785 118.036 47.3049L117.736 47.4549C115.806 48.4549 114.246 49.3149 112.826 50.1949C112.755 50.2304 112.676 50.2476 112.596 50.2449L112.556 50.2649ZM75.646 46.1749C75.5535 46.1756 75.4628 46.1496 75.3847 46.0999C75.3066 46.0502 75.2446 45.979 75.206 45.8949C75.1753 45.8367 75.1566 45.7729 75.151 45.7073C75.1455 45.6418 75.1532 45.5757 75.1738 45.5132C75.1943 45.4507 75.2272 45.3929 75.2706 45.3434C75.3139 45.2939 75.3668 45.2536 75.426 45.2249C77.2279 44.3164 79.0772 43.5052 80.966 42.7949C81.0852 42.7648 81.2112 42.7797 81.3201 42.8366C81.429 42.8935 81.5132 42.9885 81.5565 43.1036C81.5998 43.2186 81.5992 43.3455 81.5548 43.4601C81.5105 43.5747 81.4255 43.669 81.316 43.7249C79.4594 44.423 77.6432 45.2242 75.876 46.1249C75.8156 46.1513 75.7516 46.1681 75.686 46.1749H75.646ZM116.026 44.9449C115.942 44.9441 115.86 44.9236 115.786 44.8849C114.065 43.9239 112.257 43.1271 110.386 42.5049C110.276 42.4521 110.189 42.3605 110.141 42.2477C110.094 42.1349 110.089 42.0087 110.129 41.8928C110.168 41.777 110.249 41.6796 110.355 41.6192C110.461 41.5588 110.586 41.5395 110.706 41.5649C112.635 42.2028 114.499 43.0197 116.276 44.0049C116.391 44.07 116.476 44.1782 116.512 44.3056C116.547 44.4331 116.531 44.5695 116.466 44.6849C116.427 44.7587 116.37 44.8214 116.3 44.8669C116.23 44.9124 116.149 44.9393 116.066 44.9449H116.026ZM123.216 44.7749C123.12 44.7737 123.026 44.746 122.945 44.6948C122.864 44.6436 122.799 44.571 122.756 44.4849C122.702 44.3642 122.698 44.227 122.745 44.1033C122.792 43.9796 122.886 43.8795 123.006 43.8249C124.836 43.0049 126.706 42.2149 128.566 41.4949C128.627 41.4691 128.692 41.456 128.759 41.4562C128.825 41.4564 128.89 41.47 128.951 41.4962C129.012 41.5223 129.066 41.5605 129.112 41.6084C129.157 41.6563 129.193 41.713 129.216 41.7749C129.24 41.8366 129.252 41.9024 129.25 41.9686C129.249 42.0348 129.234 42.1001 129.207 42.1605C129.18 42.221 129.141 42.2755 129.093 42.3209C129.045 42.3663 128.988 42.4016 128.926 42.4249C127.086 43.1449 125.226 43.9249 123.416 44.7349C123.366 44.758 123.311 44.7715 123.256 44.7749H123.216ZM86.866 41.9849C86.7535 41.9859 86.6439 41.949 86.555 41.88C86.4661 41.8111 86.403 41.7141 86.376 41.6049C86.3457 41.475 86.3674 41.3385 86.4366 41.2244C86.5058 41.1104 86.6168 41.028 86.746 40.9949C88.7219 40.5117 90.7257 40.1511 92.746 39.9149C92.8117 39.907 92.8783 39.9122 92.9419 39.93C93.0056 39.9478 93.0652 39.9781 93.1172 40.0189C93.1692 40.0598 93.2126 40.1105 93.245 40.1681C93.2774 40.2258 93.2982 40.2892 93.306 40.3549C93.3139 40.4206 93.3088 40.4871 93.2909 40.5508C93.2731 40.6145 93.2429 40.674 93.202 40.7261C93.1611 40.7781 93.1105 40.8215 93.0528 40.8539C92.9952 40.8863 92.9317 40.907 92.866 40.9149C90.8999 41.1509 88.9497 41.5049 87.026 41.9749L86.866 41.9849ZM104.726 41.1149H104.646C103.182 40.881 101.707 40.7274 100.226 40.6549C99.726 40.6549 99.226 40.6549 98.746 40.6549C98.6133 40.6498 98.4876 40.5942 98.3946 40.4993C98.3017 40.4045 98.2485 40.2777 98.246 40.1449C98.2445 40.0784 98.2568 40.0124 98.2822 39.9509C98.3075 39.8894 98.3454 39.8339 98.3934 39.7878C98.4413 39.7418 98.4983 39.7061 98.5607 39.6833C98.6232 39.6604 98.6897 39.6507 98.756 39.6549C99.266 39.6549 99.756 39.6549 100.276 39.6549C101.793 39.7308 103.305 39.8877 104.806 40.1249C104.936 40.1493 105.052 40.2235 105.129 40.3318C105.205 40.4401 105.236 40.5739 105.216 40.7049C105.197 40.8132 105.142 40.9121 105.061 40.9863C104.979 41.0604 104.876 41.1056 104.766 41.1149H104.726ZM134.386 40.4049C134.253 40.4261 134.118 40.3938 134.009 40.315C133.9 40.2363 133.827 40.1175 133.806 39.9849C133.785 39.8523 133.817 39.7167 133.896 39.6079C133.975 39.4991 134.093 39.4261 134.226 39.4049C136.116 38.7649 138.056 38.1649 139.976 37.6149C140.103 37.5805 140.239 37.5966 140.355 37.66C140.47 37.7234 140.557 37.8291 140.596 37.9549C140.614 38.0186 140.62 38.0853 140.612 38.1511C140.604 38.2169 140.583 38.2804 140.551 38.3381C140.518 38.3958 140.474 38.4464 140.422 38.4871C140.37 38.5277 140.31 38.5576 140.246 38.5749C138.346 39.1249 136.426 39.7149 134.546 40.3549L134.386 40.4049ZM145.916 37.1049C145.803 37.105 145.694 37.0662 145.607 36.9952C145.519 36.9242 145.459 36.8252 145.436 36.7149C145.406 36.5863 145.428 36.451 145.497 36.3386C145.567 36.2262 145.678 36.1458 145.806 36.1149C147.746 35.6649 149.726 35.2449 151.696 34.8849C151.762 34.8724 151.829 34.873 151.895 34.8866C151.96 34.9002 152.022 34.9266 152.077 34.9642C152.133 35.0018 152.18 35.0499 152.217 35.1058C152.253 35.1617 152.279 35.2243 152.291 35.2899C152.303 35.3556 152.303 35.423 152.289 35.4885C152.276 35.5539 152.249 35.6161 152.212 35.6713C152.174 35.7266 152.126 35.7738 152.07 35.8105C152.014 35.8471 151.952 35.8724 151.886 35.8849C149.886 36.2449 147.956 36.6549 146.036 37.1149L145.916 37.1049ZM157.716 34.9249C157.65 34.9295 157.584 34.9211 157.522 34.9002C157.46 34.8794 157.402 34.8464 157.352 34.8032C157.303 34.76 157.262 34.7075 157.232 34.6486C157.203 34.5897 157.186 34.5256 157.181 34.4599C157.176 34.3942 157.185 34.3283 157.206 34.2659C157.227 34.2035 157.26 34.1458 157.303 34.0961C157.346 34.0464 157.398 34.0057 157.457 33.9764C157.516 33.947 157.58 33.9295 157.646 33.9249C159.356 33.6949 161.106 33.4949 162.836 33.3349C162.901 33.3266 162.968 33.3318 163.031 33.3503C163.095 33.3688 163.153 33.4001 163.204 33.4423C163.255 33.4845 163.296 33.5367 163.326 33.5957C163.355 33.6546 163.372 33.7191 163.376 33.7849C163.383 33.8501 163.377 33.916 163.358 33.9787C163.339 34.0414 163.307 34.0997 163.265 34.15C163.223 34.2004 163.172 34.2418 163.113 34.2718C163.055 34.3019 162.991 34.3199 162.926 34.3249C161.206 34.4849 159.476 34.6849 157.776 34.9149L157.716 34.9249Z" fill="#3A556A"/>
<path d="M190.143 50.6142C190.088 50.5943 190.039 50.5625 189.997 50.5211C189.956 50.4797 189.925 50.4297 189.905 50.3748C189.889 50.301 189.893 50.224 189.918 50.1526C189.943 50.0812 189.987 50.0181 190.046 49.9707L201.099 39.8147C188.881 39.1743 169.427 37.9906 168.764 37.0096C168.1 36.0286 165.459 23.5808 165.16 22.1668C165.141 22.0667 165.161 21.9629 165.217 21.8776C165.273 21.7922 165.36 21.7323 165.459 21.7107C170.076 20.6412 173.992 26.3319 174.751 27.5356C179.345 27.1672 232.895 22.8626 241.97 24.5333C251.59 26.295 260.644 32.4243 260.366 35.7057C260.092 38.8566 254.366 39.7535 248.81 40.6109L247.932 40.7664C242.529 41.6111 222.594 40.1772 220.72 40.0681L199.956 51.3722C199.89 51.4069 199.816 51.4237 199.741 51.4209L190.28 50.6456L190.143 50.6142ZM202.138 39.0807C202.193 39.1007 202.242 39.1325 202.284 39.1739C202.325 39.2153 202.356 39.2652 202.376 39.3202C202.392 39.394 202.388 39.471 202.363 39.5424C202.338 39.6138 202.294 39.6768 202.235 39.7243L191.152 49.9192L199.612 50.6096L220.345 39.2781C220.41 39.2441 220.484 39.2297 220.557 39.2367C220.776 39.247 242.259 40.8003 247.717 39.9416L248.592 39.7935C253.689 39.048 259.353 38.1625 259.562 35.5988C259.772 33.0351 251.29 27.0144 241.79 25.2863C232.615 23.597 175.12 28.2739 174.536 28.3177C174.464 28.3246 174.392 28.3109 174.327 28.2782C174.263 28.2456 174.209 28.1952 174.172 28.1331C174.136 28.0711 170.314 21.7789 165.965 22.3893C167.058 27.5741 168.852 35.5737 169.341 36.5105C170.813 37.2047 189.619 38.4264 202.025 39.0743L202.138 39.0807Z" fill="#3A556A"/>
<path d="M174.445 34.515C174.387 34.4962 174.335 34.4637 174.293 34.4203C174.25 34.3768 174.219 34.3238 174.202 34.2656C174.175 34.1841 174.176 34.096 174.204 34.0149C174.232 33.9339 174.287 33.8644 174.358 33.8174L179.952 30.3202C180.007 30.2826 180.071 30.262 180.138 30.2611L188.523 29.7964C188.578 29.7911 188.633 29.7978 188.685 29.8159C188.737 29.834 188.784 29.8632 188.824 29.9014C188.862 29.9416 188.891 29.9891 188.91 30.041C188.929 30.0928 188.936 30.148 188.933 30.2031L188.658 33.5927C188.649 33.6878 188.606 33.7765 188.538 33.8431C188.469 33.9098 188.38 33.95 188.284 33.9568L174.588 34.5071C174.541 34.5211 174.492 34.5238 174.445 34.515ZM180.287 31.0383L176.031 33.6752L187.916 33.1939L188.131 30.5909L180.287 31.0383Z" fill="#3A556A"/>
<path d="M201.882 39.8155C201.82 39.7944 201.765 39.7581 201.721 39.71C201.686 39.6721 201.66 39.6277 201.642 39.5795C201.625 39.5313 201.618 39.4801 201.62 39.4289C201.623 39.3777 201.635 39.3275 201.657 39.2812C201.679 39.2349 201.71 39.1934 201.748 39.1591L210.115 31.7007C210.151 31.6664 210.195 31.6398 210.242 31.6222C210.289 31.6047 210.339 31.5967 210.389 31.5986L231.96 32.3336C232.042 32.3384 232.121 32.369 232.184 32.4211C232.248 32.4732 232.293 32.5441 232.314 32.6237C232.335 32.7032 232.33 32.7873 232.3 32.8638C232.27 32.9404 232.217 33.0055 232.147 33.0498L220.8 39.9806C220.713 40.0337 220.608 40.0501 220.508 40.0262C220.408 40.0023 220.322 39.94 220.268 39.8528C220.241 39.809 220.222 39.7601 220.214 39.7091C220.206 39.6581 220.208 39.6059 220.22 39.5557C220.232 39.5055 220.254 39.4582 220.285 39.4165C220.316 39.3749 220.354 39.3398 220.398 39.3132L230.634 33.0662L210.519 32.3853L202.294 39.7448C202.239 39.7954 202.172 39.829 202.098 39.8416C202.025 39.8542 201.95 39.8451 201.882 39.8155Z" fill="#3A556A"/>
<path d="M193.188 50.8595C193.127 50.8375 193.072 50.8013 193.028 50.754C192.96 50.6765 192.925 50.5758 192.93 50.473C192.935 50.3703 192.98 50.2735 193.055 50.2031L210.761 34.2905C210.797 34.2551 210.84 34.2277 210.887 34.2101C210.935 34.1925 210.985 34.1851 211.036 34.1884L228.186 34.6274C228.289 34.6295 228.387 34.6724 228.459 34.7468C228.53 34.8211 228.569 34.9207 228.567 35.0238C228.565 35.1269 228.522 35.2249 228.448 35.2963C228.373 35.3677 228.274 35.4067 228.171 35.4048L211.168 34.9678L193.571 50.7785C193.52 50.8253 193.458 50.8575 193.391 50.8718C193.324 50.886 193.254 50.8818 193.188 50.8595Z" fill="#3A556A"/>
<path d="M188.558 44.6406C188.499 44.6221 188.446 44.5887 188.404 44.5437C188.362 44.4988 188.332 44.4437 188.318 44.3839C188.302 44.3141 188.306 44.2413 188.329 44.1737C188.353 44.1062 188.395 44.0466 188.451 44.0018L194.02 38.7325C194.095 38.6614 194.195 38.623 194.298 38.6258C194.401 38.6286 194.499 38.6723 194.571 38.7473C194.642 38.8223 194.68 38.9226 194.677 39.0259C194.674 39.1292 194.631 39.2272 194.556 39.2983L189.553 44.0315L195.612 45.0388C195.716 45.0562 195.808 45.1139 195.868 45.1991C195.929 45.2844 195.953 45.3903 195.936 45.4935C195.919 45.5967 195.861 45.6888 195.776 45.7495C195.69 45.8101 195.584 45.8345 195.481 45.8171L188.653 44.6739L188.558 44.6406Z" fill="#3A556A"/>
<path d="M240.237 31.4685C240.156 31.4436 240.087 31.3902 240.043 31.3182C240.008 31.2699 239.985 31.214 239.977 31.1551C239.969 31.0963 239.975 31.0363 239.995 30.9804L241.179 27.3225C241.208 27.236 241.265 27.1621 241.342 27.1137C241.419 27.0652 241.511 27.0454 241.601 27.0576C249.656 28.1091 253.438 31.726 253.599 31.8807C253.657 31.9367 253.696 32.0094 253.711 32.0887C253.726 32.1681 253.716 32.2501 253.682 32.3235C253.649 32.3969 253.593 32.458 253.523 32.4982C253.453 32.5385 253.372 32.556 253.292 32.5483L240.328 31.4918L240.237 31.4685ZM241.811 27.8971L240.924 30.7518L252.14 31.669C249.048 29.6054 245.511 28.3051 241.819 27.875L241.811 27.8971Z" fill="#3A556A"/>
<path d="M204.391 48.9786C204.346 48.9639 204.304 48.9405 204.268 48.9096C204.232 48.8787 204.203 48.841 204.181 48.7986C204.159 48.7532 204.146 48.7037 204.143 48.653C204.139 48.6024 204.146 48.5517 204.163 48.5038C204.18 48.4559 204.206 48.4118 204.24 48.3741C204.274 48.3364 204.315 48.3059 204.361 48.2843C204.544 48.1834 204.738 48.218 205.47 48.3411C206.972 48.5928 210.495 49.1942 212.174 47.7109C212.426 47.4855 212.835 47.0678 212.736 46.7367C212.583 46.2301 211.355 45.8272 210.533 45.7053C210.483 45.6986 210.434 45.6819 210.391 45.6563C210.347 45.6307 210.309 45.5967 210.278 45.5562C210.248 45.5157 210.226 45.4696 210.214 45.4205C210.201 45.3714 210.199 45.3203 210.206 45.2703C210.213 45.2196 210.23 45.1708 210.256 45.1266C210.281 45.0825 210.315 45.0438 210.356 45.0128C210.397 44.9818 210.443 44.9591 210.492 44.946C210.542 44.933 210.593 44.9298 210.644 44.9366C210.902 44.977 213.126 45.3319 213.48 46.5179C213.654 47.0813 213.38 47.678 212.688 48.2937C210.733 50.0266 207.084 49.4063 205.341 49.1121C205.061 49.064 204.752 49.0056 204.639 48.9992C204.557 49.0245 204.468 49.0172 204.391 48.9786Z" fill="#3A556A"/>
<path d="M213.672 43.9813C213.581 43.9467 213.504 43.8824 213.455 43.7987C213.432 43.7525 213.419 43.7024 213.416 43.6511C213.413 43.5998 213.42 43.5485 213.437 43.5C213.454 43.4515 213.48 43.4068 213.515 43.3685C213.549 43.3303 213.59 43.2992 213.637 43.277C213.82 43.1761 214.014 43.2108 214.738 43.3313C216.246 43.5929 219.762 44.1917 221.44 42.7084C221.692 42.483 222.104 42.0579 222.009 41.7368C221.859 41.2229 220.632 40.8199 219.806 40.7054C219.755 40.6978 219.705 40.6801 219.661 40.6533C219.616 40.6266 219.577 40.5913 219.546 40.5495C219.515 40.5077 219.493 40.4603 219.48 40.4098C219.468 40.3594 219.465 40.3069 219.473 40.2555C219.48 40.2041 219.498 40.1546 219.525 40.11C219.552 40.0654 219.587 40.0265 219.629 39.9956C219.67 39.9646 219.718 39.9422 219.768 39.9295C219.819 39.9169 219.871 39.9144 219.923 39.922C220.176 39.9525 222.408 40.31 222.761 41.4959C222.928 42.0568 222.661 42.6561 221.959 43.2765C220.006 45.0021 216.366 44.3844 214.615 44.0875C214.335 44.0395 214.023 43.9885 213.918 43.9846C213.837 44.0085 213.751 44.0074 213.672 43.9813Z" fill="#3A556A"/>
</svg>
