<svg width="231" height="267" viewBox="0 0 231 267" fill="none" xmlns="http://www.w3.org/2000/svg">
<path d="M27.31 266.879C25.66 266.879 24 266.879 22.38 266.749C22.2491 266.741 22.1265 266.683 22.0386 266.585C21.9507 266.488 21.9045 266.36 21.91 266.229C21.9095 266.162 21.9233 266.096 21.9506 266.034C21.9778 265.973 22.0179 265.918 22.0681 265.874C22.1184 265.829 22.1775 265.796 22.2417 265.776C22.3058 265.756 22.3734 265.751 22.44 265.759C24.39 265.859 26.44 265.899 28.44 265.879C28.5726 265.879 28.6998 265.932 28.7936 266.026C28.8873 266.119 28.94 266.247 28.94 266.379C28.94 266.512 28.8873 266.639 28.7936 266.733C28.6998 266.827 28.5726 266.879 28.44 266.879H27.31ZM34.4 266.619C34.2674 266.619 34.1402 266.567 34.0464 266.473C33.9527 266.379 33.9 266.252 33.9 266.119C33.9 265.987 33.9527 265.859 34.0464 265.766C34.1402 265.672 34.2674 265.619 34.4 265.619C36.4 265.479 38.4 265.269 40.33 265.009C40.3954 264.998 40.4624 265 40.5268 265.016C40.5912 265.032 40.6517 265.061 40.7043 265.101C40.7569 265.142 40.8006 265.193 40.8325 265.251C40.8645 265.309 40.8841 265.373 40.89 265.439C40.9072 265.569 40.8729 265.7 40.7944 265.805C40.7158 265.91 40.5994 265.979 40.47 265.999C38.47 266.259 36.47 266.469 34.47 266.619H34.4ZM16.4 266.239H16.34C14.34 265.999 12.34 265.679 10.34 265.309C10.2074 265.284 10.0902 265.207 10.0143 265.096C9.93833 264.984 9.9098 264.847 9.935 264.714C9.96019 264.582 10.037 264.464 10.1486 264.388C10.2602 264.313 10.3974 264.284 10.53 264.309C12.45 264.689 14.43 264.999 16.42 265.239C16.4859 265.247 16.5496 265.267 16.6075 265.299C16.6653 265.332 16.7162 265.375 16.7572 265.427C16.7981 265.479 16.8283 265.539 16.8459 265.603C16.8636 265.667 16.8684 265.733 16.86 265.799C16.846 265.909 16.7965 266.012 16.7188 266.091C16.6412 266.171 16.5398 266.223 16.43 266.239H16.4ZM46.26 265.029C46.1442 265.031 46.0315 264.992 45.9418 264.919C45.8521 264.846 45.7913 264.743 45.77 264.629C45.7461 264.5 45.7734 264.366 45.8461 264.256C45.9188 264.146 46.0314 264.068 46.16 264.039L47.73 263.729C49.19 263.419 50.62 263.089 51.99 262.729C52.1183 262.701 52.2526 262.723 52.3658 262.789C52.479 262.856 52.5627 262.963 52.6 263.089C52.6307 263.218 52.6103 263.353 52.5432 263.467C52.476 263.581 52.3673 263.664 52.24 263.699C50.85 264.059 49.41 264.399 47.94 264.699L46.35 265.029H46.26ZM4.64001 263.939H4.5C2.55 263.399 0.610001 262.789 -1.25 262.109C-1.37462 262.064 -1.47622 261.971 -1.53247 261.851C-1.58873 261.731 -1.59502 261.594 -1.54999 261.469C-1.52879 261.407 -1.49518 261.349 -1.45117 261.3C-1.40717 261.251 -1.35369 261.211 -1.29391 261.183C-1.23414 261.155 -1.1693 261.139 -1.10333 261.137C-1.03736 261.134 -0.971615 261.145 -0.910004 261.169C0.929996 261.839 2.84002 262.449 4.77002 262.979C4.90263 262.996 5.02295 263.066 5.10452 263.172C5.1861 263.278 5.22226 263.412 5.20502 263.544C5.18778 263.677 5.11856 263.797 5.0126 263.879C4.90665 263.96 4.77262 263.996 4.64001 263.979V263.939ZM57.87 262.019C57.7374 262.04 57.6018 262.008 57.493 261.929C57.3843 261.851 57.3113 261.732 57.29 261.599C57.2688 261.467 57.3011 261.331 57.3799 261.222C57.4586 261.113 57.5774 261.04 57.71 261.019C59.64 260.369 61.51 259.659 63.28 258.899C63.4009 258.853 63.5348 258.856 63.6536 258.907C63.7725 258.958 63.8671 259.053 63.9175 259.172C63.968 259.291 63.9704 259.425 63.9243 259.545C63.8781 259.666 63.7869 259.764 63.67 259.819C61.88 260.589 59.98 261.309 58.03 261.969C57.9894 261.992 57.9456 262.009 57.9 262.019H57.87ZM-6.62 259.829C-6.68844 259.85 -6.76154 259.85 -6.82999 259.829C-8.66999 258.979 -10.47 258.039 -12.2 257.049C-12.3154 256.983 -12.3997 256.873 -12.4344 256.745C-12.4691 256.617 -12.4513 256.48 -12.385 256.364C-12.3187 256.249 -12.2093 256.165 -12.0808 256.13C-11.9523 256.095 -11.8154 256.113 -11.7 256.179C-9.99998 257.179 -8.22 258.089 -6.41 258.929C-6.35031 258.956 -6.29658 258.995 -6.25204 259.043C-6.20751 259.091 -6.17304 259.147 -6.15067 259.209C-6.12829 259.27 -6.11848 259.335 -6.1218 259.401C-6.12511 259.466 -6.1415 259.53 -6.16998 259.589C-6.21465 259.661 -6.27643 259.72 -6.34973 259.762C-6.42304 259.804 -6.50559 259.827 -6.59 259.829H-6.62ZM68.87 257.259C68.781 257.26 68.6934 257.238 68.616 257.194C68.5387 257.15 68.4745 257.086 68.43 257.009C68.3966 256.952 68.3749 256.889 68.3664 256.824C68.3579 256.759 68.3626 256.692 68.3804 256.629C68.3981 256.565 68.4285 256.506 68.4697 256.455C68.5108 256.403 68.562 256.36 68.62 256.329C70.3438 255.373 72.013 254.321 73.62 253.179C73.6723 253.141 73.7319 253.113 73.795 253.097C73.8582 253.082 73.9238 253.079 73.988 253.09C74.0523 253.1 74.1139 253.123 74.1691 253.157C74.2244 253.191 74.2723 253.236 74.31 253.289C74.386 253.397 74.4169 253.531 74.3964 253.661C74.3759 253.792 74.3055 253.91 74.2 253.989C72.5533 255.157 70.8405 256.229 69.07 257.199C69.0172 257.229 68.9597 257.249 68.9 257.259H68.87ZM-16.99 253.819C-17.0935 253.819 -17.1944 253.787 -17.28 253.729C-18.9208 252.555 -20.4996 251.297 -22.01 249.959C-22.1092 249.871 -22.17 249.747 -22.1793 249.614C-22.1887 249.482 -22.1459 249.351 -22.06 249.249C-21.9648 249.157 -21.8375 249.105 -21.705 249.105C-21.5725 249.105 -21.4451 249.157 -21.35 249.249C-19.8663 250.567 -18.3141 251.805 -16.7 252.959C-16.5936 253.036 -16.5214 253.151 -16.499 253.28C-16.4766 253.409 -16.5056 253.541 -16.58 253.649C-16.6278 253.703 -16.6864 253.745 -16.7519 253.775C-16.8173 253.804 -16.8883 253.819 -16.96 253.819H-16.99ZM78.6 250.299C78.5306 250.3 78.4619 250.286 78.3982 250.258C78.3345 250.231 78.2772 250.19 78.23 250.139C78.1377 250.044 78.0862 249.917 78.0862 249.784C78.0862 249.652 78.1377 249.524 78.23 249.429C79.2007 248.537 80.1252 247.596 81 246.609C81.43 246.109 81.86 245.609 82.27 245.099C82.354 244.998 82.4745 244.933 82.6056 244.92C82.7367 244.907 82.8677 244.946 82.97 245.029C83.0731 245.112 83.1393 245.232 83.1542 245.363C83.1692 245.494 83.1317 245.626 83.05 245.729C82.63 246.249 82.19 246.729 81.74 247.269C80.85 248.269 79.9 249.269 78.91 250.169C78.8327 250.241 78.7347 250.286 78.63 250.299H78.6ZM-25.94 245.859C-26.01 245.858 -26.079 245.842 -26.1427 245.813C-26.2064 245.783 -26.2633 245.741 -26.31 245.689C-27.6626 244.187 -28.9184 242.601 -30.07 240.939C-30.1375 240.83 -30.1607 240.7 -30.1348 240.574C-30.1088 240.449 -30.0357 240.338 -29.9305 240.265C-29.8253 240.192 -29.6961 240.162 -29.5695 240.181C-29.4428 240.201 -29.3285 240.268 -29.25 240.369C-28.1228 241.999 -26.8936 243.555 -25.57 245.029C-25.5234 245.075 -25.4864 245.129 -25.4612 245.189C-25.4359 245.249 -25.4229 245.314 -25.4229 245.379C-25.4229 245.444 -25.4359 245.509 -25.4612 245.569C-25.4864 245.629 -25.5234 245.684 -25.57 245.729C-25.663 245.814 -25.7844 245.86 -25.91 245.859H-25.94ZM86.12 241.009C86.0322 241.007 85.9465 240.982 85.8713 240.936C85.796 240.891 85.7338 240.827 85.6906 240.751C85.6473 240.674 85.6245 240.588 85.6244 240.5C85.6243 240.412 85.6469 240.326 85.69 240.249C86.7065 238.548 87.6214 236.788 88.43 234.979C88.4541 234.915 88.4911 234.857 88.5386 234.808C88.5861 234.759 88.6432 234.72 88.7062 234.694C88.7693 234.668 88.837 234.655 88.9053 234.656C88.9735 234.657 89.0409 234.672 89.1031 234.7C89.1653 234.728 89.2211 234.769 89.2671 234.819C89.3131 234.87 89.3483 234.929 89.3705 234.993C89.3927 235.058 89.4014 235.126 89.3962 235.195C89.3909 235.263 89.3718 235.329 89.34 235.389C88.5187 237.234 87.587 239.027 86.55 240.759C86.5084 240.83 86.4503 240.89 86.3807 240.933C86.311 240.977 86.2319 241.003 86.15 241.009H86.12ZM-32.72 236.009C-32.8137 236.009 -32.9056 235.983 -32.9851 235.934C-33.0647 235.884 -33.1288 235.813 -33.17 235.729C-34.0767 233.919 -34.839 232.04 -35.45 230.109C-35.4878 229.982 -35.4746 229.845 -35.4129 229.727C-35.3513 229.61 -35.2462 229.521 -35.12 229.479C-34.994 229.442 -34.8583 229.455 -34.7423 229.517C-34.6262 229.579 -34.5392 229.684 -34.5 229.809C-33.9039 231.692 -33.1581 233.525 -32.27 235.289C-32.241 235.348 -32.2239 235.413 -32.2198 235.478C-32.2156 235.544 -32.2245 235.61 -32.2459 235.672C-32.2672 235.734 -32.3007 235.792 -32.3443 235.841C-32.3879 235.89 -32.4408 235.93 -32.5 235.959C-32.5604 235.984 -32.6248 235.997 -32.69 235.999L-32.72 236.009ZM91.02 230.089C90.9705 230.099 90.9195 230.099 90.87 230.089C90.8069 230.07 90.7483 230.038 90.6978 229.996C90.6472 229.953 90.6058 229.901 90.5759 229.842C90.546 229.783 90.5282 229.719 90.5238 229.653C90.5194 229.588 90.5283 229.522 90.55 229.459C91.14 227.639 91.67 225.709 92.12 223.719C92.1492 223.587 92.2298 223.471 92.3442 223.398C92.4586 223.325 92.5974 223.3 92.73 223.329C92.8626 223.358 92.9782 223.439 93.0513 223.553C93.1245 223.668 93.1492 223.807 93.12 223.939C92.66 225.939 92.12 227.939 91.52 229.769C91.4819 229.862 91.4166 229.941 91.3328 229.997C91.2489 230.052 91.1504 230.081 91.05 230.079L91.02 230.089ZM-36.27 224.609C-36.3922 224.608 -36.51 224.563 -36.6017 224.482C-36.6935 224.401 -36.7532 224.29 -36.77 224.169C-36.9225 222.902 -36.9993 221.626 -37 220.349C-37 219.599 -37 218.839 -36.92 218.089C-36.9162 218.024 -36.8994 217.959 -36.8707 217.9C-36.842 217.841 -36.8018 217.788 -36.7526 217.744C-36.7033 217.7 -36.646 217.667 -36.5837 217.646C-36.5215 217.624 -36.4557 217.615 -36.39 217.619C-36.2564 217.629 -36.1323 217.692 -36.0443 217.793C-35.9564 217.894 -35.9117 218.025 -35.92 218.159C-35.98 218.889 -36 219.629 -36 220.349C-36.004 221.586 -35.9272 222.822 -35.77 224.049C-35.7558 224.181 -35.7939 224.314 -35.8761 224.419C-35.9583 224.523 -36.0781 224.592 -36.21 224.609H-36.27ZM93.73 218.409H93.65C93.5205 218.387 93.4048 218.315 93.3281 218.208C93.2514 218.102 93.2197 217.969 93.24 217.839C93.53 215.949 93.77 213.959 93.97 211.909C93.9759 211.844 93.9947 211.78 94.0253 211.721C94.0559 211.663 94.0976 211.611 94.1483 211.569C94.1989 211.527 94.2573 211.495 94.3203 211.475C94.3832 211.455 94.4494 211.448 94.515 211.454C94.5807 211.46 94.6445 211.479 94.7029 211.509C94.7613 211.54 94.8132 211.582 94.8554 211.632C94.8977 211.683 94.9295 211.742 94.9492 211.804C94.9688 211.867 94.9759 211.934 94.97 211.999C94.78 214.069 94.53 216.089 94.24 217.999C94.2173 218.11 94.1574 218.211 94.0702 218.283C93.983 218.356 93.8736 218.397 93.76 218.399L93.73 218.409ZM-35.4 212.689H-35.49C-35.6195 212.654 -35.7299 212.569 -35.7973 212.453C-35.8647 212.337 -35.8836 212.199 -35.85 212.069C-35.3247 210.105 -34.6114 208.196 -33.72 206.369C-33.6911 206.31 -33.6508 206.257 -33.6015 206.214C-33.5522 206.17 -33.4948 206.137 -33.4326 206.115C-33.3704 206.094 -33.3046 206.085 -33.239 206.089C-33.1733 206.093 -33.1091 206.11 -33.05 206.139C-32.9909 206.168 -32.9381 206.208 -32.8945 206.258C-32.851 206.307 -32.8176 206.364 -32.7962 206.427C-32.7749 206.489 -32.766 206.555 -32.7701 206.62C-32.7741 206.686 -32.7911 206.75 -32.82 206.809C-33.6838 208.578 -34.3737 210.427 -34.88 212.329C-34.9119 212.44 -34.9811 212.536 -35.0758 212.602C-35.1706 212.667 -35.2851 212.698 -35.4 212.689ZM94.91 206.449C94.8448 206.447 94.7807 206.431 94.7215 206.403C94.6623 206.376 94.6093 206.337 94.5656 206.288C94.5218 206.24 94.4881 206.183 94.4666 206.121C94.445 206.06 94.436 205.994 94.44 205.929C94.53 204.019 94.58 202.059 94.6 199.929C94.6026 199.797 94.6561 199.672 94.7493 199.578C94.8425 199.485 94.9682 199.432 95.1 199.429C95.2318 199.434 95.3564 199.49 95.4478 199.585C95.5391 199.681 95.5901 199.807 95.59 199.939C95.59 202.059 95.52 204.029 95.43 205.939C95.4314 206.008 95.4188 206.076 95.3932 206.14C95.3675 206.204 95.3293 206.261 95.2808 206.31C95.2322 206.358 95.1743 206.397 95.1106 206.422C95.0469 206.448 94.9787 206.461 94.91 206.459V206.449ZM-30.09 202.009C-30.1854 202.013 -30.2799 201.989 -30.3618 201.939C-30.4436 201.89 -30.5093 201.818 -30.5507 201.732C-30.5922 201.646 -30.6075 201.55 -30.595 201.455C-30.5824 201.36 -30.5424 201.271 -30.48 201.199C-29.2128 199.598 -27.7554 198.158 -26.14 196.909C-26.0342 196.831 -25.9023 196.797 -25.7719 196.814C-25.6415 196.83 -25.5226 196.897 -25.44 196.999C-25.3588 197.106 -25.3227 197.24 -25.3395 197.373C-25.3564 197.505 -25.4248 197.626 -25.53 197.709C-27.0839 198.906 -28.4845 200.29 -29.7 201.829C-29.7491 201.89 -29.8117 201.939 -29.8828 201.972C-29.9539 202.005 -30.0316 202.021 -30.11 202.019L-30.09 202.009ZM87.03 194.919C86.8974 194.919 86.7702 194.867 86.6765 194.773C86.5827 194.679 86.53 194.552 86.53 194.419C86.53 194.287 86.5827 194.159 86.6765 194.066C86.7702 193.972 86.8974 193.919 87.03 193.919C88.6368 193.792 90.2097 193.389 91.68 192.729C91.99 192.599 92.28 192.459 92.57 192.309C92.6282 192.278 92.692 192.26 92.7576 192.254C92.8232 192.249 92.8892 192.256 92.9517 192.277C93.0143 192.297 93.072 192.33 93.1215 192.374C93.1711 192.417 93.2113 192.47 93.24 192.529C93.3 192.646 93.3117 192.782 93.2724 192.907C93.2331 193.033 93.146 193.138 93.03 193.199C92.72 193.359 92.41 193.509 92.09 193.649C90.5073 194.353 88.8166 194.782 87.09 194.919H87.03ZM95.03 194.459C94.9025 194.459 94.7796 194.411 94.6866 194.324C94.5937 194.236 94.5377 194.117 94.53 193.989C94.4107 192.025 94.0754 190.08 93.53 188.189C93.4956 188.062 93.5117 187.926 93.5751 187.811C93.6385 187.695 93.7442 187.609 93.87 187.569C93.933 187.549 93.9994 187.543 94.0651 187.549C94.1309 187.556 94.1946 187.575 94.2525 187.607C94.3104 187.639 94.3613 187.682 94.4021 187.734C94.4429 187.786 94.4728 187.845 94.49 187.909C95.0394 189.867 95.3747 191.879 95.49 193.909C95.4954 193.976 95.4875 194.043 95.4667 194.106C95.4459 194.169 95.4126 194.228 95.3688 194.278C95.325 194.329 95.2716 194.37 95.2117 194.399C95.1518 194.428 95.0866 194.445 95.02 194.449L95.03 194.459ZM81.23 193.929C81.1607 193.943 81.0893 193.943 81.02 193.929C80.5184 193.696 80.0368 193.421 79.58 193.109C78.2883 192.203 77.2544 190.976 76.58 189.549C76.5338 189.431 76.5338 189.301 76.5802 189.183C76.6266 189.065 76.7158 188.97 76.8298 188.915C76.9439 188.861 77.0744 188.851 77.1951 188.889C77.3157 188.927 77.4175 189.009 77.48 189.119C78.0692 190.385 78.9793 191.474 80.12 192.279C80.5335 192.562 80.9681 192.813 81.42 193.029C81.5526 193.058 81.6682 193.139 81.7413 193.253C81.8145 193.368 81.8392 193.507 81.81 193.639C81.7808 193.772 81.7001 193.887 81.5858 193.961C81.4714 194.034 81.3326 194.058 81.2 194.029L81.23 193.929ZM97.51 189.689C97.3799 189.688 97.2551 189.638 97.16 189.549C97.1132 189.503 97.0759 189.447 97.0505 189.386C97.0251 189.326 97.0121 189.26 97.0121 189.194C97.0121 189.128 97.0251 189.063 97.0505 189.002C97.0759 188.941 97.1132 188.886 97.16 188.839C98.5012 187.414 99.6417 185.813 100.55 184.079C100.581 184.021 100.624 183.97 100.675 183.929C100.726 183.887 100.785 183.856 100.848 183.838C100.912 183.819 100.978 183.813 101.043 183.82C101.109 183.828 101.172 183.848 101.23 183.879C101.288 183.91 101.338 183.951 101.38 184.002C101.421 184.052 101.452 184.11 101.471 184.172C101.489 184.235 101.495 184.3 101.488 184.365C101.481 184.43 101.461 184.492 101.43 184.549C100.479 186.369 99.2847 188.051 97.88 189.549C97.7799 189.643 97.647 189.693 97.51 189.689ZM76.44 183.959H76.29C76.1638 183.918 76.0587 183.829 75.9971 183.711C75.9354 183.594 75.9222 183.457 75.96 183.329C76.2849 182.296 76.8504 181.355 77.6102 180.583C78.3699 179.811 79.3021 179.23 80.33 178.889C80.3937 178.859 80.4632 178.842 80.5338 178.84C80.6044 178.839 80.6747 178.852 80.7398 178.879C80.8049 178.907 80.8635 178.947 80.9117 178.999C80.9599 179.051 80.9966 179.112 81.0193 179.179C81.0421 179.246 81.0505 179.317 81.0438 179.387C81.0372 179.458 81.0157 179.526 80.9808 179.587C80.9459 179.649 80.8984 179.702 80.8414 179.744C80.7844 179.785 80.7191 179.815 80.65 179.829C79.7692 180.117 78.9705 180.613 78.3214 181.274C77.6722 181.935 77.1916 182.743 76.92 183.629C76.8832 183.727 76.8176 183.81 76.7318 183.869C76.6459 183.928 76.5441 183.96 76.44 183.959ZM91.31 183.239C91.2346 183.24 91.1601 183.224 91.0923 183.191C91.0246 183.158 90.9655 183.109 90.92 183.049C89.68 181.588 88.0552 180.504 86.23 179.919C86.1643 179.899 86.1033 179.866 86.0505 179.822C85.9976 179.778 85.9539 179.724 85.9219 179.663C85.8898 179.602 85.8701 179.536 85.8638 179.467C85.8574 179.399 85.8647 179.33 85.885 179.264C85.9054 179.199 85.9384 179.138 85.9824 179.085C86.0263 179.032 86.0802 178.988 86.1411 178.956C86.2019 178.924 86.2684 178.904 86.3369 178.898C86.4053 178.892 86.4744 178.899 86.54 178.919C88.551 179.56 90.3398 180.756 91.7 182.369C91.7612 182.443 91.8 182.532 91.812 182.627C91.8239 182.722 91.8084 182.818 91.7674 182.904C91.7264 182.99 91.6615 183.063 91.5804 183.114C91.4994 183.164 91.4055 183.19 91.31 183.189V183.239ZM103.25 179.239C103.2 179.249 103.15 179.249 103.1 179.239C102.975 179.2 102.87 179.113 102.808 178.997C102.746 178.881 102.732 178.745 102.77 178.619C103.343 176.726 103.78 174.794 104.08 172.839C104.09 172.774 104.112 172.712 104.146 172.655C104.18 172.599 104.225 172.55 104.278 172.511C104.331 172.472 104.391 172.444 104.455 172.428C104.519 172.412 104.585 172.409 104.65 172.419C104.715 172.429 104.778 172.451 104.834 172.485C104.89 172.519 104.939 172.564 104.978 172.617C105.017 172.67 105.045 172.73 105.061 172.794C105.077 172.858 105.08 172.924 105.07 172.989C104.762 174.991 104.315 176.97 103.73 178.909C103.7 179.013 103.637 179.104 103.55 179.169C103.463 179.234 103.358 179.269 103.25 179.269V179.239ZM105.18 167.429C105.115 167.427 105.051 167.411 104.992 167.383C104.932 167.356 104.879 167.317 104.836 167.268C104.792 167.22 104.758 167.163 104.737 167.101C104.715 167.04 104.706 166.974 104.71 166.909C104.76 165.909 104.78 164.909 104.78 163.839V163.089C104.78 162.379 104.78 161.659 104.78 160.949C104.777 160.884 104.788 160.819 104.81 160.758C104.833 160.697 104.868 160.641 104.913 160.593C104.957 160.546 105.011 160.508 105.071 160.481C105.13 160.455 105.195 160.44 105.26 160.439C105.326 160.434 105.393 160.442 105.456 160.464C105.519 160.485 105.577 160.52 105.626 160.565C105.675 160.61 105.713 160.665 105.74 160.726C105.767 160.787 105.78 160.853 105.78 160.919C105.78 161.639 105.78 162.359 105.78 163.079V163.839C105.78 164.839 105.78 165.929 105.71 166.959C105.709 167.027 105.694 167.094 105.666 167.156C105.639 167.218 105.599 167.274 105.55 167.321C105.501 167.367 105.443 167.403 105.379 167.427C105.315 167.451 105.248 167.462 105.18 167.459V167.429ZM104.92 155.429C104.795 155.429 104.675 155.382 104.584 155.296C104.493 155.211 104.438 155.094 104.43 154.969C104.31 153.139 104.16 151.189 103.96 148.969C103.949 148.837 103.992 148.705 104.078 148.604C104.164 148.503 104.287 148.44 104.42 148.429C104.553 148.419 104.684 148.461 104.785 148.547C104.887 148.634 104.949 148.757 104.96 148.889C105.15 151.089 105.31 153.049 105.42 154.889C105.425 154.954 105.418 155.02 105.398 155.082C105.377 155.144 105.345 155.202 105.302 155.251C105.259 155.301 105.207 155.341 105.148 155.37C105.089 155.399 105.025 155.415 104.96 155.419L104.92 155.429ZM103.92 143.479C103.797 143.476 103.679 143.428 103.587 143.346C103.496 143.264 103.437 143.151 103.42 143.029L102.83 137.029C102.816 136.898 102.854 136.767 102.937 136.664C103.019 136.561 103.139 136.494 103.27 136.479C103.336 136.472 103.402 136.478 103.465 136.497C103.529 136.516 103.588 136.548 103.639 136.589C103.69 136.631 103.732 136.683 103.763 136.741C103.795 136.799 103.814 136.863 103.82 136.929L104.42 142.929C104.427 142.994 104.421 143.06 104.402 143.123C104.383 143.186 104.351 143.244 104.309 143.294C104.267 143.345 104.216 143.386 104.157 143.416C104.099 143.446 104.035 143.464 103.97 143.469L103.92 143.479ZM102.77 131.479C102.643 131.482 102.521 131.436 102.427 131.35C102.334 131.264 102.278 131.146 102.27 131.019C102.08 128.849 101.94 126.889 101.83 125.019C101.824 124.887 101.87 124.758 101.958 124.659C102.046 124.56 102.168 124.499 102.3 124.489C102.366 124.485 102.432 124.494 102.494 124.516C102.556 124.537 102.613 124.57 102.663 124.614C102.712 124.658 102.752 124.711 102.781 124.77C102.809 124.829 102.826 124.894 102.83 124.959C102.94 126.809 103.08 128.759 103.27 130.959C103.275 131.025 103.268 131.091 103.248 131.154C103.227 131.217 103.195 131.275 103.152 131.325C103.11 131.375 103.057 131.416 102.999 131.446C102.94 131.476 102.876 131.494 102.81 131.499L102.77 131.479ZM102.09 119.479C101.959 119.479 101.833 119.428 101.74 119.336C101.646 119.245 101.593 119.12 101.59 118.989C101.59 118.189 101.59 117.389 101.59 116.589C101.59 115.379 101.59 114.179 101.65 112.969C101.651 112.904 101.666 112.84 101.692 112.78C101.718 112.72 101.757 112.667 101.804 112.622C101.852 112.577 101.908 112.542 101.969 112.52C102.03 112.497 102.095 112.486 102.16 112.489C102.292 112.494 102.416 112.55 102.508 112.645C102.599 112.741 102.65 112.867 102.65 112.999C102.65 114.199 102.59 115.389 102.59 116.589C102.59 117.379 102.59 118.179 102.59 118.969C102.593 119.035 102.582 119.101 102.559 119.163C102.535 119.225 102.5 119.281 102.454 119.329C102.408 119.376 102.353 119.414 102.292 119.44C102.231 119.466 102.166 119.479 102.1 119.479H102.09ZM102.51 107.479H102.46C102.329 107.462 102.21 107.395 102.126 107.293C102.043 107.191 102.001 107.061 102.01 106.929C102.22 104.929 102.51 102.929 102.89 100.929C102.917 100.799 102.993 100.684 103.104 100.609C103.214 100.534 103.349 100.506 103.48 100.529C103.545 100.541 103.607 100.566 103.662 100.602C103.717 100.639 103.764 100.686 103.801 100.741C103.837 100.796 103.862 100.858 103.874 100.923C103.886 100.988 103.885 101.055 103.87 101.119C103.5 103.059 103.21 105.039 103.01 107.009C103.023 107.082 103.02 107.157 103.001 107.228C102.982 107.3 102.947 107.366 102.9 107.423C102.852 107.479 102.792 107.524 102.725 107.555C102.657 107.585 102.584 107.6 102.51 107.599V107.479ZM104.78 95.7092H104.64C104.514 95.6698 104.408 95.5833 104.345 95.4677C104.282 95.3521 104.266 95.2165 104.3 95.0892C104.87 93.0892 105.52 91.2092 106.3 89.3692C106.32 89.3034 106.353 89.2424 106.398 89.19C106.443 89.1377 106.498 89.0952 106.56 89.0651C106.621 89.035 106.689 89.0179 106.757 89.0151C106.826 89.0122 106.895 89.0235 106.959 89.0483C107.023 89.0731 107.081 89.1109 107.13 89.1593C107.179 89.2077 107.217 89.2657 107.243 89.3296C107.268 89.3935 107.28 89.462 107.278 89.5307C107.276 89.5995 107.26 89.667 107.23 89.7292C106.51 91.5492 105.87 93.4392 105.31 95.3692C105.305 95.4368 105.286 95.5027 105.255 95.5629C105.224 95.6231 105.181 95.6763 105.129 95.7193C105.076 95.7624 105.016 95.7943 104.951 95.8131C104.886 95.832 104.817 95.8375 104.75 95.8292L104.78 95.7092ZM109.18 84.6892C109.099 84.6897 109.02 84.669 108.95 84.6292C108.891 84.5987 108.839 84.5567 108.797 84.5059C108.754 84.4551 108.722 84.3964 108.703 84.3331C108.683 84.2698 108.677 84.2033 108.683 84.1374C108.689 84.0715 108.709 84.0075 108.74 83.9492C109.675 82.1603 110.714 80.4274 111.85 78.7592C111.928 78.6526 112.044 78.5797 112.174 78.5556C112.304 78.5314 112.439 78.5578 112.55 78.6292C112.659 78.7059 112.733 78.822 112.757 78.9527C112.782 79.0835 112.754 79.2186 112.68 79.3292C111.562 80.9647 110.54 82.6643 109.62 84.4192C109.578 84.4999 109.515 84.5678 109.438 84.6153C109.36 84.6629 109.271 84.6885 109.18 84.6892ZM115.98 74.8392C115.854 74.8401 115.733 74.7937 115.64 74.7092C115.593 74.6636 115.556 74.6091 115.531 74.549C115.506 74.4889 115.493 74.4244 115.493 74.3592C115.493 74.294 115.506 74.2294 115.531 74.1694C115.556 74.1093 115.593 74.0548 115.64 74.0092C117 72.5073 118.474 71.1131 120.05 69.8392C120.153 69.7557 120.286 69.7166 120.418 69.7307C120.55 69.7448 120.671 69.8107 120.755 69.9142C120.839 70.0176 120.878 70.15 120.864 70.2822C120.849 70.4144 120.783 70.5356 120.68 70.6192C119.141 71.8563 117.703 73.2139 116.38 74.6792C116.33 74.7358 116.269 74.7805 116.199 74.8099C116.13 74.8393 116.055 74.8528 115.98 74.8492V74.8392ZM125.31 67.3892C125.22 67.3905 125.131 67.367 125.053 67.3211C124.976 67.2752 124.912 67.2088 124.87 67.1292C124.838 67.0714 124.818 67.008 124.811 66.9425C124.804 66.8771 124.81 66.8108 124.829 66.7476C124.847 66.6844 124.878 66.6255 124.92 66.5743C124.961 66.5231 125.012 66.4806 125.07 66.4492C126.849 65.4724 128.714 64.659 130.64 64.0192C130.764 63.9837 130.898 63.9978 131.012 64.0585C131.126 64.1192 131.212 64.2219 131.253 64.3449C131.293 64.4679 131.284 64.6016 131.227 64.7181C131.171 64.8345 131.071 64.9245 130.95 64.9692C129.083 65.5938 127.276 66.3835 125.55 67.3292C125.477 67.3713 125.394 67.3953 125.31 67.3992V67.3892Z" fill="#3A556A"/>
<path d="M134.878 68.8696L134.941 68.934C135.145 69.0708 135.748 69.474 176.034 63.6563C177.39 92.6872 177.748 92.9107 178.021 93.0908C178.477 93.4004 184.911 94.0786 185.733 93.3601C185.891 93.2064 186.377 92.7313 192.367 60.875L204.7 58.463C211.59 57.1171 220.351 53.6651 223.303 49.2737C223.734 48.6967 224.041 48.0368 224.205 47.3354C224.37 46.634 224.387 45.9063 224.257 45.1978L223.775 45.291L224.257 45.1978C223.557 41.6183 220.41 39.2681 215.16 38.3849C210.655 37.7694 206.079 37.9225 201.626 38.8378L188.386 41.4229C181.061 29.5114 172.178 15.4456 170.942 15.3105C169.706 15.1755 164.822 17.3728 164.443 18.2875C164.348 18.5056 164.115 19.0685 172.577 45.8581C154.531 50.4929 133.171 56.1415 132.589 56.9478C132.229 57.4809 132.416 59.5481 133.144 63.0996C133.653 65.4818 134.326 68.3043 134.878 68.8696ZM176.865 62.7328L176.83 62.697C176.777 62.6522 176.715 62.6191 176.648 62.6C176.581 62.5809 176.511 62.5762 176.443 62.5863C161 64.8196 137.731 68.0552 135.475 68.0353C134.936 67.0388 133.18 58.9278 133.45 57.6158C135.407 56.6421 158.214 50.6148 173.352 46.7231C173.414 46.6997 173.472 46.6634 173.52 46.6165C173.568 46.5695 173.606 46.513 173.631 46.4506C173.663 46.3919 173.683 46.3272 173.69 46.2605C173.697 46.1937 173.69 46.1263 173.671 46.0622C170.448 35.8334 165.649 20.3527 165.393 18.6313C165.966 18.0724 169.622 16.2918 170.746 16.2982C172.148 17.3757 181.85 32.7101 187.69 42.2419C187.741 42.3301 187.819 42.4 187.913 42.4417C188.006 42.4833 188.11 42.4948 188.21 42.4744L201.791 39.8228C208.567 38.5039 221.769 37.9691 223.257 45.4192C223.35 45.9905 223.327 46.5747 223.189 47.1369C223.051 47.699 222.801 48.2276 222.454 48.6908C219.639 52.8363 211.184 56.1576 204.479 57.4774L191.798 59.9489C191.701 59.9691 191.612 60.0166 191.541 60.0859C191.47 60.1552 191.42 60.2434 191.398 60.3401C189.123 72.5113 185.601 90.8481 184.979 92.6156C182.869 92.7257 180.754 92.6126 178.668 92.2783C178.311 90.1667 177.474 73.8779 176.967 63.0523C176.969 62.9375 176.933 62.8254 176.865 62.7328Z" fill="#3A556A"/>
<path d="M140.191 76.9596L140.317 77.0884C140.417 77.1675 140.533 77.2243 140.657 77.2551C140.781 77.2858 140.91 77.2898 141.036 77.2668C142.553 76.9738 148.789 69.3759 150.641 67.0645C150.724 66.9622 150.764 66.8311 150.751 66.6998C150.738 66.5685 150.674 66.4477 150.572 66.3636C150.467 66.2815 150.335 66.2434 150.202 66.2577C150.07 66.272 149.949 66.3374 149.864 66.44C146.067 71.1395 141.68 76.0794 140.828 76.2955C140.33 75.9996 139.448 72.2906 138.988 68.1977C138.984 68.1295 138.967 68.0628 138.936 68.0018C138.906 67.9407 138.863 67.8865 138.811 67.8425C138.759 67.7985 138.698 67.7656 138.633 67.746C138.567 67.7263 138.499 67.7202 138.431 67.7281C138.363 67.736 138.298 67.7577 138.238 67.7918C138.179 67.826 138.128 67.8719 138.087 67.9267C138.046 67.9815 138.017 68.044 138.002 68.1105C137.986 68.177 137.984 68.2459 137.996 68.3131C138.186 69.567 138.927 75.6645 140.191 76.9596Z" fill="#3A556A"/>
<path d="M135.655 56.5814C135.728 56.6957 135.843 56.7765 135.975 56.8059C136.107 56.8354 136.246 56.811 136.36 56.7383C136.475 56.6656 136.555 56.5505 136.585 56.4182C136.614 56.2859 136.59 56.1474 136.517 56.0331C135.239 52.3759 134.145 48.0491 134.576 47.4461C135.406 47.2934 141.414 50.4274 146.695 53.5598C146.751 53.594 146.813 53.6168 146.878 53.6269C146.943 53.6369 147.01 53.634 147.073 53.6184C147.137 53.6027 147.198 53.5746 147.251 53.5356C147.304 53.4967 147.348 53.4476 147.382 53.3913C147.445 53.2749 147.461 53.1389 147.427 53.011C147.393 52.8832 147.312 52.7731 147.2 52.7031C141.856 49.5347 135.154 45.8478 133.978 46.6469C132.801 47.446 134.178 52.3914 135.58 56.3613C135.589 56.4392 135.614 56.5143 135.655 56.5814Z" fill="#3A556A"/>
<path d="M136.641 64.577C137.479 65.4357 141.97 64.2095 150.008 60.9186C150.104 60.8808 150.185 60.8137 150.241 60.7267C150.297 60.6398 150.324 60.5375 150.318 60.4344C150.289 60.2482 150.203 60.0755 150.072 59.9407C149.94 59.8059 149.77 59.7158 149.584 59.6831C147.471 58.9506 136.724 59.3946 135.9 60.2828C135.077 61.171 135.786 63.3575 136.557 64.5194L136.641 64.577ZM148.557 60.4062C143.661 62.3912 138.251 64.165 137.357 63.8784C136.628 62.7312 136.263 61.3266 136.642 60.9281C137.532 60.4508 145.797 59.9983 148.557 60.4062Z" fill="#3A556A"/>
<path d="M186.269 88.183C186.339 88.2555 186.43 88.3037 186.529 88.3205C186.529 88.3205 191.179 89.2036 192.643 85.0065C192.835 84.5331 192.918 84.0224 192.885 83.5126C192.852 83.0028 192.704 82.5071 192.452 82.0625C191.323 80.1467 188.387 79.6306 188.267 79.6079C188.202 79.5968 188.136 79.5986 188.072 79.6132C188.007 79.6278 187.947 79.655 187.893 79.6931C187.839 79.7312 187.794 79.7795 187.759 79.8353C187.724 79.8911 187.7 79.9533 187.689 80.0182C187.67 80.1489 187.701 80.2822 187.778 80.39C187.854 80.4978 187.97 80.5716 188.1 80.596C188.1 80.596 190.696 81.0655 191.584 82.5753C191.762 82.8947 191.866 83.2507 191.886 83.6162C191.906 83.9817 191.842 84.347 191.7 84.684C190.528 88.0502 186.88 87.3771 186.725 87.347C186.621 87.3271 186.513 87.3409 186.417 87.3862C186.322 87.4314 186.243 87.5059 186.192 87.5989C186.141 87.6919 186.122 87.7985 186.135 87.9035C186.149 88.0085 186.196 88.1063 186.269 88.183Z" fill="#3A556A"/>
<path d="M188.866 75.0398C188.917 75.0884 188.976 75.1264 189.042 75.1515C189.107 75.1766 189.177 75.1882 189.246 75.1857C191.092 75.1866 194.759 74.3184 195.434 71.0594C195.554 70.5726 195.569 70.0661 195.48 69.5728C195.391 69.0795 195.199 68.6105 194.917 68.1963C193.901 66.9751 192.485 66.1537 190.921 65.8784C190.857 65.8658 190.791 65.866 190.727 65.8792C190.663 65.8924 190.603 65.9182 190.549 65.955C190.495 65.9919 190.449 66.0392 190.414 66.0941C190.379 66.1489 190.355 66.2103 190.343 66.2745C190.331 66.3394 190.332 66.4061 190.346 66.4707C190.359 66.5353 190.386 66.5966 190.423 66.6509C190.461 66.7053 190.508 66.7517 190.564 66.7874C190.619 66.8232 190.682 66.8476 190.747 66.8592C192.045 67.0992 193.225 67.7684 194.097 68.7593C194.3 69.0645 194.436 69.4089 194.498 69.7702C194.559 70.1314 194.544 70.5016 194.454 70.8567C193.778 74.1298 189.308 74.1752 189.244 74.1957C189.179 74.1928 189.113 74.2034 189.052 74.2268C188.991 74.2502 188.935 74.286 188.888 74.3318C188.841 74.3776 188.804 74.4326 188.779 74.4933C188.754 74.554 188.742 74.6191 188.743 74.6847C188.738 74.7492 188.746 74.8142 188.767 74.8754C188.788 74.9365 188.822 74.9926 188.866 75.0398Z" fill="#3A556A"/>
<path d="M185.519 38.7014C185.567 38.7466 185.623 38.7819 185.684 38.8054C185.746 38.8289 185.811 38.84 185.877 38.8381C185.942 38.8363 186.007 38.8215 186.067 38.7947C186.127 38.7678 186.181 38.7294 186.226 38.6816C187.285 37.6477 188.761 34.9216 187.1 32.4196C186.494 31.5322 185.623 30.8584 184.612 30.4934C183.601 30.1284 182.501 30.0909 181.468 30.3861C181.404 30.4048 181.346 30.436 181.295 30.4778C181.244 30.5197 181.202 30.5713 181.172 30.6297C181.141 30.6881 181.123 30.752 181.118 30.8176C181.113 30.8832 181.121 30.9492 181.142 31.0116C181.181 31.1372 181.267 31.2425 181.383 31.3047C181.498 31.367 181.634 31.3812 181.76 31.3443C182.586 31.0924 183.471 31.1144 184.283 31.4071C185.095 31.6998 185.791 32.2475 186.266 32.9682C187.899 35.4416 185.542 37.9521 185.499 37.994C185.454 38.0417 185.419 38.0979 185.395 38.1593C185.372 38.2207 185.36 38.2861 185.362 38.3518C185.364 38.4175 185.379 38.4822 185.406 38.5421C185.433 38.6021 185.471 38.6562 185.519 38.7014Z" fill="#3A556A"/>
<path d="M177.982 26.7447C178.075 26.8396 178.202 26.8938 178.334 26.8954C178.467 26.897 178.595 26.8459 178.689 26.7532C179.77 25.6984 181.314 23.1004 179.552 20.8942C177.448 18.2524 173.855 18.9095 173.706 18.9289C173.574 18.9536 173.458 19.0295 173.382 19.14C173.307 19.2505 173.278 19.3865 173.303 19.5181C173.328 19.6496 173.403 19.766 173.514 19.8416C173.624 19.9172 173.76 19.9458 173.892 19.9211C173.892 19.9211 177.039 19.3507 178.766 21.5212C180.494 23.6916 178.084 25.9327 177.984 26.0447C177.937 26.0902 177.9 26.1446 177.875 26.2047C177.849 26.2647 177.836 26.3292 177.836 26.3944C177.836 26.4596 177.849 26.5242 177.874 26.5844C177.899 26.6445 177.936 26.699 177.982 26.7447Z" fill="#3A556A"/>
<path d="M207.804 55.0139C207.859 55.0689 207.925 55.1106 207.998 55.136C208.071 55.1614 208.149 55.1697 208.226 55.1604C208.418 55.1415 213.014 54.5814 215.193 51.5172C215.727 50.7397 216.085 49.855 216.241 48.925C216.398 47.9949 216.349 47.0419 216.099 46.1325C215.946 45.1847 215.59 44.2813 215.053 43.4849C214.517 42.6885 213.814 42.0181 212.994 41.52C209.826 39.707 205.659 41.0502 205.489 41.1047C205.385 41.1389 205.295 41.2061 205.233 41.2961C205.171 41.386 205.14 41.4938 205.146 41.6029C205.151 41.712 205.191 41.8164 205.261 41.9002C205.331 41.984 205.427 42.0426 205.534 42.0669C205.534 42.0669 210.138 43.1617 210.911 47.131C211.684 51.1004 207.933 54.2306 207.898 54.2655C207.814 54.3344 207.755 54.4288 207.729 54.5344C207.704 54.64 207.713 54.7511 207.756 54.8507C207.76 54.908 207.776 54.9637 207.804 55.0139ZM213.56 43.2593C214.366 44.1139 214.919 45.1757 215.156 46.3263C215.371 47.098 215.416 47.907 215.288 48.6977C215.16 49.4884 214.862 50.242 214.416 50.9068C213.215 52.3588 211.57 53.3753 209.735 53.7996C210.592 52.8949 211.233 51.8069 211.607 50.618C211.982 49.4291 212.08 48.1705 211.896 46.9378C211.629 45.7729 211.087 44.6893 210.314 43.778C209.541 42.8666 208.56 42.1543 207.454 41.701C209.161 41.385 210.925 41.6216 212.488 42.3766C212.886 42.6179 213.247 42.9152 213.56 43.2593Z" fill="#3A556A"/>
<path d="M180.479 93.4031C180.571 93.4938 180.694 93.5479 180.823 93.5558C180.889 93.5568 180.955 93.5448 181.016 93.5204C181.078 93.496 181.133 93.4597 181.181 93.4136C181.228 93.3675 181.265 93.3125 181.291 93.2518C181.317 93.191 181.331 93.1258 181.331 93.0598L181.751 67.494L185.756 66.7146C185.856 66.6964 185.948 66.6488 186.021 66.5779C186.093 66.5069 186.143 66.4159 186.164 66.3165L187.087 61.2219C187.1 61.1413 187.094 61.0588 187.069 60.9812C187.044 60.9035 187.002 60.8327 186.944 60.7746C186.884 60.7199 186.812 60.6796 186.734 60.6566C186.656 60.6337 186.574 60.6286 186.493 60.6419L176.428 62.6144C176.363 62.6257 176.302 62.6498 176.246 62.6854C176.191 62.721 176.144 62.7673 176.107 62.8216C176.07 62.876 176.044 62.9371 176.031 63.0016C176.019 63.066 176.019 63.1323 176.032 63.1966C176.057 63.3261 176.133 63.4403 176.242 63.5144C176.351 63.5886 176.485 63.6167 176.614 63.5926L185.992 61.7462L185.244 65.7609L181.161 66.5606C181.05 66.5827 180.95 66.6419 180.877 66.7284C180.804 66.8148 180.763 66.9235 180.759 67.0366L180.37 93.0341C180.357 93.1666 180.396 93.299 180.479 93.4031Z" fill="#3A556A"/>
<path d="M172.858 46.5899C172.919 46.6544 172.997 46.7014 173.082 46.726C173.168 46.7507 173.258 46.752 173.344 46.73L183.277 44.0205C183.352 44.0003 183.42 43.9632 183.478 43.912C183.536 43.8608 183.581 43.7969 183.61 43.7253C183.639 43.6537 183.651 43.5764 183.645 43.4994C183.639 43.4224 183.615 43.3479 183.576 43.2816L180.726 38.5731C180.672 38.4859 180.592 38.4174 180.498 38.3771C180.403 38.3367 180.299 38.3264 180.198 38.3475L175.35 39.2936L167.307 17.056C167.262 16.9319 167.169 16.8308 167.049 16.7751C166.929 16.7193 166.792 16.7133 166.667 16.7584C166.605 16.7799 166.548 16.8137 166.499 16.8578C166.45 16.9019 166.41 16.9554 166.383 17.0151C166.355 17.0749 166.339 17.1396 166.337 17.2055C166.335 17.2713 166.346 17.3369 166.37 17.3984L174.527 40.0687C174.565 40.1835 174.644 40.2803 174.749 40.3403C174.855 40.4003 174.978 40.4193 175.096 40.3937L180.065 39.4279L182.409 43.2605L173.115 45.7797C173.051 45.7955 172.991 45.824 172.938 45.8635C172.886 45.9031 172.841 45.9529 172.808 46.0099C172.775 46.067 172.754 46.1301 172.746 46.1955C172.738 46.261 172.743 46.3273 172.761 46.3907C172.779 46.4631 172.812 46.531 172.858 46.5899Z" fill="#3A556A"/>
</svg>
