<svg width="92" height="117" viewBox="0 0 92 117" fill="none" xmlns="http://www.w3.org/2000/svg">
<g opacity="0.75">
<path d="M44.3699 86.4237L34.2119 83.7019C34.1379 83.6846 34.0681 83.6528 34.0066 83.6082C33.9451 83.5636 33.893 83.5072 33.8535 83.4423C20.2311 62.2718 12.8661 31.1355 24.0639 15.6968C30.5692 6.77915 42.6106 4.30397 58.8634 8.65888C75.5976 13.1428 84.8044 20.8709 86.2278 31.6235C87.6736 42.6213 80.5193 54.0082 74.2702 61.5471C65.9223 71.4537 55.9284 79.8464 44.7279 86.356C44.6173 86.4119 44.4932 86.4354 44.3699 86.4237ZM34.7497 82.5874L44.4614 85.1896C73.2508 68.4986 86.9123 45.2745 85.1701 31.9065C83.8174 21.6889 74.9235 14.2963 58.7059 9.95086C42.9816 5.73754 31.3947 8.01983 25.2095 16.4946C16.5285 28.1773 17.8013 56.1205 34.7497 82.5874Z" fill="#3A556A"/>
<path d="M36.7486 84.3817C36.658 84.3589 36.574 84.3156 36.5029 84.2551C36.4318 84.1946 36.3755 84.1185 36.3386 84.0327C29.9355 68.4719 23.4346 45.5722 28.7554 25.1981C31.9637 12.9427 37.8767 7.50381 38.1346 7.24568C38.2552 7.14724 38.4089 7.09879 38.5641 7.11033C38.7194 7.12187 38.8643 7.1925 38.969 7.30769C39.0737 7.42288 39.1301 7.57383 39.1268 7.72945C39.1235 7.88506 39.0606 8.03347 38.9511 8.1441C38.7143 8.37015 15.5792 30.2641 37.47 83.5681C37.5285 83.7169 37.5272 83.8826 37.4665 84.0304C37.4057 84.1783 37.2903 84.2971 37.1441 84.3618C37.0178 84.4106 36.8791 84.4176 36.7486 84.3817Z" fill="#3A556A"/>
<path d="M41.7981 85.7348C41.6864 85.707 41.5844 85.6492 41.5031 85.5677C41.395 85.4484 41.3387 85.2912 41.3464 85.1305C41.354 84.9697 41.4251 84.8186 41.5441 84.7102C80.619 48.6104 78.1643 19.394 78.1428 19.0987C78.1281 18.9395 78.1767 18.7809 78.2782 18.6573C78.3796 18.5337 78.5257 18.455 78.6847 18.4384C78.7638 18.4294 78.844 18.4365 78.9203 18.4591C78.9967 18.4817 79.0678 18.5193 79.1293 18.5699C79.1909 18.6204 79.2417 18.6827 79.2787 18.7532C79.3158 18.8237 79.3383 18.901 79.345 18.9803C79.3783 19.2787 81.9514 48.9926 42.3637 85.5969C42.2891 85.6663 42.1979 85.7155 42.0989 85.7397C41.9999 85.7638 41.8963 85.7622 41.7981 85.7348Z" fill="#3A556A"/>
<path d="M38.874 84.9512C38.76 84.9195 38.6575 84.8559 38.5785 84.7678C38.4995 84.6797 38.4473 84.5709 38.4282 84.4542C34.5341 55.9597 37.5013 36.4779 40.6764 25.145C44.1338 12.8053 48.4759 7.31048 48.6625 7.08359C48.7647 6.9593 48.9112 6.87963 49.0711 6.8614C49.231 6.84318 49.3918 6.88785 49.5193 6.98596C49.6436 7.08819 49.7233 7.23472 49.7416 7.39462C49.7598 7.55452 49.7151 7.71527 49.617 7.84284C49.4335 8.05798 32.5636 29.8685 39.424 82.7575C68.7608 41.2416 69.6513 13.727 69.6618 13.4529C69.6607 13.3732 69.6758 13.2942 69.7064 13.2206C69.737 13.1469 69.7824 13.0804 69.8397 13.025C69.897 12.9696 69.965 12.9265 70.0396 12.8984C70.1142 12.8703 70.1937 12.8578 70.2733 12.8616C70.3533 12.8623 70.4324 12.8787 70.5061 12.9099C70.5797 12.9412 70.6465 12.9867 70.7025 13.0438C70.7585 13.1009 70.8027 13.1685 70.8326 13.2427C70.8624 13.3169 70.8773 13.3963 70.8764 13.4763C70.804 13.7464 69.9688 42.182 39.5266 84.7233C39.4551 84.8214 39.3558 84.8959 39.2416 84.937C39.1273 84.9782 39.0035 84.9843 38.8858 84.9544L38.874 84.9512Z" fill="#3A556A"/>
<path d="M38.8741 84.9512C38.7204 84.9101 38.5889 84.8103 38.508 84.6733C38.427 84.5363 38.4031 84.373 38.4412 84.2185L58.1534 9.14836C58.2029 8.99635 58.3061 8.86758 58.4437 8.78629C58.5814 8.70499 58.744 8.67672 58.901 8.70677C59.055 8.75125 59.1858 8.8536 59.2659 8.99241C59.346 9.13121 59.3693 9.29568 59.3308 9.45127L39.6186 84.5214C39.5769 84.6771 39.475 84.8099 39.3354 84.8905C39.1958 84.9711 39.0299 84.9929 38.8741 84.9512Z" fill="#3A556A"/>
<path d="M43.4538 67.4372C36.0099 65.5337 28.9141 62.4642 22.4296 58.3425C22.3024 58.2483 22.2169 58.1083 22.1914 57.9522C22.1658 57.796 22.2021 57.636 22.2926 57.5062C22.3831 57.3764 22.5206 57.287 22.676 57.257C22.8314 57.227 22.9923 57.2588 23.1246 57.3456C36.0252 65.3584 51.0088 69.3733 66.1874 68.8843C66.2673 68.8787 66.3475 68.8896 66.423 68.9163C66.4985 68.9431 66.5677 68.9851 66.6263 69.0398C66.6848 69.0944 66.7315 69.1605 66.7634 69.234C66.7953 69.3075 66.8117 69.3868 66.8117 69.4669C66.8161 69.6266 66.7575 69.7817 66.6484 69.8985C66.5394 70.0153 66.3888 70.0845 66.2291 70.0911C58.5481 70.3321 50.8736 69.4378 43.4538 67.4372Z" fill="#3A556A"/>
<path d="M31.4494 94.0126C31.2937 93.9709 31.161 93.869 31.0804 93.7294C30.9998 93.5898 30.9779 93.4239 31.0196 93.2681L33.7792 82.9692C33.8209 82.8135 33.9229 82.6807 34.0625 82.6001C34.2021 82.5195 34.368 82.4977 34.5237 82.5394C34.6794 82.5811 34.8122 82.683 34.8928 82.8226C34.9734 82.9622 34.9953 83.1282 34.9535 83.2839L32.1939 93.5828C32.1522 93.7385 32.0504 93.8713 31.9107 93.9519C31.7711 94.0325 31.6052 94.0544 31.4494 94.0126Z" fill="#3A556A"/>
<path d="M41.6072 96.7344C41.4532 96.69 41.3224 96.5876 41.2423 96.4488C41.1622 96.31 41.1389 96.1455 41.1773 95.9899L43.9369 85.691C43.9814 85.5371 44.0838 85.4063 44.2226 85.3261C44.3614 85.246 44.5258 85.2227 44.6814 85.2612C44.8371 85.3029 44.9699 85.4048 45.0505 85.5444C45.1312 85.684 45.153 85.85 45.1112 86.0057L42.3517 96.3046C42.3099 96.4603 42.2081 96.5931 42.0685 96.6737C41.9288 96.7543 41.7629 96.7762 41.6072 96.7344Z" fill="#3A556A"/>
<path d="M42.4875 106.649L25.7415 102.162C25.5857 102.121 25.453 102.019 25.3724 101.879C25.2918 101.739 25.2699 101.573 25.3116 101.418L27.7345 92.3754C27.7762 92.2196 27.8782 92.0869 28.0178 92.0063C28.1574 91.9257 28.3233 91.9038 28.479 91.9455L45.225 96.4326C45.3807 96.4743 45.5135 96.5762 45.5941 96.7159C45.6748 96.8555 45.6966 97.0214 45.6548 97.1771L43.2319 106.219C43.1902 106.375 43.0884 106.508 42.9488 106.589C42.8091 106.669 42.6432 106.691 42.4875 106.649ZM26.655 101.148L42.2149 105.318L44.32 97.4614L28.7484 93.289L26.655 101.148Z" fill="#3A556A"/>
<path d="M40.5005 109.931L25.8096 105.994C25.6539 105.952 25.5211 105.851 25.4405 105.711C25.3599 105.571 25.338 105.405 25.3798 105.25L26.3237 101.727C26.3682 101.573 26.4706 101.442 26.6094 101.362C26.7482 101.282 26.9127 101.258 27.0682 101.297L41.7592 105.233C41.9149 105.275 42.0477 105.377 42.1283 105.517C42.2089 105.656 42.2307 105.822 42.189 105.978L41.245 109.501C41.2033 109.656 41.1014 109.789 40.9618 109.87C40.8222 109.95 40.6562 109.972 40.5005 109.931ZM26.7232 104.98L40.2398 108.602L40.8691 106.253L27.3408 102.629L26.7232 104.98Z" fill="#3A556A"/>
<path d="M48.848 42.5139C38.5633 39.8317 28.7231 35.6687 19.636 30.1554C19.5009 30.0647 19.4069 29.9245 19.3743 29.765C19.3416 29.6056 19.373 29.4397 19.4616 29.3032C19.5064 29.2364 19.564 29.1791 19.631 29.1348C19.6981 29.0904 19.7733 29.0597 19.8523 29.0446C19.9312 29.0294 20.0124 29.0301 20.0911 29.0466C20.1698 29.0631 20.2445 29.095 20.3108 29.1405C20.5878 29.328 48.3573 47.4925 83.2276 44.6523C83.3888 44.6428 83.5473 44.6966 83.6694 44.8022C83.7916 44.9078 83.8677 45.0569 83.8817 45.2177C83.8885 45.2964 83.8796 45.3756 83.8555 45.4507C83.8314 45.5259 83.7926 45.5955 83.7414 45.6556C83.6902 45.7156 83.6275 45.7649 83.5571 45.8005C83.4867 45.8362 83.4099 45.8575 83.3311 45.8632C71.7298 46.7263 60.0664 45.5935 48.848 42.5139Z" fill="#3A556A"/>
</g>
</svg>
