<svg width="482" height="383" viewBox="0 0 482 383" fill="none" xmlns="http://www.w3.org/2000/svg">
<g clip-path="url(#clip0_216_39)">
<path d="M188.51 460C191.707 460 194.939 459.874 198.136 459.623C198.253 459.616 198.368 459.586 198.474 459.534C198.579 459.482 198.673 459.41 198.75 459.321C198.827 459.232 198.885 459.129 198.922 459.018C198.958 458.906 198.972 458.788 198.962 458.671C198.956 458.553 198.925 458.438 198.874 458.331C198.822 458.225 198.75 458.13 198.662 458.052C198.573 457.973 198.47 457.913 198.359 457.874C198.247 457.836 198.128 457.82 198.011 457.827C194.85 458.079 191.653 458.204 188.51 458.204H187.307C187.071 458.204 186.846 458.296 186.678 458.461C186.51 458.625 186.413 458.849 186.409 459.084C186.408 459.324 186.503 459.554 186.67 459.726C186.838 459.897 187.067 459.995 187.307 460H188.51ZM176.549 459.407C176.787 459.419 177.02 459.336 177.197 459.176C177.374 459.016 177.48 458.793 177.492 458.554C177.503 458.316 177.42 458.083 177.26 457.906C177.1 457.729 176.877 457.623 176.639 457.612C173.047 457.252 169.455 456.732 166.06 456.067C165.822 456.022 165.576 456.073 165.375 456.21C165.175 456.346 165.037 456.556 164.992 456.795C164.946 457.033 164.998 457.279 165.134 457.479C165.27 457.68 165.481 457.818 165.719 457.863C169.221 458.545 172.903 459.084 176.495 459.443L176.549 459.407ZM208.768 458.366H208.912C212.504 457.791 216.096 457.073 219.544 456.193C219.659 456.168 219.768 456.12 219.864 456.051C219.959 455.982 220.04 455.895 220.101 455.794C220.161 455.693 220.2 455.581 220.216 455.464C220.231 455.347 220.223 455.229 220.191 455.115C220.135 454.885 219.991 454.686 219.789 454.561C219.587 454.437 219.344 454.397 219.113 454.451C215.665 455.313 212.127 456.031 208.625 456.588C208.387 456.607 208.166 456.72 208.011 456.902C207.856 457.084 207.779 457.32 207.799 457.558C207.818 457.796 207.93 458.017 208.112 458.172C208.294 458.327 208.53 458.403 208.768 458.384V458.366ZM155.428 455.259C155.546 455.277 155.666 455.271 155.782 455.242C155.898 455.214 156.007 455.162 156.102 455.091C156.198 455.02 156.279 454.931 156.341 454.829C156.402 454.727 156.443 454.614 156.461 454.496C156.478 454.378 156.473 454.258 156.444 454.142C156.415 454.026 156.364 453.917 156.293 453.822C156.222 453.726 156.133 453.645 156.031 453.583C155.929 453.522 155.815 453.481 155.697 453.463C152.267 452.422 148.891 451.219 145.64 449.872C145.418 449.786 145.171 449.789 144.951 449.879C144.731 449.969 144.553 450.14 144.455 450.357C144.37 450.576 144.373 450.82 144.463 451.037C144.554 451.255 144.724 451.429 144.94 451.524C148.287 452.9 151.704 454.099 155.177 455.115C155.259 455.187 155.358 455.236 155.464 455.259H155.428ZM229.673 453.194C229.768 453.212 229.866 453.212 229.961 453.194L232.763 452.206C235.223 451.326 237.683 450.41 240.09 449.333C240.307 449.234 240.478 449.057 240.568 448.837C240.658 448.616 240.66 448.37 240.575 448.148C240.477 447.931 240.298 447.762 240.077 447.674C239.856 447.587 239.609 447.59 239.39 447.681C237.019 448.687 234.576 449.638 232.206 450.518C231.29 450.859 230.41 451.183 229.44 451.488C229.202 451.526 228.989 451.657 228.847 451.852C228.706 452.048 228.648 452.291 228.686 452.53C228.724 452.768 228.855 452.981 229.05 453.122C229.246 453.264 229.489 453.322 229.727 453.284L229.673 453.194ZM135.619 446.998C135.777 446.998 135.933 446.954 136.069 446.872C136.205 446.789 136.316 446.672 136.391 446.532C136.451 446.43 136.49 446.316 136.505 446.199C136.52 446.082 136.512 445.962 136.48 445.848C136.448 445.734 136.394 445.628 136.32 445.536C136.246 445.443 136.154 445.367 136.05 445.31C132.961 443.622 129.907 441.719 126.944 439.708C126.746 439.574 126.504 439.525 126.27 439.57C126.036 439.616 125.829 439.752 125.696 439.95C125.562 440.148 125.513 440.39 125.559 440.624C125.604 440.858 125.741 441.065 125.938 441.198C128.923 443.25 132.01 445.15 135.188 446.891C135.319 446.964 135.468 447.001 135.619 446.998V446.998ZM249.573 444.79C249.718 444.791 249.86 444.753 249.986 444.682C253.147 443.066 256.326 441.27 259.451 439.295C259.632 439.161 259.757 438.965 259.8 438.744C259.844 438.523 259.803 438.294 259.685 438.102C259.568 437.91 259.382 437.769 259.166 437.707C258.95 437.646 258.718 437.667 258.517 437.768C255.446 439.564 252.303 441.36 249.16 442.994C248.95 443.108 248.793 443.3 248.723 443.528C248.652 443.756 248.674 444.002 248.783 444.215C248.845 444.377 248.952 444.517 249.093 444.619C249.233 444.721 249.4 444.78 249.573 444.79ZM117.928 434.823C118.111 434.821 118.289 434.764 118.438 434.658C118.587 434.552 118.701 434.404 118.763 434.232C118.826 434.06 118.834 433.873 118.788 433.697C118.741 433.52 118.642 433.361 118.503 433.243C115.809 430.962 113.115 428.52 110.655 426.06C110.573 425.976 110.475 425.909 110.367 425.864C110.259 425.819 110.143 425.795 110.026 425.795C109.909 425.795 109.793 425.819 109.685 425.864C109.577 425.909 109.479 425.976 109.397 426.06C109.313 426.143 109.246 426.242 109.201 426.352C109.155 426.461 109.132 426.578 109.132 426.697C109.132 426.816 109.155 426.933 109.201 427.042C109.246 427.152 109.313 427.251 109.397 427.334C111.948 429.92 114.642 432.399 117.372 434.697C117.523 434.789 117.698 434.832 117.874 434.823H117.928ZM267.999 433.638C268.188 433.639 268.372 433.576 268.52 433.458C271.43 431.411 274.357 429.22 277.177 426.975C277.363 426.824 277.482 426.606 277.509 426.367C277.536 426.129 277.468 425.889 277.321 425.7C277.247 425.608 277.156 425.531 277.053 425.475C276.949 425.418 276.836 425.383 276.719 425.371C276.601 425.36 276.483 425.372 276.37 425.407C276.258 425.441 276.153 425.499 276.063 425.575C273.262 427.801 270.37 429.956 267.479 432.004C267.288 432.141 267.158 432.347 267.118 432.579C267.077 432.811 267.13 433.049 267.263 433.243C267.339 433.356 267.44 433.451 267.559 433.519C267.677 433.588 267.809 433.628 267.946 433.638H267.999ZM284.828 420.187C284.937 420.189 285.046 420.17 285.147 420.13C285.249 420.09 285.342 420.03 285.42 419.954C288.078 417.565 290.718 415.051 293.251 412.483C293.335 412.4 293.402 412.3 293.447 412.191C293.493 412.082 293.516 411.964 293.516 411.846C293.516 411.727 293.493 411.61 293.447 411.5C293.402 411.391 293.335 411.292 293.251 411.208C293.167 411.124 293.068 411.057 292.959 411.012C292.849 410.966 292.732 410.943 292.613 410.943C292.495 410.943 292.377 410.966 292.268 411.012C292.158 411.057 292.059 411.124 291.976 411.208C289.461 413.758 286.857 416.254 284.217 418.625C284.133 418.708 284.066 418.808 284.02 418.917C283.975 419.027 283.951 419.144 283.951 419.262C283.951 419.381 283.975 419.498 284.02 419.608C284.066 419.717 284.133 419.816 284.217 419.9C284.364 420.057 284.561 420.158 284.774 420.187H284.828ZM102.788 419.523C103 419.526 103.205 419.449 103.363 419.307C103.455 419.234 103.532 419.143 103.588 419.04C103.645 418.936 103.68 418.823 103.692 418.705C103.704 418.588 103.692 418.47 103.657 418.357C103.622 418.245 103.565 418.14 103.489 418.05C101.226 415.339 99.0526 412.483 97.0052 409.538C96.8647 409.346 96.655 409.216 96.4203 409.176C96.1856 409.135 95.9445 409.188 95.748 409.323C95.6509 409.391 95.5682 409.477 95.5047 409.577C95.4413 409.678 95.3983 409.789 95.3783 409.906C95.3583 410.023 95.3615 410.143 95.388 410.258C95.4145 410.374 95.4636 410.483 95.5325 410.58C97.5979 413.543 99.8249 416.452 102.106 419.2C102.183 419.294 102.278 419.371 102.386 419.427C102.494 419.483 102.613 419.515 102.734 419.523H102.788ZM299.86 404.887C299.986 404.886 300.11 404.858 300.225 404.805C300.339 404.752 300.441 404.676 300.524 404.582C302.895 401.906 305.248 399.194 307.493 396.303C307.643 396.117 307.713 395.88 307.688 395.642C307.662 395.405 307.544 395.187 307.358 395.037C307.172 394.887 306.935 394.817 306.697 394.842C306.46 394.867 306.242 394.986 306.092 395.172C303.847 397.973 301.53 400.739 299.177 403.379C299.065 403.511 298.993 403.672 298.969 403.844C298.945 404.016 298.97 404.191 299.041 404.349C299.113 404.507 299.228 404.641 299.373 404.737C299.517 404.832 299.686 404.884 299.86 404.887V404.887ZM90.3062 401.906C90.4647 401.907 90.6203 401.864 90.7552 401.78C90.9591 401.66 91.1074 401.465 91.1679 401.236C91.2285 401.008 91.1963 400.764 91.0785 400.559C89.2825 397.524 87.4866 394.346 85.978 391.149C85.8699 390.933 85.681 390.769 85.4523 390.691C85.2236 390.614 84.9736 390.63 84.7567 390.736C84.5452 390.844 84.3849 391.031 84.3109 391.256C84.2369 391.482 84.2551 391.727 84.3616 391.939C85.978 395.19 87.7021 398.386 89.534 401.475C89.622 401.617 89.7472 401.732 89.896 401.808C90.0447 401.884 90.2114 401.918 90.378 401.906H90.3062ZM313.348 388.078C313.487 388.077 313.624 388.044 313.748 387.982C313.873 387.919 313.981 387.83 314.066 387.719C316.185 384.822 318.287 381.895 320.37 378.938C320.491 378.742 320.533 378.508 320.486 378.282C320.44 378.057 320.308 377.858 320.119 377.727C319.931 377.596 319.698 377.542 319.471 377.577C319.244 377.612 319.038 377.732 318.897 377.914C316.838 380.859 314.743 383.769 312.611 386.642C312.475 386.836 312.419 387.076 312.456 387.31C312.493 387.545 312.619 387.756 312.809 387.899C312.981 388.036 313.2 388.1 313.419 388.078H313.348ZM80.7337 382.691C80.846 382.716 80.9626 382.716 81.0749 382.691C81.2933 382.6 81.4668 382.426 81.5576 382.207C81.6484 381.989 81.6493 381.743 81.5599 381.524C80.2129 378.237 78.9737 374.843 77.8602 371.467C77.7862 371.241 77.6255 371.054 77.4133 370.946C77.2012 370.838 76.955 370.819 76.7287 370.893C76.5054 370.97 76.3208 371.132 76.2136 371.343C76.1065 371.554 76.0852 371.798 76.154 372.024C77.2855 375.454 78.5426 378.866 79.9076 382.206C79.9964 382.346 80.1223 382.459 80.2713 382.532C80.4203 382.605 80.5866 382.635 80.7517 382.619L80.7337 382.691ZM325.901 370.48C326.045 370.479 326.187 370.444 326.315 370.379C326.443 370.313 326.553 370.219 326.638 370.102C328.685 367.157 330.751 364.218 332.834 361.285C332.967 361.091 333.02 360.853 332.979 360.622C332.939 360.39 332.809 360.183 332.618 360.046C332.424 359.91 332.184 359.854 331.95 359.891C331.715 359.928 331.504 360.054 331.361 360.244C329.278 363.171 327.213 366.134 325.165 369.079C325.097 369.174 325.048 369.282 325.022 369.396C324.995 369.51 324.992 369.628 325.012 369.744C325.032 369.859 325.075 369.969 325.139 370.068C325.202 370.167 325.284 370.252 325.381 370.318C325.534 370.422 325.716 370.479 325.901 370.48V370.48ZM74.0707 362.165H74.2862C74.4007 362.136 74.5082 362.084 74.6028 362.013C74.6973 361.942 74.7768 361.853 74.8369 361.752C74.897 361.65 74.9364 361.537 74.9528 361.42C74.9693 361.303 74.9624 361.184 74.9328 361.07C74.0527 357.676 73.2625 354.156 72.58 350.618C72.5576 350.5 72.5122 350.388 72.4464 350.287C72.3806 350.187 72.2956 350.101 72.1964 350.033C72.0972 349.966 71.9856 349.918 71.8681 349.894C71.7506 349.869 71.6293 349.868 71.5114 349.891C71.3935 349.913 71.2812 349.959 71.1808 350.024C71.0804 350.09 70.994 350.175 70.9265 350.274C70.8589 350.374 70.8116 350.485 70.7871 350.603C70.7627 350.72 70.7617 350.841 70.7841 350.959C71.4665 354.551 72.2747 358.142 73.1548 361.519C73.2114 361.714 73.333 361.885 73.4994 362.002C73.6658 362.12 73.8673 362.177 74.0707 362.165ZM481.091 358.142C481.168 358.161 481.248 358.161 481.325 358.142C481.439 358.113 481.547 358.062 481.641 357.991C481.736 357.92 481.815 357.831 481.875 357.729C481.935 357.627 481.975 357.515 481.991 357.398C482.008 357.281 482.001 357.161 481.971 357.047C481.038 353.526 479.794 350.094 478.254 346.793C478.214 346.673 478.149 346.562 478.063 346.469C477.978 346.375 477.873 346.301 477.757 346.251C477.64 346.201 477.515 346.176 477.388 346.177C477.261 346.179 477.136 346.208 477.021 346.262C476.906 346.315 476.804 346.393 476.721 346.488C476.639 346.584 476.577 346.697 476.541 346.818C476.504 346.94 476.494 347.067 476.511 347.193C476.527 347.319 476.571 347.439 476.637 347.547C478.12 350.759 479.322 354.094 480.229 357.514C480.287 357.697 480.402 357.857 480.557 357.97C480.712 358.083 480.899 358.144 481.091 358.142V358.142ZM338.437 352.953C338.577 352.951 338.714 352.918 338.838 352.856C338.962 352.794 339.071 352.704 339.156 352.593C341.473 349.505 343.628 346.739 345.747 344.135C345.836 344.047 345.905 343.94 345.95 343.823C345.996 343.706 346.016 343.581 346.01 343.455C346.004 343.33 345.971 343.207 345.915 343.095C345.858 342.983 345.779 342.884 345.682 342.804C345.584 342.725 345.472 342.667 345.35 342.633C345.229 342.6 345.103 342.593 344.979 342.612C344.854 342.63 344.735 342.675 344.63 342.743C344.524 342.81 344.433 342.899 344.364 343.004C342.209 345.626 340.036 348.391 337.719 351.516C337.619 351.649 337.558 351.808 337.543 351.974C337.528 352.14 337.56 352.307 337.634 352.456C337.709 352.605 337.823 352.731 337.965 352.819C338.107 352.906 338.271 352.953 338.437 352.953ZM69.9759 341.046C70.0919 341.031 70.2038 340.993 70.3048 340.934C70.4059 340.874 70.494 340.796 70.5643 340.702C70.6345 340.609 70.6854 340.502 70.7139 340.388C70.7424 340.275 70.7479 340.157 70.7301 340.041C70.2632 336.557 69.8681 332.983 69.5628 329.374C69.5357 329.137 69.4173 328.92 69.2329 328.769C69.0485 328.619 68.8124 328.545 68.575 328.566C68.3397 328.588 68.123 328.703 67.9717 328.885C67.8204 329.066 67.7468 329.3 67.7669 329.535C68.0722 333.127 68.4852 336.719 68.9521 340.31C68.996 340.541 69.1267 340.746 69.3172 340.883C69.5076 341.02 69.7434 341.078 69.9759 341.046ZM472.165 338.694C472.346 338.695 472.522 338.639 472.668 338.532C472.766 338.467 472.85 338.383 472.915 338.285C472.98 338.188 473.025 338.078 473.046 337.962C473.068 337.847 473.066 337.728 473.042 337.613C473.017 337.498 472.969 337.389 472.902 337.293C470.854 334.286 468.578 331.44 466.095 328.781C465.924 328.616 465.695 328.523 465.457 328.523C465.219 328.523 464.991 328.616 464.82 328.781C464.736 328.865 464.669 328.964 464.623 329.073C464.578 329.183 464.554 329.3 464.554 329.419C464.554 329.537 464.578 329.655 464.623 329.764C464.669 329.873 464.736 329.973 464.82 330.056C467.24 332.651 469.461 335.425 471.465 338.353C471.546 338.451 471.648 338.53 471.762 338.586C471.877 338.642 472.002 338.672 472.129 338.676L472.165 338.694ZM352.141 336.324C352.263 336.324 352.383 336.299 352.495 336.249C352.606 336.2 352.706 336.127 352.787 336.036C355.302 333.307 357.852 330.739 360.33 328.44C360.496 328.269 360.589 328.04 360.589 327.802C360.589 327.565 360.496 327.336 360.33 327.165C360.247 327.081 360.147 327.014 360.038 326.968C359.929 326.923 359.811 326.899 359.693 326.899C359.574 326.899 359.457 326.923 359.347 326.968C359.238 327.014 359.139 327.081 359.055 327.165C356.541 329.5 353.972 332.085 351.422 334.851C351.338 334.934 351.271 335.034 351.226 335.143C351.18 335.253 351.157 335.37 351.157 335.489C351.157 335.607 351.18 335.724 351.226 335.834C351.271 335.943 351.338 336.043 351.422 336.126C351.516 336.203 351.626 336.26 351.744 336.291C351.862 336.322 351.985 336.327 352.105 336.306L352.141 336.324ZM457.528 322.981C457.715 322.983 457.898 322.928 458.052 322.821C458.206 322.715 458.323 322.563 458.386 322.387C458.449 322.211 458.456 322.019 458.405 321.839C458.354 321.659 458.249 321.5 458.103 321.383C455.259 319.108 452.259 317.038 449.123 315.187C448.917 315.067 448.673 315.031 448.441 315.088C448.21 315.145 448.01 315.29 447.884 315.492C447.765 315.7 447.732 315.946 447.793 316.178C447.853 316.409 448.002 316.608 448.207 316.731C451.261 318.541 454.183 320.563 456.953 322.783C457.109 322.899 457.298 322.962 457.492 322.963L457.528 322.981ZM367.963 321.742C368.158 321.743 368.347 321.68 368.502 321.562C371.339 319.424 374.302 317.457 377.374 315.672C377.554 315.541 377.679 315.348 377.724 315.131C377.77 314.913 377.734 314.687 377.622 314.494C377.51 314.302 377.331 314.158 377.12 314.091C376.908 314.023 376.679 314.036 376.476 314.128C373.362 315.94 370.363 317.944 367.496 320.125C367.306 320.268 367.18 320.481 367.146 320.717C367.112 320.953 367.174 321.192 367.317 321.383C367.389 321.479 367.481 321.559 367.586 321.618C367.691 321.677 367.807 321.713 367.927 321.724L367.963 321.742ZM68.0901 319.497C68.3267 319.483 68.5487 319.378 68.7095 319.204C68.8702 319.03 68.9572 318.8 68.9521 318.563C68.8264 315.421 68.7726 312.188 68.7726 308.956V307.824C68.7726 307.586 68.6779 307.358 68.5095 307.189C68.3411 307.021 68.1128 306.926 67.8746 306.926C67.6364 306.926 67.408 307.021 67.2396 307.189C67.0712 307.358 66.9766 307.586 66.9766 307.824V308.956C66.9766 312.206 66.9766 315.474 67.1562 318.635C67.1608 318.753 67.1886 318.869 67.2381 318.976C67.2875 319.083 67.3576 319.18 67.4444 319.26C67.5311 319.34 67.6328 319.402 67.7436 319.443C67.8544 319.483 67.9722 319.502 68.0901 319.497V319.497ZM439.03 311.937C439.206 311.933 439.378 311.879 439.525 311.78C439.672 311.682 439.786 311.543 439.856 311.38C439.941 311.158 439.939 310.911 439.848 310.691C439.758 310.471 439.587 310.293 439.371 310.195C436.014 308.793 432.564 307.629 429.044 306.711C428.806 306.651 428.554 306.689 428.343 306.815C428.133 306.941 427.981 307.146 427.922 307.384C427.862 307.622 427.9 307.874 428.026 308.085C428.152 308.295 428.357 308.447 428.595 308.507C432.031 309.401 435.398 310.541 438.67 311.919C438.785 311.968 438.906 311.998 439.03 312.008V311.937ZM386.551 310.985C386.664 311.004 386.78 311.004 386.893 310.985C388.689 310.267 390.485 309.602 392.28 309.027C393.807 308.543 395.388 308.13 396.968 307.752C397.083 307.729 397.192 307.683 397.289 307.617C397.386 307.55 397.469 307.465 397.533 307.367C397.596 307.268 397.639 307.157 397.66 307.042C397.68 306.926 397.677 306.807 397.65 306.693C397.625 306.577 397.577 306.467 397.509 306.37C397.441 306.273 397.354 306.191 397.254 306.127C397.154 306.064 397.042 306.021 396.925 306.001C396.808 305.981 396.688 305.984 396.573 306.01C394.939 306.388 393.322 306.819 391.742 307.321C389.946 307.914 387.988 308.578 386.192 309.315C386.082 309.358 385.982 309.423 385.898 309.505C385.813 309.588 385.745 309.686 385.699 309.794C385.652 309.903 385.627 310.019 385.625 310.137C385.624 310.255 385.646 310.372 385.689 310.482C385.754 310.657 385.872 310.806 386.027 310.91C386.182 311.013 386.365 311.064 386.551 311.057V310.985ZM418.232 306.531C418.452 306.529 418.663 306.448 418.828 306.303C418.993 306.158 419.1 305.959 419.13 305.741C419.143 305.623 419.132 305.504 419.098 305.39C419.064 305.276 419.007 305.171 418.932 305.079C418.857 304.987 418.764 304.911 418.66 304.855C418.555 304.799 418.44 304.765 418.322 304.753C414.702 304.356 411.057 304.254 407.421 304.448C407.303 304.455 407.187 304.485 407.081 304.537C406.974 304.588 406.879 304.66 406.801 304.749C406.722 304.837 406.662 304.94 406.624 305.052C406.585 305.164 406.569 305.282 406.576 305.4C406.581 305.517 406.609 305.632 406.659 305.738C406.708 305.845 406.779 305.94 406.866 306.018C406.953 306.097 407.055 306.158 407.165 306.196C407.276 306.235 407.393 306.251 407.51 306.244C411.056 306.062 414.611 306.158 418.142 306.531H418.232ZM68.1799 297.947C68.412 297.948 68.6351 297.858 68.8025 297.697C68.9699 297.537 69.0686 297.317 69.0779 297.085C69.2216 293.584 69.455 289.902 69.7244 286.311C69.7342 286.193 69.7207 286.074 69.6844 285.961C69.6481 285.848 69.59 285.744 69.5132 285.654C69.4364 285.564 69.3425 285.49 69.2369 285.436C69.1314 285.382 69.0164 285.35 68.8983 285.341C68.7813 285.331 68.6634 285.345 68.5517 285.381C68.4401 285.418 68.3369 285.476 68.2482 285.553C68.1595 285.63 68.087 285.724 68.0352 285.83C67.9834 285.935 67.9532 286.05 67.9464 286.167C67.6591 289.759 67.4435 293.44 67.2819 296.942C67.2771 297.06 67.2955 297.177 67.3363 297.288C67.377 297.399 67.4393 297.501 67.5193 297.587C67.5994 297.674 67.6957 297.744 67.8029 297.794C67.9101 297.843 68.026 297.871 68.1439 297.876L68.1799 297.947ZM69.8322 276.398C70.0555 276.399 70.2713 276.317 70.4374 276.167C70.6034 276.018 70.7078 275.812 70.7301 275.59C71.1073 272.124 71.5564 268.55 72.0413 264.923C72.059 264.807 72.0534 264.689 72.0249 264.575C71.9965 264.462 71.9457 264.355 71.8754 264.261C71.8052 264.168 71.7169 264.089 71.6158 264.03C71.5148 263.971 71.403 263.932 71.2869 263.917C71.1701 263.899 71.051 263.905 70.9363 263.933C70.8216 263.961 70.7136 264.012 70.6185 264.082C70.5235 264.152 70.4431 264.24 70.3821 264.341C70.3211 264.442 70.2807 264.554 70.2632 264.671C69.7603 268.263 69.3293 271.854 68.9521 275.446C68.9372 275.563 68.9459 275.682 68.9778 275.796C69.0097 275.909 69.0641 276.015 69.1378 276.107C69.2116 276.2 69.3031 276.276 69.4069 276.332C69.5108 276.388 69.6249 276.423 69.7424 276.434L69.8322 276.398ZM72.8135 255.064C73.0267 255.066 73.2334 254.991 73.3953 254.852C73.5571 254.713 73.6631 254.521 73.6935 254.31C74.3221 250.718 75.0046 247.126 75.7589 243.768C75.7825 243.653 75.7831 243.534 75.7607 243.418C75.7383 243.302 75.6932 243.192 75.6282 243.093C75.5631 242.995 75.4793 242.91 75.3816 242.844C75.2838 242.778 75.174 242.732 75.0584 242.709C74.944 242.682 74.8254 242.679 74.7097 242.699C74.594 242.72 74.4835 242.763 74.3847 242.826C74.286 242.89 74.201 242.973 74.1347 243.07C74.0684 243.167 74.0222 243.276 73.9988 243.391C73.2445 246.839 72.5441 250.413 71.9155 254.004C71.8788 254.24 71.9351 254.48 72.0725 254.674C72.21 254.869 72.4178 255.002 72.6518 255.046L72.8135 255.064ZM77.4112 233.999C77.6086 234.001 77.8009 233.937 77.9573 233.816C78.1136 233.696 78.2249 233.526 78.2732 233.335C79.2071 229.743 80.2308 226.349 81.3084 223.045C81.3722 222.821 81.3469 222.582 81.2378 222.377C81.1287 222.172 80.9444 222.017 80.7235 221.945C80.5026 221.873 80.2624 221.889 80.0533 221.99C79.8442 222.092 79.6825 222.27 79.6022 222.488C78.5067 225.828 77.483 229.312 76.5311 232.868C76.4707 233.101 76.5047 233.349 76.6257 233.557C76.7468 233.766 76.9451 233.918 77.1777 233.981L77.4112 233.999ZM84.0742 213.509C84.2561 213.508 84.4335 213.453 84.5838 213.35C84.7341 213.248 84.8506 213.103 84.9183 212.934C86.2474 209.54 87.6841 206.236 89.1748 203.093C89.2731 202.879 89.2831 202.634 89.2024 202.412C89.1217 202.191 88.957 202.009 88.7438 201.908C88.5288 201.808 88.2831 201.795 88.0587 201.872C87.8342 201.949 87.6484 202.11 87.5404 202.321C86.0318 205.5 84.5951 208.858 83.2481 212.288C83.2044 212.398 83.1826 212.515 83.1843 212.633C83.1859 212.751 83.2107 212.867 83.2574 212.976C83.3041 213.084 83.3717 213.182 83.4564 213.265C83.5411 213.347 83.6412 213.412 83.751 213.455C83.8401 213.539 83.9435 213.606 84.0563 213.653L84.0742 213.509ZM93.3235 194.204C93.4802 194.203 93.6339 194.161 93.7694 194.083C93.9049 194.004 94.0174 193.891 94.0957 193.755C95.8917 190.613 97.8493 187.578 99.8428 184.776C99.9113 184.681 99.96 184.574 99.9863 184.459C100.013 184.345 100.016 184.227 99.9956 184.112C99.9756 183.996 99.9326 183.886 99.8694 183.787C99.8061 183.689 99.7239 183.604 99.6273 183.537C99.5332 183.466 99.4254 183.416 99.3108 183.388C99.1962 183.36 99.0772 183.356 98.961 183.377C98.8449 183.397 98.7341 183.441 98.6356 183.505C98.537 183.57 98.4528 183.654 98.3881 183.753C96.3407 186.626 94.3831 189.697 92.5332 192.893C92.4169 193.101 92.3875 193.346 92.4515 193.574C92.5154 193.803 92.6675 193.998 92.8745 194.114C93.0123 194.187 93.1683 194.218 93.3235 194.204V194.204ZM105.77 176.659C105.898 176.658 106.025 176.63 106.143 176.578C106.26 176.525 106.365 176.449 106.452 176.354C108.796 173.676 111.29 171.134 113.923 168.74C114.007 168.658 114.073 168.56 114.119 168.452C114.164 168.344 114.187 168.228 114.187 168.111C114.187 167.994 114.164 167.878 114.119 167.771C114.073 167.663 114.007 167.565 113.923 167.483C113.84 167.399 113.74 167.332 113.631 167.286C113.522 167.241 113.404 167.217 113.286 167.217C113.167 167.217 113.05 167.241 112.94 167.286C112.831 167.332 112.732 167.399 112.648 167.483C109.969 169.92 107.432 172.511 105.051 175.241C104.965 175.321 104.897 175.419 104.85 175.527C104.803 175.635 104.779 175.751 104.779 175.869C104.779 175.987 104.803 176.104 104.85 176.212C104.897 176.32 104.965 176.417 105.051 176.498C105.154 176.579 105.273 176.635 105.401 176.663C105.528 176.691 105.661 176.69 105.787 176.659H105.77ZM121.718 162.293C121.904 162.292 122.085 162.236 122.239 162.131C124.71 160.402 127.276 158.813 129.925 157.373C130.392 157.121 130.859 156.852 131.344 156.618C131.554 156.504 131.71 156.312 131.781 156.084C131.851 155.856 131.83 155.61 131.721 155.397C131.611 155.189 131.422 155.032 131.197 154.962C130.972 154.891 130.728 154.912 130.518 155.02L129.063 155.792C126.36 157.269 123.74 158.894 121.215 160.659C121.059 160.768 120.942 160.923 120.88 161.103C120.818 161.283 120.815 161.477 120.87 161.659C120.926 161.841 121.039 162 121.191 162.114C121.343 162.228 121.528 162.291 121.718 162.293V162.293ZM140.737 152.272C140.843 152.298 140.954 152.298 141.06 152.272C143.97 151.123 147.167 149.974 151.154 148.681C151.378 148.599 151.563 148.435 151.67 148.221C151.777 148.007 151.798 147.76 151.728 147.532C151.647 147.307 151.481 147.124 151.267 147.02C151.052 146.916 150.805 146.9 150.579 146.975C146.574 148.322 143.395 149.489 140.396 150.566C140.278 150.589 140.166 150.634 140.065 150.7C139.965 150.766 139.878 150.851 139.811 150.95C139.743 151.049 139.696 151.161 139.672 151.278C139.647 151.396 139.646 151.517 139.668 151.635C139.691 151.753 139.736 151.865 139.802 151.966C139.868 152.066 139.953 152.152 140.052 152.22C140.151 152.287 140.263 152.335 140.38 152.359C140.498 152.384 140.619 152.385 140.737 152.362V152.272ZM161.139 145.305H161.409C164.462 144.317 168.054 143.132 171.646 141.803C171.768 141.772 171.883 141.715 171.982 141.637C172.081 141.559 172.163 141.46 172.222 141.348C172.28 141.236 172.314 141.113 172.322 140.987C172.33 140.861 172.311 140.734 172.266 140.616C172.222 140.498 172.153 140.39 172.064 140.3C171.975 140.211 171.868 140.141 171.75 140.095C171.632 140.049 171.506 140.029 171.379 140.036C171.253 140.042 171.13 140.075 171.017 140.133C167.425 141.426 163.833 142.611 160.852 143.599C160.626 143.673 160.438 143.833 160.33 144.046C160.223 144.258 160.204 144.504 160.277 144.73C160.346 144.902 160.465 145.048 160.619 145.151C160.773 145.254 160.954 145.307 161.139 145.305V145.305ZM181.326 137.637C181.456 137.632 181.585 137.602 181.703 137.547C184.987 135.988 188.166 134.218 191.222 132.249C191.42 132.114 191.557 131.907 191.604 131.672C191.651 131.437 191.604 131.193 191.473 130.992C191.342 130.795 191.137 130.659 190.905 130.611C190.673 130.564 190.432 130.611 190.234 130.741C187.251 132.674 184.143 134.408 180.931 135.931C180.823 135.981 180.726 136.052 180.646 136.14C180.566 136.227 180.504 136.33 180.464 136.442C180.424 136.554 180.406 136.673 180.412 136.792C180.419 136.91 180.448 137.027 180.5 137.134C180.58 137.284 180.699 137.41 180.844 137.498C180.99 137.586 181.156 137.634 181.326 137.637V137.637ZM199.286 125.82C199.513 125.815 199.731 125.726 199.896 125.569C202.588 123.101 204.997 120.343 207.08 117.344C207.155 117.248 207.209 117.137 207.24 117.02C207.27 116.902 207.277 116.779 207.258 116.658C207.24 116.538 207.197 116.422 207.132 116.319C207.068 116.216 206.983 116.126 206.883 116.057C206.783 115.987 206.67 115.939 206.55 115.914C206.431 115.89 206.308 115.89 206.189 115.915C206.069 115.94 205.956 115.988 205.856 116.058C205.756 116.128 205.672 116.217 205.607 116.321C203.582 119.213 201.245 121.875 198.639 124.258C198.473 124.429 198.381 124.658 198.381 124.896C198.381 125.134 198.473 125.362 198.639 125.533C198.811 125.707 199.042 125.809 199.286 125.82V125.82ZM211.211 108.15C211.4 108.147 211.583 108.085 211.735 107.972C211.886 107.859 211.998 107.701 212.055 107.521C212.378 106.587 212.648 105.618 212.881 104.666C213.52 102.054 213.87 99.3805 213.923 96.6926C213.928 96.5755 213.909 96.4587 213.868 96.3489C213.827 96.2392 213.765 96.1387 213.684 96.0534C213.604 95.9681 213.508 95.8997 213.4 95.8521C213.293 95.8046 213.178 95.779 213.061 95.7767C212.825 95.776 212.598 95.8645 212.425 96.0243C212.251 96.1842 212.145 96.4037 212.127 96.6387C212.074 99.1991 211.743 101.746 211.139 104.235C210.924 105.151 210.654 106.031 210.349 106.965C210.28 107.191 210.301 107.435 210.408 107.646C210.516 107.857 210.7 108.018 210.924 108.096C210.993 108.124 211.065 108.142 211.139 108.15H211.211ZM211.929 86.8696H212.127C212.243 86.8441 212.352 86.7959 212.449 86.7279C212.547 86.6598 212.629 86.5732 212.693 86.4731C212.756 86.3729 212.799 86.2611 212.819 86.1442C212.839 86.0274 212.836 85.9076 212.809 85.7921C212.006 82.24 210.888 78.7664 209.469 75.4124C209.424 75.3021 209.357 75.2019 209.273 75.1176C209.188 75.0333 209.088 74.9667 208.978 74.9215C208.867 74.8764 208.749 74.8537 208.63 74.8547C208.511 74.8558 208.393 74.8805 208.283 74.9275C208.068 75.0225 207.898 75.1968 207.807 75.4141C207.717 75.6315 207.714 75.8752 207.799 76.0948C209.177 79.3567 210.265 82.734 211.049 86.1871C211.097 86.3705 211.2 86.5346 211.345 86.6568C211.49 86.779 211.669 86.8533 211.857 86.8696H211.929ZM90.0009 83.6551C90.2376 83.6505 90.4634 83.5544 90.6308 83.387C90.7982 83.2196 90.8943 82.9939 90.8989 82.7572C90.8989 82.5191 90.8043 82.2907 90.6359 82.1223C90.4675 81.9539 90.2391 81.8593 90.0009 81.8593C86.5139 81.8503 83.0596 81.1863 79.8178 79.9019C79.7095 79.8551 79.593 79.8307 79.4751 79.8298C79.3572 79.829 79.2403 79.8519 79.1314 79.8971C79.0225 79.9424 78.9238 80.009 78.8412 80.0931C78.7586 80.1772 78.6937 80.2771 78.6504 80.3868C78.6036 80.495 78.5792 80.6115 78.5784 80.7294C78.5775 80.8473 78.6004 80.9642 78.6457 81.0731C78.6909 81.1819 78.7575 81.2806 78.8417 81.3632C78.9258 81.4459 79.0256 81.5107 79.1353 81.554C82.593 82.9308 86.2792 83.6436 90.0009 83.6551V83.6551ZM100.489 81.554C100.608 81.5792 100.73 81.5792 100.849 81.554C104.331 80.1097 107.359 77.7521 109.613 74.73C109.756 74.5395 109.817 74.3 109.783 74.0643C109.75 73.8285 109.624 73.6158 109.433 73.4729C109.243 73.33 109.003 73.2687 108.768 73.3024C108.532 73.3361 108.319 73.462 108.176 73.6525C106.105 76.4215 103.326 78.5805 100.13 79.9019C99.9138 80.0002 99.744 80.1788 99.6569 80.4C99.5697 80.6212 99.572 80.8676 99.6632 81.0871C99.7378 81.2236 99.8465 81.3383 99.9787 81.4202C100.111 81.502 100.262 81.5482 100.418 81.554H100.489ZM70.6943 75.5561C70.8661 75.5541 71.0337 75.503 71.1773 75.4086C71.3209 75.3143 71.4344 75.1807 71.5044 75.0238C71.5743 74.8669 71.5978 74.6932 71.572 74.5233C71.5462 74.3535 71.4722 74.1946 71.3588 74.0655L71.1971 73.868C68.9603 71.307 67.2404 68.3372 66.1325 65.1225C66.0511 64.8983 65.8855 64.7148 65.6709 64.6108C65.4562 64.5068 65.2094 64.4907 64.983 64.5658C64.8707 64.6039 64.7673 64.6642 64.6789 64.7433C64.5906 64.8223 64.5191 64.9183 64.4688 65.0257C64.4185 65.133 64.3904 65.2494 64.3862 65.3679C64.3819 65.4864 64.4017 65.6044 64.4442 65.7151C65.624 69.1448 67.4533 72.3153 69.8322 75.0532L70.0118 75.2508C70.1695 75.4259 70.3876 75.535 70.6224 75.5561H70.6943ZM203.811 67.0081C203.969 67.0048 204.124 66.9615 204.26 66.8823C204.467 66.7654 204.62 66.5712 204.683 66.3423C204.747 66.1134 204.718 65.8685 204.602 65.6612C203.937 64.5119 203.237 63.3806 202.536 62.2672C201.315 60.3277 200.022 58.4062 198.675 56.5386C198.535 56.3457 198.323 56.2165 198.087 56.1795C197.852 56.1424 197.611 56.2005 197.418 56.341C197.225 56.4815 197.096 56.6929 197.059 56.9287C197.022 57.1644 197.08 57.4052 197.22 57.5981C198.549 59.3939 199.824 61.3154 201.028 63.219C201.71 64.3144 202.393 65.4278 203.039 66.5591C203.111 66.6849 203.212 66.7914 203.334 66.8696C203.456 66.9477 203.595 66.9953 203.74 67.0081H203.811ZM112.702 65.0686C112.922 65.0664 113.133 64.9854 113.298 64.8404C113.463 64.6953 113.57 64.4959 113.6 64.2785C113.723 63.2716 113.783 62.258 113.78 61.2436C113.77 58.5465 113.39 55.8635 112.648 53.2702C112.616 53.1523 112.562 53.0418 112.487 52.9451C112.412 52.8483 112.32 52.7672 112.214 52.7063C112.108 52.6454 111.991 52.606 111.87 52.5903C111.749 52.5746 111.626 52.5829 111.508 52.6148C111.39 52.6466 111.279 52.7014 111.182 52.7759C111.086 52.8504 111.005 52.9433 110.944 53.0492C110.883 53.155 110.843 53.2719 110.828 53.393C110.812 53.5142 110.82 53.6372 110.852 53.7551C111.558 56.189 111.92 58.7095 111.93 61.2436C111.931 62.1857 111.877 63.1271 111.768 64.063C111.737 64.2987 111.802 64.5369 111.946 64.7254C112.091 64.9139 112.305 65.0373 112.54 65.0686H112.702ZM63.4924 55.7305C63.6095 55.7305 63.7254 55.7071 63.8334 55.6618C63.9413 55.6165 64.0391 55.55 64.1211 55.4664C64.2031 55.3828 64.2675 55.2836 64.3106 55.1748C64.3538 55.066 64.3748 54.9496 64.3724 54.8326V54.5632C64.38 51.1428 64.8636 47.74 65.8092 44.4529C65.8759 44.2147 65.8453 43.9598 65.724 43.7443C65.6028 43.5288 65.4008 43.3703 65.1627 43.3036C64.9245 43.2369 64.6696 43.2675 64.454 43.3887C64.2384 43.51 64.0799 43.7119 64.0132 43.95C63.0174 47.4 62.5097 50.9724 62.5047 54.5632V54.8505C62.507 54.9685 62.5325 55.0847 62.5798 55.1928C62.6271 55.3008 62.6952 55.3985 62.7803 55.4802C62.8653 55.5619 62.9657 55.6261 63.0756 55.669C63.1854 55.712 63.3026 55.7328 63.4205 55.7305H63.4924ZM191.258 49.535C191.478 49.5357 191.69 49.4522 191.85 49.3015C191.94 49.2258 192.014 49.1328 192.067 49.0281C192.12 48.9234 192.152 48.8091 192.16 48.6919C192.169 48.5747 192.154 48.4571 192.116 48.3459C192.078 48.2347 192.018 48.1322 191.94 48.0445C189.569 45.3148 187.037 42.6571 184.433 40.1968C184.258 40.0526 184.035 39.9798 183.809 39.993C183.583 40.0062 183.37 40.1045 183.213 40.2681C183.056 40.4317 182.967 40.6486 182.964 40.8752C182.96 41.1018 183.042 41.3213 183.194 41.4898C185.762 43.9321 188.24 46.536 190.575 49.2117C190.65 49.304 190.743 49.3803 190.847 49.4358C190.952 49.4914 191.067 49.5251 191.186 49.535H191.258ZM107.206 44.7043C107.387 44.7056 107.563 44.649 107.709 44.5427C107.808 44.476 107.892 44.3904 107.957 44.2909C108.022 44.1914 108.067 44.0799 108.089 43.963C108.111 43.846 108.109 43.7259 108.084 43.6096C108.059 43.4933 108.011 43.3832 107.943 43.2856C107.727 42.9624 107.494 42.6391 107.26 42.3338C105.305 39.7001 103.065 37.291 100.579 35.1507C100.492 35.0667 100.388 35.0013 100.275 34.9584C100.161 34.9155 100.041 34.896 99.9195 34.9011C99.7983 34.9062 99.6796 34.9358 99.5702 34.988C99.4608 35.0402 99.3631 35.114 99.283 35.205C99.2029 35.296 99.1421 35.4023 99.1042 35.5174C99.0663 35.6325 99.0521 35.7542 99.0624 35.8749C99.0728 35.9957 99.1075 36.1131 99.1644 36.2201C99.2214 36.3271 99.2994 36.4215 99.3938 36.4975C101.785 38.5448 103.942 40.8516 105.823 43.3754L106.47 44.2912C106.538 44.4125 106.634 44.5161 106.749 44.594C106.865 44.672 106.996 44.722 107.134 44.7402L107.206 44.7043ZM69.3293 35.2943C69.4813 35.2921 69.6302 35.2515 69.7621 35.1761C69.894 35.1007 70.0046 34.9931 70.0836 34.8633C70.7941 33.7473 71.5615 32.6684 72.3825 31.6309C73.7627 29.933 75.2696 28.3421 76.8904 26.872C76.9858 26.7954 77.0646 26.7001 77.1218 26.5919C77.1791 26.4837 77.2136 26.365 77.2233 26.243C77.2329 26.121 77.2176 25.9983 77.1781 25.8824C77.1386 25.7666 77.0759 25.66 76.9937 25.5693C76.9116 25.4786 76.8118 25.4056 76.7004 25.3548C76.589 25.3041 76.4684 25.2767 76.3461 25.2742C76.2237 25.2718 76.1021 25.2943 75.9888 25.3406C75.8754 25.3868 75.7727 25.4558 75.687 25.5431C73.9924 27.0716 72.4248 28.7352 70.9996 30.5175C70.1208 31.5967 69.311 32.7304 68.575 33.9116C68.4467 34.1117 68.4031 34.3545 68.4536 34.5868C68.5041 34.8191 68.6446 35.0218 68.8444 35.1507C68.9699 35.2283 69.1109 35.2773 69.2574 35.2943H69.3293ZM175.687 34.6658C175.822 34.6679 175.956 34.6381 176.078 34.5788C176.199 34.5196 176.305 34.4325 176.387 34.3246C176.534 34.1385 176.601 33.902 176.574 33.6665C176.547 33.431 176.428 33.2157 176.243 33.0675C173.388 30.8228 170.406 28.7037 167.389 26.7643C167.189 26.6503 166.954 26.6174 166.73 26.6721C166.507 26.7269 166.313 26.8653 166.189 27.0587C166.065 27.2521 166.019 27.4858 166.062 27.7116C166.105 27.9375 166.233 28.1383 166.419 28.2727C169.428 30.1929 172.335 32.2669 175.13 34.4862C175.27 34.5923 175.439 34.6548 175.615 34.6658H175.687ZM91.276 30.4097C91.4697 30.4092 91.658 30.3462 91.8129 30.2299C91.9677 30.1137 92.0808 29.9505 92.1354 29.7647C92.1899 29.5789 92.1829 29.3804 92.1154 29.199C92.048 29.0175 91.9236 28.8627 91.761 28.7576C89.1748 27.1414 86.3731 25.5611 82.7811 23.7653L82.2423 23.496C82.1365 23.4323 82.0187 23.3911 81.8963 23.3751C81.7739 23.359 81.6494 23.3683 81.5308 23.4025C81.4121 23.4366 81.3018 23.4949 81.2066 23.5737C81.1115 23.6524 81.0337 23.7499 80.978 23.8601C80.9223 23.9703 80.8899 24.0908 80.8828 24.2141C80.8758 24.3374 80.8942 24.4608 80.937 24.5766C80.9799 24.6924 81.0461 24.7981 81.1317 24.8872C81.2172 24.9763 81.3202 25.0467 81.4342 25.0942L81.9729 25.3635C85.4391 27.1593 88.2409 28.7038 90.7911 30.2841C90.9192 30.3478 91.0612 30.3786 91.2042 30.3738L91.276 30.4097ZM157.565 23.0649C157.731 23.0662 157.894 23.0194 158.035 22.9302C158.175 22.841 158.286 22.7132 158.355 22.5621C158.411 22.4576 158.444 22.3431 158.454 22.2253C158.464 22.1075 158.45 21.9889 158.413 21.8766C158.377 21.7643 158.317 21.6606 158.24 21.5717C158.162 21.4828 158.067 21.4104 157.96 21.359C154.724 19.7275 151.403 18.2707 148.011 16.9951C147.797 16.9411 147.57 16.9678 147.375 17.07C147.179 17.1722 147.028 17.3429 146.95 17.5494C146.873 17.756 146.874 17.9839 146.953 18.1897C147.033 18.3955 147.186 18.5648 147.382 18.6653C150.717 19.9188 153.978 21.3577 157.152 22.9752C157.261 23.0225 157.376 23.0527 157.493 23.0649H157.565ZM85.0441 20.8561C85.1942 20.8547 85.3419 20.8178 85.4751 20.7484C88.5666 19.0227 91.8136 17.5917 95.1733 16.4744C95.3715 16.3795 95.528 16.2151 95.6132 16.0126C95.6984 15.81 95.7063 15.5832 95.6355 15.3752C95.5646 15.1672 95.42 14.9924 95.2289 14.8838C95.0378 14.7753 94.8135 14.7406 94.5986 14.7863C91.1347 15.9319 87.7857 17.3989 84.5951 19.1681C84.3882 19.285 84.236 19.4792 84.1721 19.7081C84.1081 19.937 84.1375 20.182 84.2538 20.3892C84.3239 20.5218 84.4266 20.6343 84.5523 20.716C84.6781 20.7977 84.8226 20.846 84.9722 20.8561H85.0441ZM72.131 20.5508C72.3034 20.5487 72.4718 20.4989 72.6176 20.407C72.7635 20.3151 72.8809 20.1846 72.9571 20.03C73.0543 19.8133 73.0617 19.5669 72.9775 19.3447C72.8934 19.1226 72.7245 18.9428 72.5081 18.8448C69.2215 17.3722 65.8631 15.9536 62.5225 14.6606C62.4132 14.6144 62.2956 14.5907 62.1768 14.5911C62.0581 14.5915 61.9406 14.6159 61.8315 14.6629C61.7224 14.7098 61.6241 14.7784 61.5422 14.8644C61.4604 14.9505 61.3967 15.0522 61.3552 15.1634C61.312 15.2742 61.2911 15.3925 61.294 15.5113C61.2968 15.6302 61.3231 15.7473 61.3716 15.8559C61.42 15.9645 61.4896 16.0624 61.5762 16.1439C61.6628 16.2254 61.7647 16.2889 61.876 16.3307C65.1806 17.6237 68.5211 19.0244 71.7718 20.479C71.8624 20.5204 71.9597 20.5448 72.0591 20.5508H72.131ZM137.414 15.5405C137.617 15.5424 137.813 15.4761 137.973 15.3522C138.133 15.2284 138.246 15.0543 138.295 14.8581C138.349 14.6249 138.31 14.3797 138.186 14.1749C138.062 13.9701 137.862 13.8222 137.63 13.7627C134.081 12.895 130.483 12.2473 126.854 11.8233C126.736 11.8091 126.617 11.8183 126.502 11.8504C126.388 11.8824 126.281 11.9367 126.188 12.0101C126.094 12.0834 126.016 12.1745 125.958 12.278C125.9 12.3815 125.863 12.4955 125.848 12.6134C125.834 12.7313 125.844 12.8509 125.876 12.9652C125.908 13.0796 125.962 13.1865 126.035 13.2799C126.109 13.3733 126.2 13.4513 126.303 13.5095C126.407 13.5677 126.521 13.6049 126.639 13.6191C130.17 14.0428 133.672 14.6785 137.127 15.5226L137.414 15.5405ZM105.339 13.9782H105.482C108.111 13.5582 110.761 13.2824 113.42 13.1522C114.318 13.1522 115.216 13.1522 116.078 13.1522C116.317 13.143 116.543 13.0431 116.709 12.8728C116.876 12.7025 116.972 12.4747 116.976 12.2363C116.979 12.1169 116.957 11.9983 116.911 11.8879C116.866 11.7775 116.798 11.6778 116.712 11.5951C116.626 11.5124 116.523 11.4484 116.411 11.4073C116.299 11.3662 116.18 11.3489 116.06 11.3564C115.144 11.3564 114.264 11.3564 113.331 11.3564C110.606 11.4926 107.89 11.7744 105.195 12.2004C104.961 12.2442 104.753 12.3775 104.616 12.5719C104.478 12.7663 104.422 13.0067 104.458 13.2419C104.493 13.4365 104.591 13.6141 104.738 13.7472C104.884 13.8803 105.07 13.9615 105.267 13.9782H105.339ZM52.0701 12.7032C52.3083 12.7413 52.5517 12.6833 52.7471 12.5418C52.9424 12.4004 53.0736 12.1871 53.1117 11.9489C53.1498 11.7108 53.0918 11.4673 52.9503 11.272C52.8089 11.0766 52.5956 10.9455 52.3574 10.9074C48.963 9.7581 45.4788 8.68061 42.0306 7.69292C41.802 7.63106 41.5584 7.66009 41.3508 7.77392C41.1433 7.88775 40.9878 8.07754 40.9171 8.30349C40.8844 8.41786 40.8747 8.53763 40.8887 8.65576C40.9027 8.77389 40.9401 8.88806 40.9985 8.99165C41.057 9.09524 41.1355 9.18614 41.2294 9.25915C41.3233 9.33215 41.4308 9.38576 41.5456 9.41687C44.958 10.4046 48.4063 11.4641 51.7827 12.6134L52.0701 12.7032ZM31.3625 6.77705C31.5648 6.77718 31.7611 6.70765 31.9181 6.58008C32.0751 6.45252 32.1833 6.27475 32.2246 6.07672C32.2786 5.84577 32.239 5.60287 32.1145 5.40099C31.99 5.19912 31.7907 5.05466 31.5601 4.99923C28.0759 4.19112 24.5199 3.43692 20.9818 2.79043C20.8639 2.76803 20.7427 2.76902 20.6252 2.79345C20.5077 2.81787 20.3961 2.86522 20.2969 2.93276C20.1977 3.00029 20.1127 3.08674 20.0469 3.1871C19.981 3.28746 19.9357 3.39982 19.9132 3.51773C19.8908 3.63564 19.8919 3.75677 19.9163 3.87428C19.9407 3.99179 19.9881 4.10339 20.0556 4.20261C20.1232 4.30183 20.2096 4.38674 20.31 4.45256C20.4103 4.51839 20.5227 4.56383 20.6407 4.58623C24.2326 5.23272 27.6988 5.96896 31.147 6.79502L31.3625 6.77705ZM10.1701 2.86223C10.2881 2.87048 10.4064 2.85544 10.5185 2.81794C10.6306 2.78045 10.7342 2.72121 10.8235 2.64367C10.9127 2.56613 10.9858 2.47182 11.0385 2.36604C11.0913 2.26026 11.1227 2.1451 11.1309 2.02719C11.1392 1.90927 11.1241 1.7909 11.0866 1.6788C11.0491 1.56671 10.9899 1.46309 10.9124 1.37388C10.8348 1.28466 10.7405 1.21158 10.6347 1.15883C10.5289 1.10608 10.4138 1.07468 10.2959 1.06643C7.22476 0.653397 4.08181 0.294245 0.974783 0.00691728C0.857278 -0.00806422 0.73794 0.00135494 0.624227 0.0345382C0.510514 0.0677214 0.404792 0.123943 0.313791 0.19977C0.22279 0.275597 0.148472 0.369357 0.0953239 0.475212C0.0421758 0.581066 0.0113418 0.696778 0.00488962 0.815047C-0.0074631 0.932097 0.00379322 1.05043 0.037994 1.16305C0.0721949 1.27567 0.128708 1.3803 0.204064 1.47071C0.279421 1.56113 0.372173 1.63549 0.476792 1.68943C0.581411 1.74338 0.695729 1.77578 0.813098 1.78474C3.90216 2.07206 7.00924 2.43127 10.0624 2.84431L10.1701 2.86223Z" fill="#3A556A"/>
</g>
<defs>
<clipPath id="clip0_216_39">
<rect width="482" height="383" fill="white"/>
</clipPath>
</defs>
</svg>
