<svg width="65" height="65" viewBox="0 0 65 65" fill="none" xmlns="http://www.w3.org/2000/svg">
<path d="M20.76 64.2717C19.3983 64.2876 18.0444 64.0642 16.76 63.6117C12.65 62.1317 12.18 56.9317 11.76 51.8917C11.39 47.6917 11 43.3517 8.47003 41.5617C1.34003 36.5617 -1.36995 26.5617 0.650051 20.7217C3.87005 11.4917 8.55002 10.6117 11.06 10.9217C16.13 11.5417 20.95 17.7617 21.58 24.5117C22.28 31.9217 25.49 37.8317 28.58 43.5117C30.03 46.1717 31.4 48.6817 32.52 51.3317C33.1877 52.7854 33.3904 54.4098 33.1005 55.983C32.8105 57.5562 32.0421 59.0015 30.9001 60.1217C28.1971 62.7843 24.5542 64.2753 20.76 64.2717ZM10.17 11.8617C6.66004 11.8617 3.61003 15.0817 1.54004 21.0417C-0.769965 27.6717 3.54005 36.9017 8.99005 40.7417C11.89 42.7917 12.3 47.3717 12.7 51.7917C13.14 56.7317 13.56 61.4017 17.07 62.6617C21.19 64.1517 27.07 62.7117 30.13 59.4517C31.1403 58.4747 31.8209 57.2071 32.0772 55.8253C32.3335 54.4434 32.1527 53.0161 31.56 51.7417C30.46 49.1417 29.1 46.6517 27.67 44.0117C24.51 38.2117 21.24 32.2117 20.53 24.6017C19.94 18.3917 15.44 12.4617 10.88 11.9017C10.6444 11.8734 10.4073 11.8601 10.17 11.8617Z" fill="#3A556A"/>
<path d="M13.8299 48.9616H13.7599C9.49989 48.1816 6.7599 46.3316 5.6399 43.4616C3.0899 36.9516 9.6399 27.4616 10.7999 25.8016L8.7999 21.1116C8.77371 21.0506 8.75992 20.985 8.75935 20.9186C8.75877 20.8523 8.77141 20.7864 8.79655 20.725C8.82168 20.6636 8.85881 20.6078 8.90574 20.5608C8.95267 20.5139 9.00846 20.4767 9.06989 20.4516C9.19218 20.4045 9.32793 20.4062 9.44895 20.4565C9.56998 20.5068 9.66698 20.6017 9.71989 20.7216L11.8199 25.7216C11.8522 25.8017 11.8636 25.8886 11.8531 25.9743C11.8426 26.0601 11.8106 26.1417 11.7599 26.2116C11.6799 26.3216 4.01988 36.6616 6.55988 43.1416C7.55988 45.6716 10.0299 47.3216 13.9299 48.0316C14.0596 48.0559 14.1745 48.1305 14.2494 48.2392C14.3243 48.3478 14.3533 48.4817 14.3299 48.6116C14.2954 48.7161 14.2281 48.8066 14.138 48.8697C14.0479 48.9327 13.9398 48.965 13.8299 48.9616Z" fill="#3A556A"/>
<path d="M25.32 44.7618C25.2194 44.7625 25.1213 44.731 25.04 44.6718C24.9859 44.6339 24.9399 44.5857 24.9045 44.5299C24.8692 44.4741 24.8453 44.4119 24.8341 44.3468C24.8229 44.2817 24.8248 44.2151 24.8395 44.1507C24.8543 44.0864 24.8816 44.0256 24.92 43.9718C27.68 40.0718 28.45 36.7118 27.18 33.9718C24.26 27.6018 11.43 26.3618 11.3 26.3518C11.17 26.3367 11.0509 26.2722 10.9671 26.1717C10.8833 26.0712 10.8414 25.9424 10.85 25.8118C10.855 25.7461 10.873 25.682 10.9029 25.6232C10.9328 25.5645 10.9741 25.5122 11.0243 25.4695C11.0745 25.4267 11.1326 25.3943 11.1954 25.3741C11.2581 25.3539 11.3243 25.3464 11.39 25.3518C11.94 25.3518 24.92 26.6618 28.09 33.5518C29.51 36.6418 28.72 40.3418 25.73 44.5518C25.6841 44.6177 25.6227 44.6714 25.5512 44.708C25.4797 44.7446 25.4003 44.7631 25.32 44.7618Z" fill="#3A556A"/>
<path d="M51.9 51.2716H51.76C50.1607 51.3154 48.5869 50.8644 47.2535 49.9802C45.9201 49.0961 44.8921 47.8218 44.31 46.3316C43.19 43.6816 42.31 40.9616 41.43 38.0716C39.49 31.8616 37.43 25.4416 32.63 19.7916C28.22 14.6416 27.1 6.85159 30.18 2.79159C31.7 0.791586 35.58 -1.98841 44.46 2.12159C50.05 4.70159 55.34 13.6016 54.01 22.2316C53.53 25.2916 56.39 28.5916 59.14 31.7816C62.45 35.6016 65.86 39.5516 64.07 43.5316C62.9167 45.7904 61.18 47.6993 59.04 49.0604C56.8999 50.4214 54.4347 51.1849 51.9 51.2716ZM36.4 0.991598C35.3756 0.927001 34.3507 1.11053 33.4123 1.5266C32.474 1.94268 31.6499 2.57902 31.01 3.3816C28.24 7.0416 29.37 14.3816 33.42 19.1416C38.42 24.9416 40.42 31.4616 42.42 37.7716C43.31 40.6316 44.16 43.3416 45.26 45.9416C45.762 47.2555 46.6625 48.3794 47.8353 49.1559C49.0081 49.9324 50.3944 50.3225 51.8 50.2716H51.9C56.36 50.2716 61.41 47.0816 63.19 43.1116C64.72 39.7116 61.66 36.1716 58.42 32.4216C55.51 29.0616 52.51 25.5816 53.05 22.0716C54.05 15.5116 50.44 5.9616 44.05 3.0216C41.6731 1.80946 39.0652 1.11744 36.4 0.991598Z" fill="#3A556A"/>
<path d="M55.23 31.4116C55.1297 31.411 55.0319 31.3796 54.95 31.3216C54.8404 31.2483 54.7642 31.1347 54.738 31.0054C54.7118 30.8762 54.7376 30.7419 54.81 30.6316C57.01 27.3416 57.55 24.4116 56.42 21.9416C53.53 15.6116 40.77 13.9416 40.64 13.9416C40.5522 13.9332 40.4684 13.9007 40.3979 13.8478C40.3273 13.7949 40.2727 13.7236 40.24 13.6416L38.14 8.70163C38.0899 8.57815 38.0901 8.43995 38.1405 8.3166C38.191 8.19325 38.2877 8.09454 38.41 8.04162C38.4697 8.01532 38.534 8.0012 38.5992 8.00007C38.6644 7.99894 38.7291 8.01083 38.7897 8.03505C38.8502 8.05926 38.9053 8.0953 38.9517 8.14108C38.9981 8.18686 39.0349 8.24145 39.06 8.30163L41.06 12.9916C43.06 13.2816 54.44 15.2016 57.34 21.5616C58.62 24.3716 58.05 27.6216 55.65 31.2216C55.6016 31.286 55.5377 31.3371 55.4643 31.3703C55.3909 31.4035 55.3104 31.4178 55.23 31.4116Z" fill="#3A556A"/>
<path d="M44.2099 36.7514H44.1399C39.0299 35.9714 35.8199 33.9714 34.5899 30.8014C31.8399 23.7314 39.9599 13.5314 40.3099 13.1014C40.3935 12.9979 40.5147 12.9319 40.6469 12.9179C40.7791 12.9038 40.9115 12.9428 41.0149 13.0264C41.1184 13.1099 41.1844 13.2311 41.1984 13.3633C41.2125 13.4955 41.1735 13.6279 41.0899 13.7314C41.0099 13.8314 32.9899 23.9114 35.5199 30.4414C36.6199 33.2514 39.5699 35.0414 44.2899 35.7714C44.355 35.7811 44.4174 35.8036 44.4738 35.8376C44.5301 35.8715 44.5792 35.9163 44.6182 35.9692C44.6572 36.0222 44.6854 36.0823 44.7012 36.1462C44.7169 36.21 44.7199 36.2763 44.7099 36.3414C44.6868 36.457 44.6244 36.561 44.5332 36.6357C44.4421 36.7105 44.3278 36.7513 44.2099 36.7514Z" fill="#3A556A"/>
</svg>
