<svg width="77" height="77" viewBox="0 0 77 77" fill="none" xmlns="http://www.w3.org/2000/svg">
<g opacity="0.65">
<path d="M33.6494 55.0943C30.3152 54.1864 27.3254 52.3097 25.0583 49.7019C22.7911 47.094 21.3487 43.8721 20.9135 40.4441C20.4782 37.016 21.0699 33.5359 22.6134 30.4442C24.1569 27.3525 26.5829 24.7883 29.5844 23.076C32.586 21.3638 36.028 20.5805 39.4749 20.8253C42.9217 21.0701 46.2185 22.332 48.9479 24.4513C51.6772 26.5706 53.7165 29.452 54.8076 32.7308C55.8986 36.0096 55.9924 39.5384 55.0771 42.8705C53.849 47.3281 50.9044 51.1174 46.8882 53.4085C42.872 55.6996 38.1116 56.3058 33.6494 55.0943ZM42.5565 22.6703C39.4746 21.8157 36.2085 21.8946 33.1715 22.8972C30.1345 23.8997 27.4632 25.7807 25.4957 28.3021C23.5283 30.8235 22.3531 33.872 22.1191 37.0616C21.885 40.2512 22.6025 43.4386 24.1808 46.2203C25.759 49.0019 28.1271 51.2527 30.9852 52.6879C33.8433 54.123 37.0629 54.6779 40.2366 54.2824C43.4102 53.8868 46.3952 52.5586 48.8136 50.4658C51.232 48.373 52.9751 45.6097 53.8223 42.5258C54.9488 38.3992 54.3962 33.9945 52.2853 30.2741C50.1744 26.5537 46.6767 23.82 42.5565 22.6703Z" fill="#3A556A"/>
<path d="M43.9011 19.0043C43.8008 18.9762 43.7085 18.925 43.6317 18.8546C43.5549 18.7843 43.4958 18.6969 43.459 18.5995C43.3705 18.3322 41.2396 12.1869 44.0525 9.31605C45.3686 7.96374 46.7369 8.04274 47.5106 8.71411C49.0078 10.0431 48.6838 13.6787 44.5782 18.799C44.5048 18.8888 44.4091 18.9577 44.3006 18.9989C44.1922 19.0402 44.0749 19.0523 43.9604 19.0341L43.9011 19.0043ZM46.402 9.55664C46.0255 9.45323 45.4898 9.68391 44.9821 10.2057C43.475 11.7619 43.8491 14.9686 44.3396 16.9656C47.4404 12.7028 47.2795 10.243 46.6517 9.67919C46.5778 9.62148 46.4928 9.57977 46.402 9.55664Z" fill="#3A556A"/>
<path d="M30.2527 68.3443C29.7777 68.1704 29.3591 67.8704 29.0417 67.4765C28.7243 67.0826 28.5202 66.6097 28.4513 66.1085C27.5067 62.1784 32.4745 57.9967 32.6837 57.8248C32.7722 57.7499 32.8794 57.7006 32.9939 57.6821C33.1084 57.6636 33.2257 57.6766 33.3333 57.7199C33.4411 57.7627 33.5357 57.833 33.6079 57.9239C33.68 58.0147 33.7271 58.1229 33.7443 58.2376C34.658 64.7367 33.0792 68.0276 31.1166 68.3927C30.8288 68.4441 30.533 68.4276 30.2527 68.3443ZM32.6312 59.6861C31.3414 60.9917 29.2013 63.5751 29.7336 65.813C29.9534 66.6831 30.418 67.2021 30.8998 67.1185C31.7025 66.9477 33.1044 64.8902 32.6061 59.6792L32.6312 59.6861Z" fill="#3A556A"/>
<path d="M63.9197 48.0656C61.6508 47.3179 59.5512 46.1312 57.7403 44.5732C57.6505 44.4998 57.5816 44.4041 57.5403 44.2957C57.4991 44.1873 57.4869 44.0699 57.5051 43.9553C57.523 43.8408 57.5717 43.7332 57.646 43.6443C57.7204 43.5553 57.8176 43.4884 57.9272 43.4505C58.1945 43.362 64.3272 41.2277 67.2107 44.044C68.563 45.3601 68.4874 46.7159 67.8035 47.4861C67.1195 48.2564 65.7768 48.5758 63.9197 48.0656ZM59.552 44.3152C63.7987 47.4251 66.2711 47.2676 66.8384 46.6272C67.1564 46.2558 66.9476 45.5911 66.3084 44.9702C64.7647 43.4666 61.5581 43.8407 59.5645 44.3187L59.552 44.3152Z" fill="#3A556A"/>
<path d="M11.2181 33.5878C9.34845 33.0742 8.33785 32.1354 8.1503 31.0987C7.96276 30.0621 8.58354 28.8831 10.4184 28.4425C14.3485 27.4979 18.5302 32.4657 18.7022 32.6749C18.7771 32.7634 18.8264 32.8706 18.8449 32.9851C18.8634 33.0995 18.8503 33.2169 18.8071 33.3245C18.7643 33.4323 18.6939 33.527 18.6031 33.5991C18.5122 33.6712 18.4041 33.7182 18.2894 33.7355C15.9453 34.1487 13.5429 34.0985 11.2181 33.5878ZM12.5502 29.7704C11.9556 29.5959 11.3271 29.5716 10.7208 29.6997C9.85421 29.9069 9.33519 30.3716 9.41876 30.8534C9.57928 31.6937 11.6242 33.0921 16.8477 32.5973C15.6592 31.3281 14.1863 30.3592 12.5502 29.7704Z" fill="#3A556A"/>
<path d="M56.2109 28.9177C56.1177 28.8937 56.0309 28.8493 55.9569 28.7877C55.8829 28.7262 55.8235 28.649 55.7829 28.5617C55.7424 28.4743 55.7217 28.3792 55.7224 28.2829C55.7231 28.1866 55.7451 28.0917 55.7869 28.005C55.8593 27.7414 58.8031 21.9376 62.799 21.8343C64.6811 21.8115 65.5888 22.8301 65.6565 23.8608C65.7841 25.8526 62.9836 28.1871 56.454 28.917L56.2109 28.9177ZM63.5713 23.2475C63.3235 23.1841 63.0683 23.1549 62.8126 23.1605C60.6463 23.1862 58.6307 25.7093 57.5763 27.4844C62.7787 26.6734 64.4131 24.8012 64.3633 23.9509C64.4049 23.6519 64.0858 23.3889 63.6216 23.2613L63.5713 23.2475Z" fill="#3A556A"/>
<path d="M12.5588 54.7932C12.3295 54.7293 12.1106 54.6327 11.9088 54.5066C11.0573 53.9218 10.6454 52.6212 11.6264 51.0149C13.7522 47.5504 20.211 48.1101 20.5134 48.1392C20.6296 48.1522 20.7404 48.1951 20.8351 48.2636C20.9298 48.3322 21.0051 48.4242 21.0536 48.5305C21.0972 48.637 21.1135 48.7527 21.1009 48.8671C21.0884 48.9815 21.0474 49.091 20.9817 49.1855C17.4487 53.8423 14.3657 55.2895 12.5588 54.7932ZM19.1301 49.392C17.2892 49.4126 13.9514 49.7237 12.738 51.6845C12.2721 52.4472 12.2274 53.1502 12.6378 53.4248C13.3468 53.8895 15.7375 53.4397 19.1301 49.392Z" fill="#3A556A"/>
<path d="M51.9342 65.6095C50.1148 65.1097 48.2106 62.2655 47.5707 56.4893C47.5625 56.3745 47.5832 56.2595 47.6309 56.1547C47.6785 56.05 47.7516 55.9588 47.8435 55.8895C47.9396 55.8229 48.0513 55.7824 48.1677 55.7718C48.2841 55.7612 48.4013 55.7809 48.5078 55.8291C48.7713 55.9015 54.5751 58.8454 54.6785 62.8412C54.7013 64.7233 53.6827 65.631 52.652 65.6987C52.4097 65.7045 52.1678 65.6745 51.9342 65.6095ZM49.0318 57.6059C49.8428 62.8083 51.715 64.4427 52.5654 64.3929C53.0585 64.3664 53.3792 63.7393 53.3683 62.8456C53.314 60.685 50.8035 58.6729 49.0318 57.6059Z" fill="#3A556A"/>
<path d="M27.564 21.0482L27.3381 20.9861C22.0977 17.023 20.8954 13.5888 22.0101 11.9383C22.5949 11.0868 23.8956 10.6749 25.5019 11.656C28.9664 13.7818 28.4066 20.2405 28.3776 20.5429C28.3692 20.6388 28.3396 20.7317 28.2911 20.8148C28.2425 20.8979 28.176 20.9692 28.0966 21.0235C28.0171 21.0778 27.9266 21.1139 27.8315 21.129C27.7364 21.1441 27.6392 21.1379 27.5468 21.1109L27.564 21.0482ZM24.1332 12.4136C23.6689 12.286 23.2853 12.3561 23.1022 12.6297C22.6284 13.3227 23.077 15.767 27.1315 19.1345C27.1075 17.3061 26.7998 13.9558 24.8356 12.755C24.6174 12.6108 24.3813 12.4961 24.1332 12.4136Z" fill="#3A556A"/>
<path d="M51.2083 22.8604C51.1428 22.8552 51.079 22.8377 51.0201 22.8087C50.9224 22.7478 50.843 22.6616 50.7903 22.5592C50.7377 22.4568 50.7137 22.3421 50.721 22.2272C50.7934 21.9637 51.2242 15.483 54.9032 13.9297C56.6404 13.2058 57.8639 13.8119 58.3131 14.7315C59.1646 16.5443 57.4581 19.7596 51.6659 22.8646C51.5183 22.9212 51.3548 22.9197 51.2083 22.8604ZM56.6955 14.9214C56.2598 14.8448 55.8109 14.9108 55.4157 15.1096C53.4272 15.9128 52.5027 19.0326 52.1714 21.0737C56.6914 18.3749 57.5095 16.0356 57.1388 15.2725C57.1018 15.1786 57.0434 15.0945 56.9682 15.027C56.8931 14.9595 56.8032 14.9105 56.7058 14.8837L56.6955 14.9214Z" fill="#3A556A"/>
<path d="M19.8123 63.1689C18.8586 62.907 18.0525 61.8623 18.3434 60.0665C19.0196 56.0823 25.2261 54.1706 25.4899 54.0946C25.6024 54.0624 25.7216 54.0617 25.8345 54.0927C25.9474 54.1237 26.0496 54.1852 26.1298 54.2704C26.2096 54.3547 26.2674 54.4574 26.2978 54.5694C26.3283 54.6813 26.3306 54.7991 26.3044 54.9122C24.5809 61.1861 21.8657 63.6521 19.9058 63.2216L19.8123 63.1689ZM24.697 55.7526C22.9917 56.4582 20.0295 58.0061 19.6362 60.2731C19.4896 61.1505 19.7178 61.7935 20.1946 61.9245C20.9989 62.0915 23.0842 60.7885 24.6845 55.7492L24.697 55.7526Z" fill="#3A556A"/>
<path d="M60.0658 58.4102C58.2714 57.9172 55.9732 55.8689 53.7246 51.6751C53.6711 51.5732 53.6456 51.4589 53.6507 51.344C53.6558 51.2291 53.6913 51.1175 53.7536 51.0208C53.8158 50.924 53.9026 50.8456 54.0051 50.7933C54.1075 50.741 54.222 50.7168 54.3369 50.7232C54.6004 50.7956 61.0811 51.2264 62.6344 54.9054C63.3708 56.6461 62.7523 57.8662 61.8327 58.3153C61.2729 58.5523 60.6477 58.5859 60.0658 58.4102ZM55.4973 52.1485C58.1961 56.6685 60.5389 57.474 61.2985 57.1159C61.7486 56.9022 61.8183 56.2061 61.4649 55.3803C60.6137 53.4191 57.5316 52.5049 55.4973 52.1485Z" fill="#3A556A"/>
<path d="M21.484 26.233C15.21 24.5095 12.9232 21.8301 13.3205 19.942C13.5928 18.9507 14.6045 18.068 16.4505 18.3728C20.4507 19.0398 22.3463 25.2554 22.4223 25.5192C22.454 25.6295 22.4547 25.7464 22.4243 25.8571C22.3939 25.9678 22.3336 26.0679 22.25 26.1466C22.1407 26.226 22.0127 26.2758 21.8784 26.2909C21.7442 26.3061 21.6083 26.2861 21.484 26.233ZM16.5371 19.6785L16.2485 19.5992C15.3711 19.4527 14.7031 19.674 14.5972 20.1577C14.3766 20.9608 15.7548 23.0668 20.769 24.6602C20.1055 23.0474 18.6703 20.2645 16.5497 19.682L16.5371 19.6785Z" fill="#3A556A"/>
<path d="M59.3828 37.022L58.6675 36.8255C58.555 36.7942 58.4536 36.732 58.3746 36.6459C58.2957 36.5598 58.2425 36.4533 58.221 36.3385C58.1922 36.228 58.1929 36.1118 58.2231 36.0017C58.2534 35.8916 58.3121 35.7914 58.3934 35.7111C58.5935 35.5232 63.4781 31.2511 67.301 32.7601C69.0493 33.4698 69.4659 34.7043 69.1798 35.7458C68.487 37.5797 65.2301 38.6283 59.3828 37.022ZM66.4418 33.8736C64.3463 33.2979 61.6955 34.8909 60.283 35.9063C65.3298 37.1847 67.6052 36.1229 67.8989 35.2995C68.0299 34.8226 67.6223 34.2923 66.7966 33.9576L66.4418 33.8736Z" fill="#3A556A"/>
<path d="M9.1982 43.9372C8.57053 43.7921 8.01897 43.4194 7.65022 42.8911C7.10168 42.0387 7.23434 40.6717 8.76227 39.58C12.1026 37.2454 17.8036 40.2689 17.9871 40.3868C18.0908 40.4406 18.1777 40.522 18.2383 40.622C18.2989 40.7219 18.3309 40.8366 18.3307 40.9535C18.3345 41.0691 18.3067 41.1835 18.2504 41.2845C18.1942 41.3855 18.1115 41.4694 18.0112 41.527C14.0043 43.881 10.98 44.4267 9.1982 43.9372ZM14.3886 40.3699C12.7573 39.9218 10.8175 39.7128 9.52385 40.6394C8.78905 41.1528 8.48086 41.7833 8.74603 42.1936C9.21266 42.902 11.6153 43.4406 16.2865 41.0262C15.6695 40.7646 15.0354 40.5454 14.3886 40.3699Z" fill="#3A556A"/>
<path d="M40.8912 69.1612L40.7657 69.1267C38.8713 68.4578 37.8528 64.9932 39.7064 58.6875C39.7404 58.5764 39.8035 58.4764 39.8891 58.3978C39.9747 58.3193 40.0798 58.2652 40.1935 58.241C40.304 58.2122 40.4202 58.2129 40.5303 58.2431C40.6404 58.2734 40.7406 58.3321 40.8209 58.4134C41.0088 58.6135 45.2774 63.5107 43.7719 67.321C43.0487 68.9711 41.8449 69.4232 40.8912 69.1612ZM40.6291 60.2905C39.3507 65.3372 40.4124 67.6127 41.2359 67.9064C41.7253 68.0408 42.2431 67.6297 42.5778 66.804C43.4104 64.6576 41.6603 61.8422 40.6165 60.287L40.6291 60.2905Z" fill="#3A556A"/>
<path d="M35.3767 18.3496C35.2139 18.3032 35.0744 18.1975 34.9858 18.0533C31.7173 12.3647 31.9465 8.73009 33.6228 7.63867C34.4878 7.09358 35.8583 7.21365 36.9465 8.75413C39.2812 12.0945 36.2576 17.7954 36.1397 17.9789C36.0859 18.0827 36.0045 18.1696 35.9046 18.2302C35.8046 18.2908 35.6899 18.3227 35.573 18.3226C35.5107 18.3472 35.4434 18.3565 35.3767 18.3496ZM34.8706 8.69668C34.7803 8.66911 34.6851 8.66075 34.5913 8.67218C34.4975 8.6836 34.4072 8.71455 34.3261 8.76301C33.6211 9.21709 33.079 11.6322 35.4934 16.3035C36.2019 14.6088 37.2236 11.3808 35.8802 9.54083C35.6445 9.15706 35.2901 8.86067 34.8706 8.69668Z" fill="#3A556A"/>
</g>
</svg>
