<svg width="59" height="77" viewBox="0 0 59 77" fill="none" xmlns="http://www.w3.org/2000/svg">
<path d="M24.0984 20.2595C22.6743 20.6639 21.1623 20.6369 19.7535 20.1819C18.3448 19.727 17.1025 18.8645 16.1839 17.7036C15.2653 16.5426 14.7116 15.1353 14.5928 13.6597C14.474 12.1841 14.7955 10.7063 15.5165 9.4134C16.2376 8.12046 17.3258 7.07036 18.6436 6.39591C19.9615 5.72145 21.4498 5.45295 22.9202 5.62432C24.3907 5.79569 25.7773 6.39927 26.9047 7.35869C28.0322 8.31812 28.8498 9.59028 29.2541 11.0144C29.7941 12.924 29.5545 14.9699 28.588 16.703C27.6214 18.4362 26.0068 19.7152 24.0984 20.2595ZM20.2406 6.67396C18.9758 7.03312 17.846 7.75936 16.994 8.76081C16.1421 9.76225 15.6063 10.9939 15.4546 12.2999C15.3028 13.6059 15.5418 14.9276 16.1413 16.0978C16.7409 17.2679 17.674 18.2339 18.8228 18.8735C19.9715 19.5132 21.2841 19.7978 22.5946 19.6912C23.9051 19.5847 25.1545 19.0918 26.1848 18.275C27.2151 17.4582 27.98 16.3542 28.3827 15.1025C28.7853 13.8509 28.8077 12.5079 28.4469 11.2436C27.9637 9.55004 26.828 8.11753 25.2893 7.26071C23.7507 6.4039 21.9348 6.19288 20.2406 6.67396Z" fill="#3A556A"/>
<path d="M23.2206 17.168C22.4079 17.3987 21.5451 17.3833 20.7412 17.1237C19.9373 16.8641 19.2285 16.3719 18.7043 15.7095C18.1801 15.047 17.8642 14.244 17.7964 13.4019C17.7286 12.5599 17.9121 11.7167 18.3235 10.9789C18.735 10.2411 19.3559 9.64187 20.1079 9.25701C20.8599 8.87215 21.7092 8.71894 22.5482 8.81673C23.3873 8.91452 24.1786 9.25892 24.8219 9.8064C25.4653 10.3539 25.9318 11.0798 26.1626 11.8924C26.472 12.9821 26.3359 14.1502 25.7841 15.1395C25.2324 16.1288 24.3103 16.8585 23.2206 17.168ZM21.1186 9.76577C20.4653 9.95129 19.8817 10.3265 19.4417 10.8438C19.0017 11.3612 18.7251 11.9974 18.6469 12.6721C18.5687 13.3467 18.6924 14.0294 19.0024 14.6337C19.3123 15.238 19.7946 15.7367 20.3882 16.0668C20.9818 16.3968 21.6599 16.5434 22.3368 16.4878C23.0136 16.4323 23.6588 16.1772 24.1907 15.7548C24.7225 15.3324 25.117 14.7617 25.3243 14.115C25.5317 13.4683 25.5425 12.7745 25.3554 12.1217C25.2323 11.6885 25.0251 11.2838 24.7455 10.9309C24.4658 10.5779 24.1193 10.2836 23.7258 10.0647C23.3322 9.84591 22.8993 9.70683 22.4519 9.65553C22.0046 9.60422 21.5515 9.6417 21.1186 9.76577Z" fill="#3A556A"/>
<path d="M38.4501 70.7996C38.3496 70.827 38.2423 70.8136 38.1516 70.7622C38.0814 70.7298 36.514 69.91 35.2805 67.1636C23.3069 67.1442 16.9309 55.5038 15.6706 52.9394L12.978 55.0997C12.9133 55.1524 12.8343 55.1846 12.7512 55.1922C12.6681 55.1998 12.5846 55.1825 12.5115 55.1424C12.4383 55.1023 12.3787 55.0413 12.3404 54.9672C12.302 54.8931 12.2866 54.8092 12.2962 54.7263L13.8158 41.6463C13.826 41.5658 13.8588 41.4898 13.9106 41.4272C13.9623 41.3646 14.0308 41.318 14.108 41.2929C14.1863 41.2654 14.2714 41.2637 14.3507 41.2884C14.43 41.313 14.4992 41.3626 14.5481 41.4296L21.9168 50.023C21.9679 50.0737 22.0051 50.1368 22.0248 50.206C22.0444 50.2753 22.046 50.3485 22.0292 50.4185C22.0051 50.4847 21.9657 50.5444 21.9141 50.5924C21.8625 50.6404 21.8003 50.6754 21.7325 50.6947L19.1138 51.3336C20.4473 55.6916 22.5555 58.5386 25.3624 59.7914C27.659 60.7267 30.2283 60.7379 32.5329 59.8226L21.3928 20.5918C21.3624 20.4847 21.3757 20.37 21.4299 20.2728C21.4841 20.1756 21.5747 20.104 21.6817 20.0736C21.7888 20.0432 21.9035 20.0565 22.0007 20.1107C22.0979 20.1649 22.1696 20.2555 22.2 20.3626L33.4571 60.0051C33.4858 60.1002 33.4798 60.2024 33.4402 60.2935C33.4005 60.3847 33.3298 60.4588 33.2407 60.5027C31.9516 61.0731 30.5606 61.3772 29.1511 61.3967C27.7416 61.4162 26.3427 61.1507 25.0383 60.6162C21.9008 59.213 19.5995 56.0545 18.1999 51.218C18.1692 51.1089 18.1831 50.9919 18.2385 50.893C18.2998 50.7963 18.3948 50.7258 18.5051 50.6952L20.8874 50.1147L14.5495 42.6941L13.2544 53.8L15.5638 51.9491C15.6111 51.9058 15.6678 51.8741 15.7295 51.8566C15.7911 51.8391 15.856 51.8362 15.919 51.8483C15.9815 51.8652 16.0395 51.8956 16.089 51.9373C16.1385 51.979 16.1783 52.031 16.2056 52.0896C16.2492 52.243 22.5242 66.4768 35.5424 66.3042C35.626 66.3023 35.7084 66.3255 35.7787 66.3708C35.8491 66.4161 35.9043 66.4815 35.9373 66.5584C37.0534 69.1986 38.5079 69.9893 38.5263 69.9928C38.5748 70.0196 38.6175 70.0557 38.652 70.0991C38.6865 70.1424 38.712 70.1922 38.7271 70.2455C38.7423 70.2988 38.7467 70.3545 38.7402 70.4095C38.7336 70.4645 38.7163 70.5177 38.6891 70.566C38.6666 70.6187 38.6339 70.6664 38.5929 70.7065C38.5519 70.7466 38.5033 70.7782 38.4501 70.7996Z" fill="#3A556A"/>
<path d="M38.45 70.7996C38.339 70.8276 38.2215 70.8109 38.1227 70.753C38.0742 70.7262 38.0315 70.6901 37.9971 70.6467C37.9626 70.6034 37.9371 70.5536 37.922 70.5003C37.9068 70.447 37.9024 70.3913 37.9089 70.3363C37.9155 70.2813 37.9328 70.2281 37.96 70.1799C37.96 70.1799 38.7876 68.7323 38.3496 65.8996C38.3372 65.8168 38.3498 65.7322 38.3859 65.6567C38.422 65.5812 38.4798 65.5181 38.552 65.4757C49.7434 58.8085 47.5599 43.3781 47.5325 43.2201C47.5249 43.1559 47.5314 43.0907 47.5516 43.0292C47.5719 42.9677 47.6052 42.9114 47.6495 42.8641C47.6967 42.8208 47.7534 42.7891 47.8151 42.7716C47.8768 42.7541 47.9417 42.7512 48.0046 42.7633L50.9421 43.1242L44.0209 34.3253L42.5012 43.9335L44.8331 43.1754C44.8881 43.1582 44.9461 43.1526 45.0034 43.1589C45.0607 43.1651 45.1161 43.1831 45.1661 43.2117C45.2164 43.2396 45.2606 43.2774 45.296 43.3229C45.3314 43.3683 45.3572 43.4203 45.372 43.476C46.6885 49.0949 46.2367 53.3405 44.0042 56.0767C43.1924 57.0441 42.1834 57.8269 41.0447 58.3729C39.906 58.9189 38.6639 59.2154 37.4013 59.2427C37.3099 59.2449 37.2203 59.216 37.1475 59.1605C37.0747 59.1051 37.0229 59.0265 37.0007 58.9378L25.7597 19.3518C25.7293 19.2447 25.7427 19.13 25.7969 19.0328C25.851 18.9356 25.9416 18.8639 26.0487 18.8335C26.1557 18.8031 26.2704 18.8165 26.3676 18.8707C26.4648 18.9249 26.5365 19.0155 26.5669 19.1225L37.7277 58.426C38.811 58.3502 39.8683 58.059 40.8377 57.5696C41.8071 57.0801 42.6692 56.4022 43.3733 55.5755C45.3553 53.0936 45.7869 49.2375 44.6552 44.1157L42.1077 44.9437C42.04 44.9644 41.9683 44.9681 41.8989 44.9543C41.8296 44.9405 41.7647 44.9097 41.7101 44.8647C41.659 44.814 41.6219 44.751 41.6022 44.6817C41.5825 44.6124 41.581 44.5392 41.5978 44.4692L43.3506 33.2857C43.3556 33.2025 43.388 33.1232 43.4427 33.0603C43.4975 32.9975 43.5714 32.9545 43.6532 32.938C43.7321 32.9188 43.8148 32.9225 43.8917 32.9485C43.9686 32.9746 44.0365 33.0219 44.0875 33.0851L52.2545 43.4145C52.3067 43.4779 52.3387 43.5555 52.3464 43.6373C52.354 43.7191 52.3371 43.8013 52.2976 43.8733C52.2564 43.9461 52.1948 44.0053 52.1204 44.0435C52.046 44.0817 51.962 44.0972 51.8788 44.0882L48.4527 43.6654C48.7282 46.5094 49.4214 59.7636 39.2449 66.0728C39.6389 69.0576 38.7362 70.5788 38.6935 70.6433C38.6345 70.7238 38.5477 70.7795 38.45 70.7996Z" fill="#3A556A"/>
<path d="M23.1807 25.4136L15.2054 27.6783C15.0983 27.7087 14.9836 27.6953 14.8864 27.6412C14.7892 27.587 14.7175 27.4964 14.6871 27.3893L14.0591 25.1775C14.0287 25.0705 14.042 24.9557 14.0962 24.8586C14.1504 24.7614 14.241 24.6897 14.3481 24.6593L22.3476 22.3877C22.4547 22.3573 22.5694 22.3707 22.6666 22.4249C22.7638 22.4791 22.8354 22.5697 22.8658 22.6767L23.4939 24.8885C23.5096 24.9436 23.514 25.0013 23.5065 25.0581C23.4991 25.1149 23.4802 25.1696 23.4508 25.2188C23.4215 25.268 23.3824 25.3106 23.3359 25.3441C23.2894 25.3776 23.2366 25.4013 23.1807 25.4136ZM15.3555 26.7634L22.5479 24.721L22.149 23.3164L14.9567 25.3588L15.3555 26.7634Z" fill="#3A556A"/>
<path d="M35.6039 21.8859L27.5963 24.1598C27.4892 24.1901 27.3745 24.1768 27.2773 24.1226C27.1801 24.0684 27.1084 23.9778 27.078 23.8708L26.45 21.659C26.4218 21.552 26.4362 21.4383 26.4901 21.3417C26.5439 21.2451 26.6332 21.173 26.739 21.1408L34.7466 18.8669C34.8536 18.8365 34.9684 18.8498 35.0655 18.904C35.1627 18.9582 35.2344 19.0488 35.2648 19.1559L35.8929 21.3677C35.9233 21.4747 35.9099 21.5894 35.8557 21.6866C35.8015 21.7838 35.7109 21.8555 35.6039 21.8859ZM27.7706 23.2379L34.971 21.1933L34.5722 19.7887L27.3718 21.8334L27.7706 23.2379Z" fill="#3A556A"/>
<path d="M11.8593 31.9612C10.9492 32.2196 9.98303 32.2023 9.08281 31.9116C8.18259 31.6209 7.38878 31.0697 6.80179 30.3279C6.2148 29.586 5.861 28.6868 5.78508 27.7438C5.70917 26.8009 5.91458 25.8566 6.37533 25.0304C6.83609 24.2042 7.5315 23.5332 8.37362 23.1022C9.21574 22.6712 10.1667 22.4996 11.1064 22.6091C12.046 22.7186 12.9321 23.1043 13.6525 23.7174C14.373 24.3305 14.8954 25.1434 15.1539 26.0534C15.5004 27.2737 15.3479 28.5817 14.7301 29.6896C14.1122 30.7975 13.0796 31.6146 11.8593 31.9612ZM9.47536 23.5661C8.72499 23.7791 8.05466 24.21 7.54913 24.804C7.04361 25.3981 6.72559 26.1287 6.6353 26.9035C6.545 27.6783 6.68649 28.4624 7.04186 29.1568C7.39723 29.8512 7.95053 30.4246 8.63179 30.8045C9.31305 31.1845 10.0917 31.3538 10.8692 31.2912C11.6467 31.2286 12.3882 30.9369 12.9999 30.4529C13.6116 29.9688 14.0661 29.3143 14.3058 28.572C14.5455 27.8298 14.5597 27.033 14.3466 26.2827C14.2052 25.7844 13.9669 25.319 13.6456 24.9128C13.3242 24.5067 12.926 24.1677 12.4736 23.9155C12.0213 23.6632 11.5237 23.5026 11.0092 23.4426C10.4948 23.3826 9.97358 23.4246 9.47536 23.5661Z" fill="#3A556A"/>
<path d="M40.6931 23.7727C39.7831 24.0311 38.8169 24.0139 37.9167 23.7231C37.0164 23.4324 36.2226 22.8813 35.6356 22.1394C35.0486 21.3975 34.6948 20.4983 34.6189 19.5554C34.543 18.6124 34.7484 17.6681 35.2092 16.8419C35.6699 16.0157 36.3653 15.3447 37.2075 14.9137C38.0496 14.4827 39.0006 14.3111 39.9402 14.4206C40.8799 14.5301 41.7659 14.9158 42.4864 15.5289C43.2068 16.142 43.7293 16.9549 43.9877 17.865C44.3342 19.0853 44.1818 20.3932 43.5639 21.5012C42.9461 22.6091 41.9134 23.4262 40.6931 23.7727ZM38.3092 15.3776C37.5588 15.5907 36.8885 16.0215 36.383 16.6155C35.8774 17.2096 35.5594 17.9402 35.4691 18.715C35.3788 19.4898 35.5203 20.274 35.8757 20.9683C36.2311 21.6627 36.7844 22.2361 37.4656 22.6161C38.1469 22.996 38.9255 23.1653 39.703 23.1027C40.4806 23.0401 41.222 22.7484 41.8338 22.2644C42.4455 21.7804 42.8999 21.1259 43.1396 20.3836C43.3794 19.6413 43.3936 18.8446 43.1805 18.0942C43.039 17.596 42.8008 17.1305 42.4794 16.7243C42.158 16.3182 41.7598 15.9793 41.3075 15.727C40.8551 15.4747 40.3575 15.3141 39.8431 15.2541C39.3286 15.1942 38.8074 15.2361 38.3092 15.3776Z" fill="#3A556A"/>
</svg>
