<svg width="41" height="41" viewBox="0 0 41 41" fill="none" xmlns="http://www.w3.org/2000/svg">
<path fill-rule="evenodd" clip-rule="evenodd" d="M20.5 41C31.8218 41 41 31.8218 41 20.5C41 9.17816 31.8218 0 20.5 0C9.17816 0 0 9.17816 0 20.5C0 31.8218 9.17816 41 20.5 41Z" fill="white"/>
<path fill-rule="evenodd" clip-rule="evenodd" d="M23.5371 16.2445C23.217 16.1432 22.8489 16.0757 22.5129 16.0757C22.0968 16.0757 21.2006 16.3626 21.2006 16.9195V18.2527H23.329V20.4971H21.2006V26.6905H19.0562V20.4971H18V18.2527H19.0562V17.122C19.0562 15.4176 19.7923 14 21.5687 14C22.1768 14 23.265 14.0338 23.8571 14.2531L23.5371 16.2445Z" fill="black"/>
</svg>
