<svg width="51" height="52" viewBox="0 0 51 52" fill="none" xmlns="http://www.w3.org/2000/svg">
<rect y="0.283569" width="50.3316" height="51.4025" rx="13.9215" fill="#F0BB1F"/>
<path d="M14.5047 18.9978C14.1871 18.9978 13.9273 18.738 13.9215 18.4204V14.7883C13.9215 14.4649 14.1814 14.2051 14.5047 14.2051H18.1368C18.4544 14.2051 18.7143 14.4649 18.7143 14.7883V16.0529H32.6883V14.7883C32.6883 14.4707 32.9481 14.2109 33.2657 14.2051H36.8978C37.2154 14.2051 37.4752 14.4649 37.481 14.7883V18.4204C37.481 18.738 37.2212 18.9978 36.8978 18.9978H35.6332V32.9718H36.8978C37.2154 32.9718 37.4752 33.2317 37.481 33.5493V37.1814C37.481 37.499 37.2212 37.7588 36.8978 37.7646H33.2657C32.9481 37.7646 32.6883 37.5047 32.6883 37.1814V35.9168H18.7143V37.1814C18.7143 37.499 18.4544 37.7588 18.1368 37.7646H14.5047C14.1871 37.7646 13.9273 37.5047 13.9215 37.1814V33.5493C13.9215 33.2317 14.1814 32.9718 14.5047 32.9718H15.7693V18.9978H14.5047ZM36.3261 17.8429V15.36H33.8432V17.8429H36.3261ZM33.8432 36.6097H36.3261V34.1267H33.8432V36.6097ZM18.7143 33.5493V34.7619H32.6883V33.5493C32.6883 33.2317 32.9481 32.9718 33.2657 32.9718H34.4783V18.9978H33.2657C32.9481 18.9978 32.6883 18.738 32.6883 18.4204V17.2078H18.7143V18.4204C18.7143 18.738 18.4544 18.9978 18.1368 18.9978H16.9242V32.9718H18.1368C18.4544 32.9718 18.7143 33.2317 18.7143 33.5493ZM15.0764 34.1267V36.6097H17.5594V34.1267H15.0764ZM17.5594 17.8429V15.36H15.0764V17.8429H17.5594Z" fill="white"/>
</svg>
