<svg width="51" height="52" viewBox="0 0 51 52" fill="none" xmlns="http://www.w3.org/2000/svg">
<rect y="0.222778" width="50.3316" height="51.4025" rx="13.9215" fill="#F15A2B"/>
<path d="M35.1447 34.4148C34.6627 34.4246 34.1892 34.2867 33.7878 34.0195C33.489 33.8243 33.1399 33.7204 32.783 33.7204C32.4261 33.7204 32.077 33.8243 31.7782 34.0195C31.3728 34.2777 30.9021 34.4148 30.4214 34.4148C29.9408 34.4148 29.4701 34.2777 29.0647 34.0195C28.7659 33.8241 28.4167 33.7201 28.0597 33.7201C27.7027 33.7201 27.3535 33.8241 27.0547 34.0195C26.6493 34.2777 26.1786 34.4148 25.698 34.4148C25.2173 34.4148 24.7466 34.2777 24.3412 34.0195C24.0426 33.8243 23.6937 33.7202 23.3369 33.7202C22.9802 33.7202 22.6312 33.8243 22.3327 34.0195C21.9651 34.2638 21.5361 34.3996 21.0948 34.4113L21.0705 33.7167C21.3964 33.7089 21.7129 33.6058 21.9808 33.4201C22.3862 33.162 22.8567 33.0249 23.3373 33.0249C23.8178 33.0249 24.2884 33.162 24.6937 33.4201C24.9924 33.6154 25.3416 33.7194 25.6985 33.7194C26.0554 33.7194 26.4045 33.6154 26.7033 33.4201C27.1088 33.1618 27.5796 33.0245 28.0604 33.0245C28.5412 33.0245 29.012 33.1618 29.4175 33.4201C29.7163 33.6154 30.0654 33.7194 30.4223 33.7194C30.7792 33.7194 31.1284 33.6154 31.4271 33.4201C31.8326 33.162 32.3032 33.025 32.7839 33.025C33.2645 33.025 33.7352 33.162 34.1407 33.4201C34.4401 33.6158 34.7901 33.7201 35.1479 33.7201C35.5056 33.7201 35.8556 33.6158 36.1551 33.4201C36.556 33.1537 37.0287 33.016 37.51 33.0255V33.7202C37.1516 33.7103 36.7995 33.8151 36.5048 34.0192C36.1025 34.2868 35.6279 34.4248 35.1447 34.4148Z" fill="white"/>
<path d="M16.2543 34.4147C15.7723 34.4247 15.2989 34.2868 14.8977 34.0195C14.6031 33.8152 14.2509 33.7104 13.8926 33.7201V33.0255C14.3747 33.0155 14.8482 33.1534 15.2495 33.4207C15.544 33.6251 15.896 33.7299 16.2543 33.7201C16.6127 33.73 16.9649 33.6249 17.2594 33.4204C17.6599 33.1532 18.1327 33.0154 18.614 33.0255C19.0836 33.0149 19.5454 33.1465 19.939 33.403L19.5885 34.0025C19.3011 33.809 18.9603 33.7103 18.614 33.7201C18.257 33.7105 17.9063 33.8151 17.613 34.0188C17.2113 34.2868 16.7371 34.425 16.2543 34.4147Z" fill="white"/>
<path d="M35.1458 31.9833C34.6634 31.9931 34.1895 31.8552 33.7878 31.5881C33.4888 31.3927 33.1393 31.2886 32.7821 31.2886C32.4249 31.2886 32.0755 31.3927 31.7765 31.5881C31.3711 31.8461 30.9005 31.9832 30.4199 31.9832C29.9393 31.9832 29.4687 31.8461 29.0633 31.5881C28.7647 31.3928 28.4156 31.2888 28.0588 31.2888C27.702 31.2888 27.353 31.3928 27.0544 31.5881C26.649 31.8462 26.1784 31.9833 25.6978 31.9833C25.2172 31.9833 24.7466 31.8462 24.3412 31.5881C24.0426 31.3928 23.6935 31.2888 23.3367 31.2888C22.98 31.2888 22.6309 31.3928 22.3323 31.5881C21.9311 31.8554 21.4577 31.9933 20.9757 31.9833C20.4937 31.9933 20.0203 31.8554 19.6191 31.5881C19.3247 31.3838 18.9728 31.2789 18.6147 31.2887C18.2566 31.2789 17.9048 31.3838 17.6106 31.5881C17.21 31.8551 16.7373 31.993 16.256 31.9833C15.774 31.9933 15.3004 31.8554 14.8991 31.5881C14.6041 31.3834 14.2514 31.2785 13.8926 31.2887V30.594C14.3745 30.5841 14.848 30.722 15.2492 30.9893C15.5438 31.1935 15.8959 31.2984 16.2543 31.2887C16.6124 31.2984 16.9641 31.1935 17.2584 30.9893C17.6589 30.7223 18.1316 30.5843 18.6129 30.594C19.0952 30.5838 19.5691 30.7217 19.9706 30.9893C20.265 31.1936 20.6171 31.2985 20.9754 31.2887C21.3336 31.2985 21.6857 31.1936 21.9801 30.9893C22.3855 30.7311 22.8561 30.594 23.3367 30.594C23.8174 30.594 24.288 30.7311 24.6934 30.9893C24.992 31.1846 25.3411 31.2886 25.698 31.2886C26.0548 31.2886 26.4039 31.1846 26.7026 30.9893C27.1079 30.7311 27.5786 30.594 28.0592 30.594C28.5398 30.594 29.0104 30.7311 29.4158 30.9893C29.7144 31.1846 30.0636 31.2886 30.4204 31.2886C30.7772 31.2886 31.1264 31.1846 31.425 30.9893C31.8308 30.7312 32.3017 30.5941 32.7827 30.5941C33.2636 30.5941 33.7345 30.7312 34.1403 30.9893C34.4395 31.1845 34.789 31.2885 35.1463 31.2885C35.5036 31.2885 35.8531 31.1845 36.1523 30.9893C36.554 30.7222 37.0277 30.5843 37.51 30.594V31.2887C37.1509 31.2785 36.798 31.3834 36.5027 31.5881C36.1013 31.855 35.6278 31.9929 35.1458 31.9833Z" fill="white"/>
<path d="M35.1447 29.5523C34.6627 29.5622 34.1892 29.4243 33.7878 29.1571C33.4932 28.9529 33.141 28.848 32.7827 28.8577C32.5197 28.8487 32.2585 28.9048 32.0224 29.021L31.716 28.3958C32.0476 28.2333 32.4135 28.1531 32.7827 28.1621C33.2653 28.1522 33.7394 28.2905 34.141 28.5583C34.4405 28.7541 34.7905 28.8583 35.1482 28.8583C35.506 28.8583 35.856 28.7541 36.1554 28.5583C36.5562 28.2918 37.0287 28.1539 37.51 28.1631V28.8577C37.1516 28.8479 36.7995 28.9527 36.5048 29.1568C36.1025 29.4243 35.6278 29.5624 35.1447 29.5523Z" fill="white"/>
<path d="M30.4178 29.5524C29.9365 29.5625 29.4637 29.4246 29.0633 29.1575C28.7645 28.9621 28.4153 28.858 28.0583 28.858C27.7013 28.858 27.3521 28.9621 27.0534 29.1575C26.6479 29.4156 26.1772 29.5527 25.6966 29.5527C25.2159 29.5527 24.7452 29.4156 24.3398 29.1575C24.0411 28.9622 23.6919 28.8582 23.335 28.8582C22.9781 28.8582 22.629 28.9622 22.3302 29.1575C21.9291 29.4243 21.456 29.5621 20.9743 29.5524C20.4923 29.5623 20.0189 29.4244 19.6177 29.1571C19.3231 28.9529 18.9709 28.848 18.6126 28.8577C18.2556 28.8481 17.9049 28.9528 17.6116 29.1564C17.2104 29.4242 16.7366 29.5624 16.2543 29.5524C15.7723 29.5623 15.2989 29.4244 14.8977 29.1571C14.6031 28.9529 14.2509 28.848 13.8926 28.8577V28.1631C14.3747 28.1531 14.8482 28.291 15.2495 28.5584C15.544 28.7627 15.896 28.8676 16.2543 28.8577C16.6127 28.8676 16.9649 28.7626 17.2594 28.558C17.6599 28.2908 18.1327 28.153 18.614 28.1631C19.0959 28.1532 19.5694 28.2911 19.9706 28.5584C20.265 28.7627 20.6171 28.8676 20.9754 28.8577C21.3337 28.8675 21.6859 28.7626 21.9805 28.5584C22.3859 28.3002 22.8566 28.1631 23.3373 28.1631C23.8179 28.1631 24.2886 28.3002 24.694 28.5584C24.9928 28.7536 25.3419 28.8577 25.6988 28.8577C26.0557 28.8577 26.4049 28.7536 26.7036 28.5584C27.1091 28.3 27.5799 28.1628 28.0607 28.1628C28.5415 28.1628 29.0124 28.3 29.4179 28.5584C29.7239 28.7642 30.0867 28.8688 30.4553 28.8574C30.4821 28.8577 30.5089 28.8563 30.5355 28.8532L30.6279 29.5416C30.5582 29.5497 30.488 29.5533 30.4178 29.5524Z" fill="white"/>
<path d="M35.1458 27.1207C34.6634 27.1306 34.1895 26.9927 33.7878 26.7255C33.4888 26.5301 33.1393 26.426 32.7821 26.426C32.4249 26.426 32.0755 26.5301 31.7765 26.7255C31.3711 26.9836 30.9005 27.1206 30.4199 27.1206C29.9393 27.1206 29.4687 26.9836 29.0633 26.7255C28.7647 26.5302 28.4156 26.4262 28.0588 26.4262C27.702 26.4262 27.353 26.5302 27.0544 26.7255C26.649 26.9836 26.1784 27.1208 25.6978 27.1208C25.2172 27.1208 24.7466 26.9836 24.3412 26.7255C24.0426 26.5302 23.6935 26.4262 23.3367 26.4262C22.98 26.4262 22.6309 26.5302 22.3323 26.7255C21.9311 26.9928 21.4577 27.1308 20.9757 27.1207C20.4937 27.1308 20.0203 26.9928 19.6191 26.7255C19.3247 26.5212 18.9728 26.4163 18.6147 26.4261C18.2566 26.4164 17.9048 26.5213 17.6106 26.7255C17.21 26.9925 16.7373 27.1304 16.256 27.1207C15.774 27.1308 15.3004 26.9928 14.8991 26.7255C14.6041 26.5208 14.2514 26.4159 13.8926 26.4261V25.7315C14.3745 25.7215 14.848 25.8595 15.2492 26.1267C15.5438 26.331 15.8959 26.4359 16.2543 26.4261C16.6124 26.4358 16.9641 26.331 17.2584 26.1267C17.6589 25.8597 18.1316 25.7218 18.6129 25.7315C19.0952 25.7212 19.5691 25.8592 19.9706 26.1267C20.265 26.331 20.6171 26.4359 20.9754 26.4261C21.3336 26.4359 21.6857 26.331 21.9801 26.1267C22.3855 25.8685 22.8561 25.7314 23.3367 25.7314C23.8174 25.7314 24.288 25.8685 24.6934 26.1267C24.992 26.322 25.3411 26.4261 25.698 26.4261C26.0548 26.4261 26.4039 26.322 26.7026 26.1267C27.1079 25.8685 27.5786 25.7314 28.0592 25.7314C28.5398 25.7314 29.0104 25.8685 29.4158 26.1267C29.7144 26.322 30.0636 26.4261 30.4204 26.4261C30.7772 26.4261 31.1264 26.322 31.425 26.1267C31.8308 25.8686 32.3017 25.7316 32.7827 25.7316C33.2636 25.7316 33.7345 25.8686 34.1403 26.1267C34.4395 26.322 34.789 26.4259 35.1463 26.4259C35.5036 26.4259 35.8531 26.322 36.1523 26.1267C36.554 25.8596 37.0277 25.7217 37.51 25.7315V26.4261C37.1509 26.416 36.798 26.5209 36.5027 26.7255C36.1013 26.9925 35.6278 27.1304 35.1458 27.1207Z" fill="white"/>
<path d="M30.1966 26.8262L29.5412 26.5963C29.71 26.1114 29.7789 25.5973 29.7439 25.085C29.7089 24.5727 29.5706 24.0728 29.3373 23.6153L26.9516 18.9436C26.928 18.8975 26.9151 18.8466 26.9137 18.7949C26.9124 18.7431 26.9226 18.6916 26.9437 18.6443C26.9647 18.597 26.9961 18.555 27.0355 18.5214C27.075 18.4878 27.1214 18.4634 27.1714 18.4501L31.9258 17.1824C32.0808 17.1418 32.2134 17.0418 32.295 16.904C32.3765 16.7661 32.4003 16.6017 32.3612 16.4464C32.3221 16.2911 32.2233 16.1575 32.0862 16.0747C31.9491 15.9919 31.7849 15.9666 31.6292 16.0043L25.8749 17.3796C25.7519 17.4087 25.6372 17.4657 25.5398 17.5462C25.4424 17.6267 25.3647 17.7286 25.313 17.8439C25.2612 17.9592 25.2367 18.0849 25.2414 18.2112C25.246 18.3375 25.2797 18.4611 25.3397 18.5723L27.0485 21.7468C27.0918 21.8274 27.1016 21.922 27.0755 22.0098C27.0495 22.0976 26.9899 22.1716 26.9096 22.2156L24.7041 23.4312L24.369 22.8227L26.2729 21.7732L24.7288 18.9016C24.6183 18.6966 24.5565 18.4689 24.5481 18.2362C24.5396 18.0035 24.5848 17.772 24.6802 17.5595C24.7755 17.3471 24.9185 17.1594 25.0979 17.011C25.2774 16.8626 25.4886 16.7575 25.7152 16.7038L31.4667 15.3287C31.8015 15.2441 32.1562 15.296 32.4528 15.4729C32.7494 15.6499 32.9636 15.9374 33.0482 16.2722C33.1328 16.6071 33.0809 16.9618 32.904 17.2584C32.727 17.555 32.4395 17.7691 32.1047 17.8537L27.7654 19.0103L29.9562 23.2989C30.2321 23.8403 30.3956 24.4318 30.4369 25.038C30.4782 25.6442 30.3964 26.2525 30.1966 26.8262Z" fill="white"/>
<path d="M23.155 23.4973L18.9343 25.823L19.2694 26.4311L23.49 24.1054L23.155 23.4973Z" fill="white"/>
<path d="M33.3422 24.5159C32.827 24.5159 32.3234 24.3631 31.895 24.0769C31.4666 23.7906 31.1328 23.3838 30.9356 22.9078C30.7384 22.4319 30.6869 21.9081 30.7874 21.4028C30.8879 20.8975 31.136 20.4334 31.5003 20.0691C31.8646 19.7048 32.3287 19.4567 32.834 19.3562C33.3393 19.2557 33.863 19.3073 34.339 19.5044C34.815 19.7016 35.2218 20.0355 35.508 20.4638C35.7943 20.8922 35.947 21.3958 35.947 21.911C35.9463 22.6016 35.6716 23.2638 35.1833 23.7521C34.6949 24.2405 34.0328 24.5151 33.3422 24.5159ZM33.3422 20.0008C32.9644 20.0008 32.595 20.1128 32.2809 20.3227C31.9668 20.5326 31.7219 20.8309 31.5774 21.18C31.4328 21.529 31.3949 21.9131 31.4687 22.2837C31.5424 22.6542 31.7243 22.9946 31.9914 23.2617C32.2586 23.5289 32.599 23.7108 32.9695 23.7845C33.3401 23.8582 33.7241 23.8204 34.0732 23.6758C34.4222 23.5312 34.7206 23.2864 34.9305 22.9723C35.1404 22.6581 35.2524 22.2888 35.2524 21.911C35.2518 21.4046 35.0503 20.9191 34.6922 20.561C34.3341 20.2029 33.8486 20.0014 33.3422 20.0008Z" fill="white"/>
</svg>
