<svg width="51" height="52" viewBox="0 0 51 52" fill="none" xmlns="http://www.w3.org/2000/svg">
<rect y="0.161987" width="50.3316" height="51.4025" rx="13.9215" fill="#006380"/>
<path d="M17.6696 28.1389C17.3519 28.1389 17.0414 28.2331 16.7772 28.4096C16.513 28.5861 16.3071 28.837 16.1856 29.1305C16.064 29.4241 16.0322 29.747 16.0942 30.0586C16.1561 30.3702 16.3091 30.6564 16.5338 30.8811C16.7584 31.1057 17.0446 31.2587 17.3562 31.3207C17.6678 31.3827 17.9908 31.3509 18.2843 31.2293C18.5779 31.1077 18.8287 30.9018 19.0052 30.6377C19.1817 30.3735 19.276 30.063 19.276 29.7452C19.276 29.3192 19.1067 28.9106 18.8055 28.6094C18.5042 28.3082 18.0956 28.1389 17.6696 28.1389ZM17.6696 30.5484C17.5108 30.5484 17.3555 30.5013 17.2234 30.4131C17.0913 30.3248 16.9884 30.1994 16.9276 30.0526C16.8668 29.9058 16.8509 29.7444 16.8819 29.5886C16.9129 29.4328 16.9894 29.2896 17.1017 29.1773C17.214 29.065 17.3571 28.9885 17.5129 28.9575C17.6687 28.9265 17.8302 28.9424 17.977 29.0032C18.1237 29.064 18.2492 29.167 18.3374 29.299C18.4257 29.4311 18.4728 29.5864 18.4728 29.7452C18.4728 29.9583 18.3882 30.1626 18.2375 30.3132C18.0869 30.4638 17.8826 30.5484 17.6696 30.5484Z" fill="white"/>
<path d="M33.7329 28.1389C33.4152 28.1389 33.1046 28.2331 32.8405 28.4096C32.5763 28.5861 32.3704 28.837 32.2489 29.1305C32.1273 29.4241 32.0955 29.747 32.1575 30.0586C32.2194 30.3702 32.3724 30.6564 32.5971 30.8811C32.8217 31.1057 33.1079 31.2587 33.4195 31.3207C33.7311 31.3827 34.0541 31.3509 34.3476 31.2293C34.6411 31.1077 34.892 30.9018 35.0685 30.6377C35.245 30.3735 35.3392 30.063 35.3392 29.7452C35.3392 29.3192 35.17 28.9106 34.8688 28.6094C34.5675 28.3082 34.1589 28.1389 33.7329 28.1389ZM33.7329 30.5484C33.5741 30.5484 33.4188 30.5013 33.2867 30.4131C33.1546 30.3248 33.0517 30.1994 32.9909 30.0526C32.9301 29.9058 32.9142 29.7444 32.9452 29.5886C32.9762 29.4328 33.0527 29.2896 33.165 29.1773C33.2773 29.065 33.4204 28.9885 33.5762 28.9575C33.732 28.9265 33.8935 28.9424 34.0403 29.0032C34.187 29.064 34.3125 29.167 34.4007 29.299C34.489 29.4311 34.5361 29.5864 34.5361 29.7452C34.5361 29.9583 34.4515 30.1626 34.3008 30.3132C34.1502 30.4638 33.9459 30.5484 33.7329 30.5484Z" fill="white"/>
<path d="M22.087 30.1469H29.3155V30.95H22.087V30.1469Z" fill="white"/>
<path d="M22.087 28.5405H29.3155V29.3437H22.087V28.5405Z" fill="white"/>
<path d="M24.4965 22.5167H26.906V23.3199H24.4965V22.5167Z" fill="white"/>
<path d="M37.7487 26.131V25.3279C37.7478 25.0087 37.6205 24.7028 37.3948 24.477C37.1691 24.2513 36.8632 24.1241 36.544 24.1231H34.9537L34.1224 21.2076L33.8735 20.2157C33.8081 19.9553 33.6576 19.7241 33.4459 19.559C33.2342 19.3938 32.9734 19.3041 32.7049 19.3041H29.3155V17.6978C29.3149 17.485 29.23 17.2811 29.0796 17.1306C28.9291 16.9801 28.7252 16.8953 28.5123 16.8947H22.8902C22.6774 16.8953 22.4734 16.9801 22.323 17.1306C22.1725 17.2811 22.0877 17.485 22.087 17.6978V19.3041H18.6977C18.4291 19.3041 18.1683 19.3938 17.9566 19.559C17.7449 19.7241 17.5944 19.9553 17.5291 20.2157L17.2841 21.2036L16.4488 24.1231H14.8585C14.5393 24.1241 14.2334 24.2513 14.0077 24.477C13.782 24.7028 13.6547 25.0087 13.6538 25.3279V26.131C13.6544 26.3345 13.7067 26.5344 13.8058 26.7121C13.9048 26.8898 14.0473 27.0395 14.22 27.147C13.857 27.5201 13.6538 28.02 13.6538 28.5405V33.3595C13.6543 33.528 13.6904 33.6945 13.7596 33.8481C13.8288 34.0017 13.9296 34.139 14.0554 34.251V35.769C14.0563 36.0882 14.1836 36.3941 14.4093 36.6199C14.635 36.8456 14.9409 36.9728 15.2601 36.9738H18.4728C18.792 36.9728 19.0979 36.8456 19.3236 36.6199C19.5493 36.3941 19.6766 36.0882 19.6775 35.769V34.5643H31.725V35.769C31.7259 36.0882 31.8532 36.3941 32.0789 36.6199C32.3046 36.8456 32.6105 36.9728 32.9297 36.9738H36.1424C36.4616 36.9728 36.7675 36.8456 36.9932 36.6199C37.219 36.3941 37.3462 36.0882 37.3471 35.769V34.251C37.473 34.139 37.5737 34.0017 37.6429 33.8481C37.7121 33.6945 37.7482 33.528 37.7487 33.3595V28.5405C37.7487 28.02 37.5455 27.5201 37.1825 27.147C37.3552 27.0395 37.4977 26.8898 37.5967 26.7121C37.6958 26.5344 37.7481 26.3345 37.7487 26.131ZM22.8902 17.6978H28.5123V19.3041H22.8902V17.6978ZM18.3081 20.4125C18.3297 20.3254 18.3797 20.2481 18.4503 20.1928C18.5209 20.1375 18.608 20.1074 18.6977 20.1073H32.7049C32.7945 20.1074 32.8816 20.1375 32.9522 20.1928C33.0228 20.2481 33.0729 20.3254 33.0944 20.4125L33.2189 20.9105H18.1836L18.3081 20.4125ZM17.9708 21.7136H33.4317L34.8051 26.5326H23.2556C23.1612 25.9714 22.871 25.4618 22.4365 25.0943C22.002 24.7268 21.4514 24.5251 20.8823 24.5251C20.3132 24.5251 19.7625 24.7268 19.328 25.0943C18.8935 25.4618 18.6033 25.9714 18.5089 26.5326H16.5974L17.9708 21.7136ZM22.4324 26.5326H19.3322C19.4198 26.188 19.6198 25.8825 19.9006 25.6643C20.1813 25.446 20.5267 25.3276 20.8823 25.3276C21.2378 25.3276 21.5833 25.446 21.864 25.6643C22.1447 25.8825 22.3447 26.188 22.4324 26.5326ZM14.457 25.3279C14.457 25.2214 14.4993 25.1192 14.5746 25.0439C14.6499 24.9686 14.752 24.9263 14.8585 24.9263H16.2199L15.7621 26.5326H14.8585C14.752 26.5326 14.6499 26.4903 14.5746 26.415C14.4993 26.3397 14.457 26.2376 14.457 26.131V25.3279ZM18.8744 35.769C18.8744 35.8755 18.8321 35.9777 18.7567 36.053C18.6814 36.1283 18.5793 36.1706 18.4728 36.1706H15.2601C15.1536 36.1706 15.0515 36.1283 14.9762 36.053C14.9008 35.9777 14.8585 35.8755 14.8585 35.769V34.5643H18.8744V35.769ZM36.544 35.769C36.544 35.8755 36.5017 35.9777 36.4264 36.053C36.3511 36.1283 36.2489 36.1706 36.1424 36.1706H32.9297C32.8232 36.1706 32.7211 36.1283 32.6458 36.053C32.5705 35.9777 32.5282 35.8755 32.5282 35.769V34.5643H36.544V35.769ZM36.9456 33.3595C36.9456 33.466 36.9033 33.5682 36.8279 33.6435C36.7526 33.7188 36.6505 33.7611 36.544 33.7611H14.8585C14.752 33.7611 14.6499 33.7188 14.5746 33.6435C14.4993 33.5682 14.457 33.466 14.457 33.3595V32.9579H36.9456V33.3595ZM36.9456 32.1548H14.457V28.5405C14.4579 28.2213 14.5851 27.9154 14.8109 27.6897C15.0366 27.464 15.3425 27.3367 15.6617 27.3358H35.7408C36.06 27.3367 36.3659 27.464 36.5917 27.6897C36.8174 27.9154 36.9446 28.2213 36.9456 28.5405V32.1548ZM36.9456 26.131C36.9456 26.2376 36.9033 26.3397 36.8279 26.415C36.7526 26.4903 36.6505 26.5326 36.544 26.5326H35.6404L35.1826 24.9263H36.544C36.6505 24.9263 36.7526 24.9686 36.8279 25.0439C36.9033 25.1192 36.9456 25.2214 36.9456 25.3279V26.131Z" fill="white"/>
</svg>
