<svg width="45" height="45" viewBox="0 0 45 45" fill="none" xmlns="http://www.w3.org/2000/svg">
<path fill-rule="evenodd" clip-rule="evenodd" d="M22.5 45C34.9264 45 45 34.9264 45 22.5C45 10.0736 34.9264 0 22.5 0C10.0736 0 0 10.0736 0 22.5C0 34.9264 10.0736 45 22.5 45Z" fill="white"/>
<g clip-path="url(#clip0_6_145)">
<path d="M28.6562 14H17.3438C16.0516 14 15 15.0516 15 16.3438V27.6562C15 28.9488 16.0516 30 17.3438 30H28.6562C29.9488 30 31 28.9488 31 27.6562V16.3438C31 15.0516 29.9488 14 28.6562 14ZM30.0625 27.6562C30.0625 28.4316 29.4316 29.0625 28.6562 29.0625H17.3438C16.5684 29.0625 15.9375 28.4316 15.9375 27.6562V16.3438C15.9375 15.5684 16.5684 14.9375 17.3438 14.9375H28.6562C29.4316 14.9375 30.0625 15.5684 30.0625 16.3438V27.6562Z" fill="black"/>
<path d="M28.1562 15.9062C27.6394 15.9062 27.2188 16.3269 27.2188 16.8438C27.2188 17.3606 27.6394 17.7812 28.1562 17.7812C28.6731 17.7812 29.0938 17.3606 29.0938 16.8438C29.0938 16.3269 28.6731 15.9062 28.1562 15.9062Z" fill="black"/>
<path d="M23 17.7812C20.6737 17.7812 18.7812 19.6737 18.7812 22C18.7812 24.3263 20.6737 26.2188 23 26.2188C25.3263 26.2188 27.2188 24.3263 27.2188 22C27.2188 19.6737 25.3263 17.7812 23 17.7812ZM23 25.2812C21.1906 25.2812 19.7188 23.8094 19.7188 22C19.7188 20.1906 21.1906 18.7188 23 18.7188C24.8094 18.7188 26.2812 20.1906 26.2812 22C26.2812 23.8094 24.8094 25.2812 23 25.2812Z" fill="black"/>
</g>
<defs>
<clipPath id="clip0_6_145">
<rect width="16" height="16" fill="white" transform="translate(15 14)"/>
</clipPath>
</defs>
</svg>
