<svg width="55" height="55" viewBox="0 0 55 55" fill="none" xmlns="http://www.w3.org/2000/svg">
<circle cx="27.5" cy="27.5" r="27.5" fill="url(#paint0_linear_6_62)"/>
<path d="M27.5 27.5C28.3021 27.5 28.9889 27.2141 29.5606 26.6425C30.1313 26.0718 30.4166 25.3854 30.4166 24.5833C30.4166 23.7812 30.1313 23.0943 29.5606 22.5227C28.9889 21.952 28.3021 21.6666 27.5 21.6666C26.6979 21.6666 26.0115 21.952 25.4408 22.5227C24.8691 23.0943 24.5833 23.7812 24.5833 24.5833C24.5833 25.3854 24.8691 26.0718 25.4408 26.6425C26.0115 27.2141 26.6979 27.5 27.5 27.5ZM27.5 38.2187C30.4653 35.4965 32.6649 33.0232 34.0989 30.7987C35.533 28.5752 36.25 26.6007 36.25 24.875C36.25 22.2257 35.4051 20.0561 33.7154 18.3664C32.0266 16.6777 29.9548 15.8333 27.5 15.8333C25.0451 15.8333 22.9728 16.6777 21.2831 18.3664C19.5944 20.0561 18.75 22.2257 18.75 24.875C18.75 26.6007 19.467 28.5752 20.901 30.7987C22.335 33.0232 24.5347 35.4965 27.5 38.2187ZM27.5 42.0833C23.5868 38.7534 20.6643 35.6603 18.7325 32.8039C16.7997 29.9485 15.8333 27.3055 15.8333 24.875C15.8333 21.2291 17.0063 18.3246 19.3523 16.1614C21.6973 13.9982 24.4132 12.9166 27.5 12.9166C30.5868 12.9166 33.3027 13.9982 35.6477 16.1614C37.9937 18.3246 39.1666 21.2291 39.1666 24.875C39.1666 27.3055 38.2007 29.9485 36.2689 32.8039C34.3362 35.6603 31.4132 38.7534 27.5 42.0833Z" fill="white"/>
<defs>
<linearGradient id="paint0_linear_6_62" x1="-18" y1="-49.5" x2="43" y2="55" gradientUnits="userSpaceOnUse">
<stop stop-color="white"/>
<stop offset="1" stop-color="white" stop-opacity="0"/>
</linearGradient>
</defs>
</svg>
