<svg width="114" height="30" viewBox="0 0 114 30" fill="none" xmlns="http://www.w3.org/2000/svg">
<path d="M0.796478 11.3326V3.6574H23.0618V11.3326H20.8533L19.369 6.44509H14.8797V26.1761L18.2105 26.9726V29H5.64777V26.9726L8.97852 26.1761V6.44509H4.45305L2.9687 11.3326H0.796478Z" fill="black"/>
<path d="M24.7034 29V27.0812L27.7807 26.3571V14.1927H24.7034V12.2739L30.496 10.8981H33.3561V13.0704C35.1662 11.2602 37.3143 10.3551 39.8003 10.3551C39.9451 10.8137 40.0175 11.3205 40.0175 11.8756C40.0175 12.9859 39.8969 14.0237 39.6555 14.9892L35.0938 14.2289C34.5146 14.4944 33.9353 14.8806 33.3561 15.3874V26.3571L37.1574 27.0812V29H24.7034Z" fill="black"/>
<path d="M41.6031 24.5107C41.6031 22.4109 42.46 20.818 44.1736 19.7318C45.9114 18.6216 48.7111 18.0665 52.5729 18.0665V16.9804C52.5729 16.2563 52.5608 15.7374 52.5367 15.4236C52.5367 15.0857 52.4884 14.6875 52.3918 14.2289C52.2953 13.7703 52.1505 13.4445 51.9574 13.2514C51.7885 13.0583 51.523 12.8893 51.1609 12.7445C50.7989 12.5756 50.3524 12.4911 49.8214 12.4911L45.2235 16.4735C43.5823 15.5322 42.7617 14.072 42.7617 12.0929L43.8478 11.6222C44.3064 11.4291 45.1994 11.1757 46.5268 10.8619C47.8543 10.524 49.1456 10.3551 50.4006 10.3551C55.5898 10.3551 58.1844 12.4308 58.1844 16.5821V26.2847H61.0083V27.8415C60.8877 27.9622 60.7187 28.119 60.5015 28.3121C60.2843 28.5052 59.8136 28.7586 59.0895 29.0724C58.3655 29.3862 57.6173 29.5431 56.8449 29.5431C55.0106 29.5431 53.6469 28.9276 52.7539 27.6967C51.1368 28.9276 49.3749 29.5431 47.4681 29.5431C45.8028 29.5431 44.4029 29.1207 43.2685 28.2759C42.1583 27.4312 41.6031 26.1761 41.6031 24.5107ZM47.4319 24.1849C47.4319 24.8848 47.6612 25.44 48.1198 25.8503C48.6025 26.2606 49.1818 26.4657 49.8576 26.4657C50.9437 26.4657 51.8488 26.0675 52.5729 25.271V20.3111C51.2213 20.3111 50.0265 20.6731 48.9887 21.3972C47.9509 22.0972 47.4319 23.0264 47.4319 24.1849Z" fill="black"/>
<path d="M61.0904 12.8169V10.8981H72.1687V12.8169L69.7068 13.3962L73.3634 22.0489L76.9476 13.4324L74.5581 12.8169V10.8981H82.4143V12.8169L79.3732 13.6134L72.929 29.2534H70.3947L63.697 13.5772L61.0904 12.8169Z" fill="black"/>
<path d="M83.0083 19.7318C83.0083 16.8838 83.8048 14.6151 85.3978 12.9256C87.0149 11.2119 89.1991 10.3551 91.9506 10.3551C94.7504 10.3551 96.8623 11.3085 98.2863 13.2152C99.7344 15.1219 100.458 17.4752 100.458 20.2749H88.5837C88.7526 22.061 89.3922 23.6056 90.5025 24.909C91.6127 26.1882 93.0367 26.8278 94.7745 26.8278C96.0778 26.8278 97.4777 26.5502 98.9741 25.9951L99.7344 28.0587C97.4898 29.0483 95.2934 29.5431 93.1453 29.5431C90.0318 29.5431 87.5579 28.638 85.7236 26.8278C83.9134 24.9935 83.0083 22.6281 83.0083 19.7318ZM88.5837 18.0303L94.7021 17.632C94.7021 17.0528 94.6659 16.5218 94.5935 16.0391C94.5211 15.5322 94.3159 14.9288 93.978 14.2289C93.3746 13.2152 92.6626 12.7083 91.842 12.7083C90.8766 12.7083 90.0801 13.2031 89.4526 14.1927C89.0905 14.7961 88.8492 15.4598 88.7285 16.1839C88.6078 16.908 88.5595 17.5234 88.5837 18.0303Z" fill="black"/>
<path d="M102.012 29V27.0812L105.09 26.3571V3.33157H102.012V1.41277L107.805 0.0370331H110.665V26.3571L113.742 27.0812V29H102.012Z" fill="black"/>
</svg>
