<svg width="15" height="15" viewBox="0 0 15 15" fill="none" xmlns="http://www.w3.org/2000/svg">
<path d="M14.3601 1.15013L8.51596 13.9009C8.46706 14.0078 8.38414 14.0953 8.28016 14.15C8.17619 14.2047 8.05703 14.2234 7.94132 14.2031C7.82561 14.1829 7.71987 14.1248 7.64064 14.0381C7.56141 13.9514 7.51316 13.8408 7.50344 13.7238L7.00934 7.79638L1.08197 7.30229C0.964899 7.29256 0.854356 7.24431 0.767625 7.16509C0.680895 7.08586 0.622867 6.98012 0.602619 6.86441C0.58237 6.7487 0.601042 6.62954 0.655714 6.52556C0.710386 6.42159 0.797975 6.33867 0.904783 6.28977L13.6556 0.445643C13.7542 0.400469 13.8642 0.386537 13.9709 0.405718C14.0776 0.4249 14.1759 0.476276 14.2526 0.552949C14.3293 0.629621 14.3807 0.727917 14.3998 0.834638C14.419 0.941359 14.4051 1.05139 14.3599 1.14997L14.3601 1.15013Z" fill="#080809"/>
</svg>
