<svg width="32" height="31" viewBox="0 0 32 31" fill="none" xmlns="http://www.w3.org/2000/svg">
<path d="M28.4986 23.6764C28.4986 24.1414 28.3953 24.6193 28.1757 25.0843C27.9561 25.5493 27.672 25.9885 27.2974 26.4018C26.6645 27.0993 25.967 27.6031 25.179 27.926C24.404 28.2489 23.5645 28.4168 22.6603 28.4168C21.3428 28.4168 19.9349 28.1068 18.4495 27.4739C16.964 26.841 15.4786 25.9885 14.0061 24.9164C12.5207 23.8314 11.1128 22.6302 9.76946 21.2997C8.43904 19.9564 7.23779 18.5485 6.16571 17.076C5.10654 15.6035 4.25404 14.131 3.63404 12.6714C3.01404 11.1989 2.70404 9.791 2.70404 8.44766C2.70404 7.56933 2.85904 6.72975 3.16904 5.95475C3.47904 5.16683 3.96987 4.4435 4.65446 3.79766C5.48112 2.98391 6.38529 2.5835 7.34112 2.5835C7.70279 2.5835 8.06446 2.661 8.38737 2.816C8.72321 2.971 9.02029 3.2035 9.25279 3.53933L12.2495 7.76308C12.482 8.086 12.6499 8.38308 12.7661 8.66725C12.8824 8.9385 12.947 9.20975 12.947 9.45516C12.947 9.76516 12.8565 10.0752 12.6757 10.3722C12.5078 10.6693 12.2624 10.9793 11.9524 11.2893L10.9707 12.3097C10.8286 12.4518 10.764 12.6197 10.764 12.8264C10.764 12.9297 10.777 13.0202 10.8028 13.1235C10.8415 13.2268 10.8803 13.3043 10.9061 13.3818C11.1386 13.8081 11.539 14.3635 12.1074 15.0352C12.6886 15.7068 13.3086 16.3914 13.9803 17.076C14.6778 17.7606 15.3495 18.3935 16.034 18.9747C16.7057 19.5431 17.2611 19.9306 17.7003 20.1631C17.7649 20.1889 17.8424 20.2277 17.9328 20.2664C18.0361 20.3052 18.1395 20.3181 18.2557 20.3181C18.4753 20.3181 18.6432 20.2406 18.7853 20.0985L19.767 19.1297C20.0899 18.8068 20.3999 18.5614 20.697 18.4064C20.994 18.2256 21.2911 18.1352 21.614 18.1352C21.8595 18.1352 22.1178 18.1868 22.402 18.3031C22.6861 18.4193 22.9832 18.5872 23.3061 18.8068L27.5815 21.8422C27.9174 22.0747 28.1499 22.346 28.292 22.6689C28.4211 22.9918 28.4986 23.3147 28.4986 23.6764Z" stroke="#838383" stroke-width="1.5" stroke-miterlimit="10"/>
<path d="M24.0166 11.6253C24.0166 10.8503 23.4095 9.66199 22.5053 8.69324C21.6786 7.80199 20.5807 7.10449 19.4957 7.10449" stroke="#838383" stroke-width="1.5" stroke-linecap="round" stroke-linejoin="round"/>
<path d="M28.5374 11.6252C28.5374 6.62641 24.4945 2.5835 19.4957 2.5835" stroke="#838383" stroke-width="1.5" stroke-linecap="round" stroke-linejoin="round"/>
</svg>
