<svg width="55" height="55" viewBox="0 0 55 55" fill="none" xmlns="http://www.w3.org/2000/svg">
<circle cx="27.5" cy="27.5" r="27.5" fill="url(#paint0_linear_6_60)"/>
<path d="M27.5 13.2812C24.6878 13.2813 21.9388 14.1152 19.6005 15.6775C17.2622 17.2399 15.4398 19.4606 14.3636 22.0587C13.2874 24.6569 13.0058 27.5158 13.5545 30.2739C14.1031 33.0321 15.4573 35.5656 17.4458 37.5542C19.4344 39.5427 21.9679 40.8969 24.7261 41.4455C27.4842 41.9942 30.3431 41.7126 32.9413 40.6364C35.5394 39.5602 37.7601 37.7378 39.3225 35.3995C40.8848 33.0612 41.7188 30.3122 41.7188 27.5C41.7115 23.7312 40.2112 20.1188 37.5462 17.4538C34.8812 14.7888 31.2688 13.2885 27.5 13.2812ZM27.5 39.5312C25.1204 39.5312 22.7943 38.8256 20.8158 37.5036C18.8373 36.1816 17.2952 34.3026 16.3846 32.1042C15.474 29.9057 15.2357 27.4867 15.6999 25.1528C16.1642 22.819 17.31 20.6752 18.9926 18.9926C20.6752 17.31 22.819 16.1642 25.1528 15.6999C27.4867 15.2357 29.9057 15.474 32.1042 16.3846C34.3026 17.2952 36.1816 18.8373 37.5036 20.8158C38.8256 22.7943 39.5313 25.1204 39.5313 27.5C39.5276 30.6898 38.2589 33.7479 36.0034 36.0034C33.7479 38.2589 30.6898 39.5276 27.5 39.5312ZM20.9375 24.7656C20.9375 24.4411 21.0337 24.1239 21.214 23.8541C21.3943 23.5843 21.6505 23.3741 21.9503 23.2499C22.2501 23.1257 22.58 23.0932 22.8982 23.1565C23.2165 23.2198 23.5088 23.3761 23.7382 23.6055C23.9677 23.835 24.1239 24.1273 24.1872 24.4456C24.2505 24.7638 24.218 25.0937 24.0939 25.3935C23.9697 25.6932 23.7594 25.9495 23.4896 26.1298C23.2198 26.31 22.9026 26.4062 22.5781 26.4062C22.143 26.4062 21.7257 26.2334 21.418 25.9257C21.1104 25.618 20.9375 25.2007 20.9375 24.7656ZM30.7813 24.7656C30.7813 24.4411 30.8775 24.1239 31.0578 23.8541C31.238 23.5843 31.4943 23.3741 31.794 23.2499C32.0938 23.1257 32.4237 23.0932 32.7419 23.1565C33.0602 23.2198 33.3525 23.3761 33.582 23.6055C33.8114 23.835 33.9677 24.1273 34.031 24.4456C34.0943 24.7638 34.0618 25.0937 33.9376 25.3935C33.8134 25.6932 33.6032 25.9495 33.3334 26.1298C33.0636 26.31 32.7464 26.4062 32.4219 26.4062C31.9868 26.4062 31.5695 26.2334 31.2618 25.9257C30.9541 25.618 30.7813 25.2007 30.7813 24.7656ZM34.1309 31.3281C33.4589 32.4922 32.4924 33.4588 31.3284 34.1309C30.1645 34.803 28.8441 35.1569 27.5 35.1569C26.1559 35.1569 24.8355 34.803 23.6716 34.1309C22.5076 33.4588 21.5411 32.4922 20.8691 31.3281C20.7835 31.2039 20.7246 31.0634 20.6959 30.9153C20.6672 30.7672 20.6695 30.6148 20.7025 30.4677C20.7356 30.3205 20.7987 30.1818 20.888 30.0602C20.9772 29.9386 21.0906 29.8368 21.2211 29.7611C21.3516 29.6855 21.4963 29.6377 21.6462 29.6206C21.7961 29.6036 21.9478 29.6178 22.092 29.6622C22.2361 29.7066 22.3695 29.7804 22.4837 29.8789C22.598 29.9773 22.6906 30.0984 22.7559 30.2344C23.2376 31.066 23.9294 31.7565 24.7621 32.2364C25.5947 32.7164 26.5389 32.9691 27.5 32.9691C28.4611 32.9691 29.4053 32.7164 30.2379 32.2364C31.0706 31.7565 31.7625 31.066 32.2441 30.2344C32.4004 30.0077 32.6364 29.8483 32.905 29.788C33.1736 29.7276 33.4551 29.7708 33.6932 29.9089C33.9314 30.0469 34.1088 30.2698 34.1899 30.5328C34.271 30.7959 34.2499 31.0799 34.1309 31.3281Z" fill="white"/>
<defs>
<linearGradient id="paint0_linear_6_60" x1="-18" y1="-49.5" x2="43" y2="55" gradientUnits="userSpaceOnUse">
<stop stop-color="white"/>
<stop offset="1" stop-color="white" stop-opacity="0"/>
</linearGradient>
</defs>
</svg>
