<svg width="142" height="125" viewBox="0 0 142 125" fill="none" xmlns="http://www.w3.org/2000/svg">
<path d="M118.518 68.7485C118.408 68.7194 118.307 68.6622 118.226 68.5824C118.144 68.5026 118.085 68.4031 118.053 68.2935C117.759 67.3966 111.037 46.1939 112.78 39.5183C113.648 36.1983 115.798 33.3587 118.759 31.6242C121.72 29.8897 125.248 29.4024 128.568 30.2696C131.888 31.1367 134.728 33.2872 136.463 36.248C138.197 39.2089 138.684 42.7374 137.817 46.0575C136.074 52.7331 119.841 67.9404 119.146 68.579C119.065 68.6592 118.965 68.717 118.855 68.7467C118.745 68.7764 118.629 68.777 118.518 68.7485ZM128.229 31.5709C125.254 30.7976 122.094 31.2358 119.442 32.7895C116.79 34.3431 114.862 36.8852 114.082 39.8582C112.644 45.3626 117.668 62.4796 119.011 66.8617C122.326 63.6963 135.078 51.222 136.516 45.7176C137.289 42.7428 136.851 39.5828 135.297 36.9307C133.744 34.2786 131.202 32.351 128.229 31.5709Z" fill="#3A556A"/>
<path d="M123.263 50.5826C121.719 50.1793 120.329 49.3271 119.269 48.1338C118.209 46.9406 117.527 45.4598 117.308 43.8788C117.09 42.2978 117.345 40.6875 118.042 39.2517C118.739 37.8158 119.846 36.6188 121.223 35.8121C122.6 35.0054 124.186 34.6251 125.779 34.7194C127.372 34.8137 128.902 35.3784 130.174 36.342C131.446 37.3055 132.404 38.6247 132.927 40.1328C133.449 41.6408 133.513 43.27 133.11 44.8142C132.569 46.8849 131.228 48.656 129.381 49.7378C127.534 50.8196 125.334 51.1235 123.263 50.5826ZM127.001 36.2685C125.715 35.9324 124.357 35.9855 123.1 36.4209C121.843 36.8564 120.744 37.6548 119.941 38.715C119.138 39.7753 118.668 41.0499 118.589 42.3776C118.51 43.7052 118.827 45.0264 119.5 46.174C120.172 47.3216 121.169 48.2441 122.366 48.8248C123.563 49.4055 124.904 49.6183 126.222 49.4364C127.539 49.2544 128.773 48.6859 129.768 47.8027C130.762 46.9194 131.472 45.7612 131.808 44.4743C132.251 42.7514 131.993 40.9233 131.091 39.3903C130.189 37.8572 128.716 36.7441 126.995 36.2945L127.001 36.2685Z" fill="#3A556A"/>
<path d="M28.9466 121.299C28.6514 121.319 28.3559 121.262 28.0898 121.132C24.253 118.817 -1.18476 66.6118 0.0430058 63.5808C2.38343 57.7489 53.3613 34.9713 74.7833 27.6175C83.6206 24.5864 84.567 25.1363 85.0147 25.4049C87.8667 27.0675 96.6273 47.6326 99.2491 53.8993C104.71 66.9571 110.171 81.4729 110.043 83.9668C110.043 84.5679 109.954 85.8468 98.6223 91.8961C79.7454 101.936 36.3388 121.299 28.9466 121.299ZM1.2452 63.99C0.976623 68.0314 25.5447 118.101 28.7548 120.045C30.9289 120.966 54.3332 111.719 78.8758 100.222C98.9804 90.7962 108.393 85.2073 108.79 83.8389C109.033 78.7232 87.5981 28.3592 84.3752 26.4792C83.5695 26.1467 77.3155 27.5151 59.0141 34.984C33.0264 45.5735 2.94616 60.1916 1.2452 63.99Z" fill="#3A556A"/>
<path d="M20.2372 52.3902C20.1142 52.3897 19.994 52.3531 19.8917 52.2849C19.7894 52.2167 19.7093 52.1198 19.6616 52.0065C17.398 47.0187 13.7274 38.4115 14.546 36.8768C15.2238 35.5979 28.0258 28.9347 32.4509 26.6454C44.0507 20.7624 50.5988 18.0766 51.9289 18.6777C54.5763 19.8927 60.7407 31.8762 61.4313 33.2447C61.4934 33.3937 61.4967 33.5607 61.4408 33.7122C61.3848 33.8636 61.2736 33.9883 61.1295 34.0612C60.9855 34.134 60.8191 34.1497 60.6639 34.105C60.5088 34.0603 60.3763 33.9586 60.2931 33.8202C57.7352 28.8324 53.0799 20.6217 51.3406 19.8416C48.6676 19.2405 17.0399 35.8025 15.5947 37.5035C15.3517 38.4371 18.0758 45.4968 20.7104 51.4438C20.7796 51.5981 20.7848 51.7736 20.7249 51.9318C20.665 52.09 20.5448 52.218 20.3906 52.2878C20.3443 52.3286 20.2927 52.3631 20.2372 52.3902Z" fill="#3A556A"/>
<path d="M23.716 50.651C23.5975 50.6524 23.4809 50.6209 23.3793 50.5599C23.2777 50.4989 23.195 50.4109 23.1405 50.3057C22.0151 48.0931 18.3829 40.7521 19.3037 38.7186C19.7258 37.6955 24.7903 34.8819 34.3439 30.2905C34.9194 30.0092 48.5015 23.525 49.8699 23.7041C51.2384 23.8831 54.5637 29.9964 57.0448 35.0865C57.0942 35.1622 57.1271 35.2475 57.1412 35.3368C57.1552 35.4261 57.1502 35.5174 57.1264 35.6047C57.1026 35.6919 57.0606 35.7731 57.0031 35.8429C56.9456 35.9127 56.8739 35.9695 56.7929 36.0096C56.7118 36.0497 56.6232 36.0721 56.5329 36.0754C56.4425 36.0787 56.3524 36.0628 56.2686 36.0287C56.1848 35.9947 56.1093 35.9432 56.0469 35.8778C55.9844 35.8124 55.9366 35.7345 55.9065 35.6492C53.5917 30.9172 50.6118 25.5841 49.691 24.983C47.4656 25.4178 21.7592 37.2862 20.4675 39.243C20.0583 40.2278 22.1557 45.4586 24.3043 49.7174C24.3436 49.7918 24.3675 49.8734 24.3746 49.9572C24.3817 50.0411 24.3718 50.1256 24.3456 50.2055C24.3193 50.2855 24.2772 50.3594 24.2218 50.4227C24.1664 50.4861 24.0987 50.5376 24.023 50.5742C23.9296 50.6273 23.8234 50.6539 23.716 50.651Z" fill="#3A556A"/>
<path d="M73.6963 29.2928C73.5504 29.2923 73.4093 29.2409 73.2972 29.1475C73.1852 29.0541 73.1092 28.9246 73.0824 28.7812C73.0824 28.6533 70.3327 15.5572 80.4106 8.89397C80.5531 8.80069 80.7268 8.76782 80.8935 8.8026C81.0602 8.83738 81.2062 8.93697 81.2995 9.07943C81.3927 9.2219 81.4256 9.39554 81.3909 9.56223C81.3561 9.72892 81.2565 9.87498 81.114 9.96826C71.7779 16.1455 74.2973 28.3975 74.3229 28.5126C74.3418 28.595 74.3442 28.6802 74.3299 28.7634C74.3157 28.8467 74.285 28.9263 74.2399 28.9976C74.1947 29.069 74.1358 29.1306 74.0667 29.1791C73.9975 29.2276 73.9194 29.2619 73.8369 29.28L73.6963 29.2928Z" fill="#3A556A"/>
<path d="M81.3315 15.1481C81.1937 15.1447 81.0601 15.1001 80.9478 15.0202C80.8775 14.9663 80.8187 14.899 80.7748 14.8221C80.7309 14.7453 80.7028 14.6604 80.6921 14.5725L79.4771 3.68889C79.4586 3.525 79.5042 3.36036 79.6043 3.22928C79.7044 3.0982 79.8512 3.01085 80.0142 2.9855L98.9423 0.00562693C99.1147 -0.0169452 99.2892 0.0289359 99.4282 0.133488C99.4975 0.184388 99.555 0.249567 99.5969 0.324577C99.6389 0.399587 99.6642 0.48272 99.6712 0.568356L100.81 10.7997C100.825 10.9612 100.78 11.1227 100.683 11.2528C100.586 11.3828 100.444 11.4721 100.285 11.5031L81.4466 15.0841L81.3315 15.1481ZM80.8199 4.14932L81.8943 13.754L99.5306 10.4032L98.533 1.37404L80.8199 4.14932Z" fill="#3A556A"/>
<path d="M40.4062 118.05C40.2834 118.049 40.1635 118.013 40.0597 117.948C39.9558 117.882 39.8721 117.789 39.8178 117.679L11.1572 56.3932C11.0908 56.2366 11.0869 56.0605 11.1463 55.9011C11.2058 55.7417 11.3241 55.6111 11.4769 55.5363C11.5523 55.4999 11.6342 55.4789 11.7178 55.4747C11.8014 55.4704 11.885 55.483 11.9637 55.5116C12.0424 55.5402 12.1146 55.5843 12.1759 55.6413C12.2373 55.6982 12.2866 55.7669 12.321 55.8432L40.9816 117.116C41.0183 117.193 41.0395 117.276 41.0439 117.36C41.0483 117.445 41.0358 117.529 41.0073 117.609C40.9787 117.689 40.9346 117.762 40.8776 117.825C40.8205 117.887 40.7515 117.938 40.6747 117.973C40.5913 118.017 40.5 118.043 40.4062 118.05Z" fill="#3A556A"/>
<path d="M50.3816 114.111C50.26 114.112 50.1409 114.077 50.0387 114.011C49.9365 113.945 49.8557 113.851 49.8061 113.74L20.9536 51.5462C20.8823 51.3919 20.8754 51.2156 20.9341 51.0561C20.9929 50.8966 21.1126 50.7669 21.2669 50.6957C21.4212 50.6245 21.5975 50.6175 21.757 50.6762C21.9165 50.735 22.0461 50.8547 22.1173 51.009L50.9315 113.203C50.9679 113.278 50.9889 113.36 50.9931 113.444C50.9973 113.528 50.9848 113.611 50.9562 113.69C50.9276 113.769 50.8835 113.841 50.8265 113.902C50.7696 113.963 50.7009 114.013 50.6246 114.047C50.55 114.088 50.4666 114.11 50.3816 114.111Z" fill="#3A556A"/>
<path d="M88.2634 97.063C88.14 97.0646 88.0188 97.0304 87.9144 96.9646C87.81 96.8987 87.7269 96.8041 87.6751 96.6921L59.104 34.383C59.0676 34.3076 59.0466 34.2257 59.0423 34.1421C59.0381 34.0585 59.0506 33.9749 59.0792 33.8962C59.1079 33.8175 59.1519 33.7453 59.2089 33.684C59.2659 33.6226 59.3346 33.5733 59.4109 33.5389C59.4872 33.5023 59.5701 33.4811 59.6546 33.4767C59.7392 33.4723 59.8238 33.4847 59.9035 33.5133C59.9832 33.5419 60.0565 33.5859 60.119 33.643C60.1815 33.7001 60.2321 33.7691 60.2678 33.8459L88.8389 96.1678C88.9081 96.3222 88.9133 96.4977 88.8534 96.6559C88.7935 96.8141 88.6733 96.9421 88.5192 97.0119C88.439 97.0483 88.3515 97.0658 88.2634 97.063Z" fill="#3A556A"/>
<path d="M96.6019 92.8553C96.4749 92.8582 96.35 92.8217 96.2446 92.7507C96.1393 92.6797 96.0585 92.5777 96.0136 92.4588L69.6038 30.1753C69.5672 30.0975 69.5467 30.013 69.5434 29.927C69.5402 29.841 69.5544 29.7552 69.5851 29.6748C69.6159 29.5944 69.6625 29.5211 69.7223 29.4591C69.782 29.3972 69.8536 29.348 69.9329 29.3144C70.0121 29.2808 70.0973 29.2635 70.1834 29.2637C70.2694 29.2638 70.3546 29.2813 70.4337 29.3151C70.5128 29.3489 70.5843 29.3984 70.6439 29.4605C70.7035 29.5226 70.75 29.5961 70.7804 29.6765L97.1902 91.9601C97.2237 92.0381 97.2413 92.122 97.2421 92.2069C97.2428 92.2918 97.2266 92.3759 97.1945 92.4545C97.1623 92.5331 97.1148 92.6045 97.0548 92.6645C96.9948 92.7245 96.9235 92.772 96.8449 92.8042C96.7689 92.8395 96.6857 92.857 96.6019 92.8553Z" fill="#3A556A"/>
<path d="M31.492 92.6509C31.3721 92.6512 31.2546 92.6177 31.1529 92.5544C31.0511 92.4911 30.9692 92.4004 30.9164 92.2928L27.4761 85.2587C27.4122 85.103 27.4122 84.9285 27.4761 84.7728C27.5359 84.6114 27.6548 84.4788 27.8086 84.4019L32.4767 82.1126C32.5531 82.078 32.6359 82.0601 32.7197 82.0601C32.8036 82.0601 32.8864 82.078 32.9627 82.1126C33.0432 82.1376 33.1177 82.1789 33.1815 82.2339C33.2453 82.2889 33.297 82.3564 33.3336 82.4323L36.7739 89.4664C36.8373 89.6266 36.8373 89.805 36.7739 89.9652C36.7094 90.1205 36.5915 90.2475 36.4414 90.3233L31.7478 92.587C31.6669 92.6231 31.5803 92.6448 31.492 92.6509ZM28.9341 85.2715L31.7478 91.193L35.2648 89.4664L32.3872 83.5833L28.9341 85.2715Z" fill="#3A556A"/>
<path d="M79.0678 71.2671C78.9416 71.2665 78.8184 71.2284 78.7137 71.1579C78.609 71.0873 78.5275 70.9874 78.4795 70.8706L75.3717 63.683C75.3078 63.5274 75.3078 63.3527 75.3717 63.197C75.4004 63.1162 75.446 63.0424 75.5056 62.9806C75.5651 62.9189 75.6373 62.8705 75.717 62.8389L80.4874 60.7799C80.6437 60.7149 80.8192 60.7133 80.9768 60.7754C81.1343 60.8374 81.2615 60.9583 81.3315 61.1124L84.4265 68.3127C84.4915 68.4691 84.4931 68.6446 84.431 68.8021C84.369 68.9596 84.2481 69.0868 84.094 69.1568L79.3108 71.2031C79.2355 71.2421 79.1525 71.2639 79.0678 71.2671ZM76.8041 63.7598L79.3619 69.7835L82.9557 68.236L80.3979 62.2123L76.8041 63.7598Z" fill="#3A556A"/>
<path d="M36.633 124.445C35.9668 124.444 35.3146 124.253 34.753 123.895C33.5448 122.93 32.7124 121.572 32.3998 120.058C32.3838 119.974 32.3846 119.888 32.402 119.804C32.4194 119.72 32.4531 119.641 32.5012 119.57C32.5493 119.5 32.6108 119.439 32.6823 119.392C32.7538 119.345 32.8337 119.313 32.9177 119.297C33.0017 119.281 33.088 119.282 33.1717 119.299C33.2554 119.317 33.3348 119.35 33.4055 119.398C33.4762 119.447 33.5367 119.508 33.5836 119.58C33.6304 119.651 33.6628 119.731 33.6787 119.815C33.9212 121.004 34.5508 122.079 35.4692 122.872C35.7422 123.044 36.0484 123.157 36.3679 123.203C36.6873 123.249 37.013 123.228 37.3236 123.14C38.6025 122.846 42.7463 121.682 44.1403 119.15C44.4064 118.657 44.5615 118.112 44.5947 117.553C44.6278 116.994 44.5382 116.435 44.3322 115.914C44.2996 115.761 44.3243 115.602 44.4016 115.465C44.4788 115.329 44.6034 115.226 44.7515 115.176C44.8996 115.126 45.0611 115.131 45.2054 115.192C45.3497 115.252 45.4667 115.364 45.5344 115.505C45.7988 116.195 45.9105 116.934 45.862 117.672C45.8134 118.409 45.6056 119.127 45.2529 119.777C43.6543 122.68 39.3827 123.959 37.5794 124.381C37.2673 124.437 36.9499 124.459 36.633 124.445Z" fill="#3A556A"/>
<path d="M96.9727 97.677C94.9627 97.542 93.0488 96.7666 91.5117 95.4644C91.3937 95.3427 91.3278 95.1799 91.3278 95.0104C91.3278 94.8409 91.3937 94.6781 91.5117 94.5564C91.5711 94.4965 91.6418 94.4489 91.7198 94.4164C91.7977 94.384 91.8813 94.3672 91.9657 94.3672C92.0502 94.3672 92.1337 94.384 92.2116 94.4164C92.2895 94.4489 92.3603 94.4965 92.4197 94.5564C92.4197 94.5564 95.6042 97.3061 98.5713 96.1679L98.8143 96.0783C102.203 94.7994 105.695 93.4437 103.853 88.1234C103.797 87.9538 103.811 87.7689 103.891 87.6094C103.972 87.4499 104.112 87.3289 104.282 87.2729C104.451 87.217 104.636 87.2307 104.796 87.311C104.955 87.3914 105.076 87.5318 105.132 87.7014C107.37 94.1983 102.574 96.0527 99.3387 97.2677L99.0957 97.37C98.4141 97.6069 97.6935 97.7111 96.9727 97.677Z" fill="#3A556A"/>
<path d="M49.6526 63.4658L29.8805 60.3835C29.7145 60.3576 29.5642 60.271 29.4585 60.1405C29.4083 60.0711 29.3723 59.9924 29.3525 59.909C29.3328 59.8256 29.3297 59.7391 29.3433 59.6546L30.8013 50.2801C30.8296 50.1144 30.9219 49.9665 31.0583 49.8684C31.1947 49.7703 31.3643 49.7298 31.5303 49.7557L51.3024 52.8251C51.3862 52.8377 51.4667 52.8668 51.5392 52.9107C51.6116 52.9546 51.6746 53.0124 51.7245 53.0809C51.7743 53.1481 51.8101 53.2246 51.8299 53.3058C51.8496 53.3871 51.853 53.4715 51.8396 53.5541L50.3816 62.9286C50.3691 63.0118 50.3404 63.0917 50.2969 63.1637C50.2535 63.2357 50.1963 63.2985 50.1286 63.3484C50.0608 63.3983 49.9839 63.4344 49.9023 63.4545C49.8206 63.4746 49.7358 63.4785 49.6526 63.4658ZM30.6734 59.2197L49.1794 62.0973L50.4584 53.9889L31.9523 51.1114L30.6734 59.2197Z" fill="#3A556A"/>
<path d="M55.6505 102.703C55.583 102.716 55.5135 102.716 55.446 102.703C55.3655 102.678 55.291 102.637 55.2272 102.582C55.1634 102.527 55.1116 102.459 55.075 102.383L48.1689 88.3152C48.1343 88.2388 48.1163 88.156 48.1163 88.0722C48.1163 87.9884 48.1343 87.9055 48.1689 87.8292C48.1939 87.7487 48.2351 87.6743 48.2901 87.6105C48.3451 87.5467 48.4127 87.4948 48.4886 87.4583L63.9124 79.9126C63.988 79.8755 64.0701 79.8537 64.1541 79.8484C64.2381 79.8431 64.3223 79.8545 64.4019 79.8818C64.4815 79.9091 64.555 79.9519 64.618 80.0077C64.681 80.0634 64.7324 80.1311 64.7693 80.2068L71.6754 94.275C71.7125 94.3505 71.7344 94.4326 71.7397 94.5166C71.7449 94.6006 71.7337 94.6849 71.7063 94.7645C71.679 94.8441 71.6362 94.9175 71.5804 94.9805C71.5246 95.0436 71.457 95.095 71.3813 95.1318L55.9319 102.703C55.8391 102.722 55.7433 102.722 55.6505 102.703ZM49.6524 88.2896L56.047 101.258L70.3326 94.2622L63.9379 81.2939L49.6524 88.2896Z" fill="#3A556A"/>
<path d="M61.572 72.981C61.4035 72.9668 61.2453 72.8944 61.1243 72.7764L53.7705 64.7575C53.7139 64.6955 53.6701 64.6229 53.6416 64.5439C53.6131 64.4649 53.6004 64.381 53.6043 64.2971C53.6182 64.1324 53.6908 63.9781 53.8089 63.8623L60.9964 57.263C61.1181 57.1451 61.2809 57.0791 61.4504 57.0791C61.6199 57.0791 61.7828 57.1451 61.9045 57.263L69.2583 65.2691C69.3763 65.3908 69.4422 65.5536 69.4422 65.7231C69.4422 65.8926 69.3763 66.0555 69.2583 66.1771L62.0708 72.7764C62.007 72.8441 61.9295 72.8973 61.8434 72.9326C61.7574 72.9679 61.6649 72.9844 61.572 72.981ZM55.1773 64.3739L61.6615 71.4335L67.9026 65.7039L61.4185 58.6443L55.1773 64.3739Z" fill="#3A556A"/>
<path d="M16.861 87.9825C16.7418 87.9799 16.6255 87.9453 16.5243 87.8823C16.423 87.8193 16.3405 87.7303 16.2855 87.6244L12.5639 80.066C12.5294 79.9851 12.5117 79.8982 12.5117 79.8102C12.5117 79.7223 12.5294 79.6353 12.5639 79.5544C12.5973 79.4707 12.6474 79.3946 12.7112 79.3309C12.7749 79.2671 12.851 79.217 12.9347 79.1835L21.0815 75.9862C21.2392 75.9235 21.4154 75.926 21.5713 75.9932C21.7272 76.0603 21.85 76.1867 21.9128 76.3444C21.9755 76.5021 21.9731 76.6783 21.9059 76.8342C21.8388 76.9901 21.7125 77.1129 21.5547 77.1757L14.0474 80.1172L17.1808 86.5118L24.7008 83.6982C24.7797 83.6674 24.8639 83.6525 24.9486 83.6545C25.0333 83.6565 25.1167 83.6753 25.194 83.7098C25.2714 83.7443 25.3411 83.7938 25.3992 83.8555C25.4572 83.9172 25.5024 83.9898 25.5322 84.069C25.5904 84.2268 25.5841 84.4012 25.5147 84.5545C25.4453 84.7077 25.3183 84.8273 25.1612 84.8876L17.0912 87.9186C17.0185 87.9524 16.9408 87.974 16.861 87.9825Z" fill="#3A556A"/>
<path d="M93.993 86.6909C93.8649 86.6911 93.7397 86.6536 93.6328 86.5831C93.5259 86.5126 93.4421 86.4122 93.3919 86.2944C93.3324 86.1365 93.3365 85.9616 93.4033 85.8065C93.4701 85.6515 93.5943 85.5284 93.75 85.4631C93.75 85.4631 98.2134 83.6854 99.4412 80.2451C99.7329 79.3316 99.8154 78.3641 99.6826 77.4144C99.5497 76.4647 99.205 75.557 98.6739 74.7585C98.2957 73.9936 97.7572 73.319 97.0952 72.7805C96.4332 72.2421 95.6631 71.8524 94.8371 71.638C91.7933 70.9345 88.6343 73.1087 88.6088 73.1215C88.5402 73.1747 88.4615 73.2133 88.3775 73.2351C88.2935 73.2569 88.206 73.2613 88.1202 73.2482C88.0344 73.2351 87.9521 73.2046 87.8785 73.1587C87.8049 73.1128 87.7414 73.0524 87.6919 72.9811C87.6423 72.9099 87.6079 72.8293 87.5905 72.7442C87.5731 72.6592 87.5731 72.5716 87.5907 72.4866C87.6083 72.4016 87.643 72.3211 87.6927 72.25C87.7423 72.1788 87.806 72.1185 87.8798 72.0728C88.0332 71.9705 91.5375 69.5789 95.1312 70.3974C96.1245 70.6504 97.0513 71.1151 97.8482 71.7596C98.6451 72.4042 99.2932 73.2134 99.7481 74.1319C100.369 75.0907 100.769 76.1761 100.917 77.309C101.065 78.4419 100.959 79.5935 100.605 80.6799C99.1727 84.6702 94.3895 86.5758 94.2104 86.6525C94.1403 86.6763 94.067 86.6892 93.993 86.6909Z" fill="#3A556A"/>
</svg>
