<svg width="24" height="24" viewBox="0 0 24 24" fill="none" xmlns="http://www.w3.org/2000/svg">
<path d="M6.19 7.06C6.45 7.02 6.72 7 7 7H17C17.26 7 17.51 7.00999 17.75 7.04999C20.33 7.34999 22 9.26 22 12V17C22 20 20 22 17 22H7.63C7.94 21.74 8.20998 21.42 8.41998 21.06C8.78998 20.46 9 19.75 9 19C9 16.79 7.21 15 5 15C3.8 15 2.73 15.53 2 16.36V12C2 11.13 2.16998 10.34 2.47998 9.66998" stroke="black" stroke-opacity="0.38" stroke-width="1.5" stroke-linecap="round" stroke-linejoin="round"/>
<path d="M17.75 7.04997C17.51 7.00997 17.26 6.99998 17 6.99998H7C6.72 6.99998 6.45 7.01998 6.19 7.05998C6.33 6.77998 6.53002 6.52001 6.77002 6.28001L10.02 3.02C11.39 1.66 13.61 1.66 14.98 3.02L16.73 4.78996C17.37 5.41996 17.71 6.21997 17.75 7.04997Z" stroke="black" stroke-opacity="0.38" stroke-width="1.5" stroke-linecap="round" stroke-linejoin="round"/>
<path d="M22 12.5H19C17.9 12.5 17 13.4 17 14.5C17 15.6 17.9 16.5 19 16.5H22" stroke="black" stroke-opacity="0.38" stroke-width="1.5" stroke-linecap="round" stroke-linejoin="round"/>
<path d="M9 19C9 19.75 8.78998 20.46 8.41998 21.06C8.20998 21.42 7.94 21.74 7.63 22C6.93 22.63 6.01 23 5 23C3.54 23 2.27002 22.22 1.58002 21.06C1.21002 20.46 1 19.75 1 19C1 17.99 1.38 17.07 2 16.36C2.73 15.53 3.8 15 5 15C7.21 15 9 16.79 9 19Z" stroke="black" stroke-opacity="0.38" stroke-width="1.5" stroke-miterlimit="10" stroke-linecap="round" stroke-linejoin="round"/>
<path d="M6.07001 20.04L3.96002 17.93" stroke="black" stroke-opacity="0.38" stroke-width="1.5" stroke-miterlimit="10" stroke-linecap="round" stroke-linejoin="round"/>
<path d="M6.03998 17.96L3.92999 20.07" stroke="black" stroke-opacity="0.38" stroke-width="1.5" stroke-miterlimit="10" stroke-linecap="round" stroke-linejoin="round"/>
</svg>
