<svg width="31" height="31" viewBox="0 0 31 31" fill="none" xmlns="http://www.w3.org/2000/svg">
<path d="M28.3779 23.6764C28.3779 24.1414 28.2746 24.6193 28.055 25.0843C27.8354 25.5493 27.5512 25.9885 27.1766 26.4018C26.5437 27.0993 25.8462 27.6031 25.0583 27.926C24.2833 28.2489 23.4437 28.4168 22.5396 28.4168C21.2221 28.4168 19.8141 28.1068 18.3287 27.4739C16.8433 26.841 15.3579 25.9885 13.8854 24.9164C12.4 23.8314 10.9921 22.6302 9.64873 21.2997C8.31831 19.9564 7.11706 18.5485 6.04498 17.076C4.98581 15.6035 4.13331 14.131 3.51331 12.6714C2.89331 11.1989 2.58331 9.791 2.58331 8.44766C2.58331 7.56933 2.73831 6.72975 3.04831 5.95475C3.35831 5.16683 3.84915 4.4435 4.53373 3.79766C5.3604 2.98391 6.26456 2.5835 7.2204 2.5835C7.58206 2.5835 7.94373 2.661 8.26665 2.816C8.60248 2.971 8.89956 3.2035 9.13206 3.53933L12.1287 7.76308C12.3612 8.086 12.5291 8.38308 12.6454 8.66725C12.7616 8.9385 12.8262 9.20975 12.8262 9.45516C12.8262 9.76516 12.7358 10.0752 12.555 10.3722C12.3871 10.6693 12.1416 10.9793 11.8316 11.2893L10.85 12.3097C10.7079 12.4518 10.6433 12.6197 10.6433 12.8264C10.6433 12.9297 10.6562 13.0202 10.6821 13.1235C10.7208 13.2268 10.7596 13.3043 10.7854 13.3818C11.0179 13.8081 11.4183 14.3635 11.9866 15.0352C12.5679 15.7068 13.1879 16.3914 13.8596 17.076C14.5571 17.7606 15.2287 18.3935 15.9133 18.9747C16.585 19.5431 17.1404 19.9306 17.5796 20.1631C17.6441 20.1889 17.7216 20.2277 17.8121 20.2664C17.9154 20.3052 18.0187 20.3181 18.135 20.3181C18.3546 20.3181 18.5225 20.2406 18.6646 20.0985L19.6462 19.1297C19.9691 18.8068 20.2791 18.5614 20.5762 18.4064C20.8733 18.2256 21.1704 18.1352 21.4933 18.1352C21.7387 18.1352 21.9971 18.1868 22.2812 18.3031C22.5654 18.4193 22.8625 18.5872 23.1854 18.8068L27.4608 21.8422C27.7966 22.0747 28.0291 22.346 28.1712 22.6689C28.3004 22.9918 28.3779 23.3147 28.3779 23.6764Z" stroke="white" stroke-width="1.5" stroke-miterlimit="10"/>
<path d="M23.8958 11.6253C23.8958 10.8503 23.2888 9.66199 22.3846 8.69324C21.5579 7.80199 20.46 7.10449 19.375 7.10449" stroke="white" stroke-width="1.5" stroke-linecap="round" stroke-linejoin="round"/>
<path d="M28.4167 11.6252C28.4167 6.62641 24.3738 2.5835 19.375 2.5835" stroke="white" stroke-width="1.5" stroke-linecap="round" stroke-linejoin="round"/>
</svg>
