<svg width="114" height="30" viewBox="0 0 114 30" fill="none" xmlns="http://www.w3.org/2000/svg">
<path d="M0.796478 11.3327V3.65748H23.0618V11.3327H20.8533L19.369 6.44517H14.8797V26.1762L18.2105 26.9727V29.0001H5.64777V26.9727L8.97852 26.1762V6.44517H4.45305L2.9687 11.3327H0.796478Z" fill="white"/>
<path d="M24.7034 29.0001V27.0813L27.7807 26.3572V14.1928H24.7034V12.274L30.496 10.8982H33.3561V13.0704C35.1662 11.2603 37.3143 10.3552 39.8003 10.3552C39.9451 10.8137 40.0175 11.3206 40.0175 11.8757C40.0175 12.986 39.8969 14.0238 39.6555 14.9892L35.0938 14.229C34.5146 14.4945 33.9353 14.8806 33.3561 15.3875V26.3572L37.1574 27.0813V29.0001H24.7034Z" fill="white"/>
<path d="M41.6031 24.5108C41.6031 22.411 42.46 20.818 44.1736 19.7319C45.9114 18.6217 48.7111 18.0666 52.5729 18.0666V16.9804C52.5729 16.2564 52.5608 15.7374 52.5367 15.4237C52.5367 15.0858 52.4884 14.6875 52.3918 14.229C52.2953 13.7704 52.1505 13.4445 51.9574 13.2515C51.7885 13.0584 51.523 12.8894 51.1609 12.7446C50.7989 12.5757 50.3524 12.4912 49.8214 12.4912L45.2235 16.4736C43.5823 15.5323 42.7617 14.0721 42.7617 12.0929L43.8478 11.6223C44.3064 11.4292 45.1994 11.1758 46.5268 10.862C47.8543 10.5241 49.1456 10.3552 50.4006 10.3552C55.5898 10.3552 58.1844 12.4308 58.1844 16.5822V26.2848H61.0083V27.8416C60.8877 27.9622 60.7187 28.1191 60.5015 28.3122C60.2843 28.5053 59.8136 28.7587 59.0895 29.0725C58.3655 29.3862 57.6173 29.5431 56.8449 29.5431C55.0106 29.5431 53.6469 28.9277 52.7539 27.6967C51.1368 28.9277 49.3749 29.5431 47.4681 29.5431C45.8028 29.5431 44.4029 29.1208 43.2685 28.276C42.1583 27.4312 41.6031 26.1762 41.6031 24.5108ZM47.4319 24.185C47.4319 24.8849 47.6612 25.44 48.1198 25.8504C48.6025 26.2607 49.1818 26.4658 49.8576 26.4658C50.9437 26.4658 51.8488 26.0676 52.5729 25.2711V20.3112C51.2213 20.3112 50.0265 20.6732 48.9887 21.3973C47.9509 22.0972 47.4319 23.0265 47.4319 24.185Z" fill="white"/>
<path d="M60.4893 12.817V10.8982H71.5676V12.817L69.1058 13.3963L72.7624 22.049L76.3465 13.4325L73.9571 12.817V10.8982H81.8133V12.817L78.7722 13.6135L72.3279 29.2535H69.7937L63.096 13.5773L60.4893 12.817Z" fill="white"/>
<path d="M82.4073 19.7319C82.4073 16.8839 83.2038 14.6151 84.7967 12.9256C86.4138 11.212 88.5981 10.3552 91.3496 10.3552C94.1493 10.3552 96.2612 11.3085 97.6852 13.2153C99.1334 15.122 99.8575 17.4752 99.8575 20.275H87.9826C88.1516 22.061 88.7912 23.6057 89.9014 24.9091C91.0117 26.1883 92.4357 26.8279 94.1735 26.8279C95.4768 26.8279 96.8767 26.5503 98.3731 25.9952L99.1334 28.0588C96.8887 29.0483 94.6924 29.5431 92.5443 29.5431C89.4308 29.5431 86.9569 28.638 85.1225 26.8279C83.3124 24.9935 82.4073 22.6282 82.4073 19.7319ZM87.9826 18.0304L94.1011 17.6321C94.1011 17.0529 94.0649 16.5219 93.9925 16.0391C93.92 15.5323 93.7149 14.9289 93.377 14.229C92.7736 13.2153 92.0616 12.7084 91.241 12.7084C90.2755 12.7084 89.4791 13.2032 88.8515 14.1928C88.4895 14.7962 88.2481 15.4599 88.1274 16.184C88.0068 16.908 87.9585 17.5235 87.9826 18.0304Z" fill="white"/>
<path d="M101.411 29.0001V27.0813L104.489 26.3572V3.33165H101.411V1.41285L107.204 0.0371094H110.064V26.3572L113.141 27.0813V29.0001H101.411Z" fill="white"/>
</svg>
