<svg width="55" height="55" viewBox="0 0 55 55" fill="none" xmlns="http://www.w3.org/2000/svg">
<circle cx="27.5" cy="27.5" r="27.5" fill="url(#paint0_linear_6_61)"/>
<path d="M38.1459 34.6458C38.7292 33.625 39.1667 32.4583 39.1667 31.1458C39.1667 27.5 36.25 24.5833 32.6042 24.5833C28.9584 24.5833 26.0417 27.5 26.0417 31.1458C26.0417 34.7916 28.9584 37.7083 32.6042 37.7083C33.9167 37.7083 35.0834 37.2708 36.1042 36.6875L40.7709 41.3541L42.8125 39.3125L38.1459 34.6458ZM32.6042 34.7916C30.5625 34.7916 28.9584 33.1875 28.9584 31.1458C28.9584 29.1041 30.5625 27.5 32.6042 27.5C34.6459 27.5 36.25 29.1041 36.25 31.1458C36.25 33.1875 34.6459 34.7916 32.6042 34.7916ZM27.5 39.1666V42.0833C19.45 42.0833 12.9167 35.55 12.9167 27.5C12.9167 19.45 19.45 12.9166 27.5 12.9166C34.5584 12.9166 40.4354 17.9333 41.7917 24.5833H38.7729C38.3181 22.8214 37.4574 21.1903 36.2597 19.8204C35.062 18.4505 33.5604 17.3797 31.875 16.6937V17.2916C31.875 18.8958 30.5625 20.2083 28.9584 20.2083H26.0417V23.125C26.0417 23.927 25.3854 24.5833 24.5834 24.5833H21.6667V27.5H24.5834V31.875H23.125L16.1396 24.8895C15.95 25.7354 15.8334 26.5958 15.8334 27.5C15.8334 33.9312 21.0688 39.1666 27.5 39.1666Z" fill="white"/>
<defs>
<linearGradient id="paint0_linear_6_61" x1="-18" y1="-49.5" x2="43" y2="55" gradientUnits="userSpaceOnUse">
<stop stop-color="white"/>
<stop offset="1" stop-color="white" stop-opacity="0"/>
</linearGradient>
</defs>
</svg>
